<svg fill="white" id="icon-equipment" width="80" height="80" viewBox="0 0 80 80"  xmlns="http://www.w3.org/2000/svg">
<path d="M74.8565 15.5426H69.814V14.2819C69.814 12.1932 68.1208 10.5 66.032 10.5H58.4682V10.529C57.3297 10.52 56.2226 10.9018 55.3317 11.6106L40.291 23.7367C39.6212 22.5713 38.3815 21.8509 37.0373 21.8458H16.8671C14.7784 21.8458 13.0851 23.539 13.0851 25.6277V34.4522H6.78192C4.69322 34.4522 3 36.1454 3 38.2341V55.8831C3.00673 57.4844 4.0212 58.9079 5.53263 59.4368C5.53263 59.5125 5.52128 59.5881 5.52128 59.665C5.52128 64.5386 9.47214 68.4895 14.3458 68.4895C19.2194 68.4895 23.1703 64.5386 23.1703 59.665H30.7341C30.7286 64.3761 34.4247 68.2607 39.1302 68.4894C43.8357 68.7181 47.8911 65.2102 48.3425 60.5208C48.7938 55.8314 45.482 51.6144 40.8192 50.9414V40.8562L58.5602 22.6564C58.9406 24.3899 60.4753 25.6257 62.2501 25.6277H64.7714V33.1915C64.7714 34.584 65.9002 35.7128 67.2927 35.7128V45.8711C63.6734 46.2606 60.9895 48.3003 60.9895 50.8405C60.9895 53.3807 63.6734 55.4204 67.2927 55.81V65.9682C67.2927 66.6644 67.8571 67.2288 68.5533 67.2288C69.2496 67.2288 69.814 66.6644 69.814 65.9682V63.3738C73.4333 62.9843 76.1172 60.9445 76.1172 58.4044C76.1172 55.8642 73.4333 53.8244 69.814 53.4349V48.2461C73.4333 47.8566 76.1172 45.8169 76.1172 43.2767C76.1172 40.7365 73.4333 38.6968 69.814 38.3072V35.7128C71.2064 35.7128 72.3353 34.584 72.3353 33.1915V25.6277H74.8565C76.9452 25.6277 78.6385 23.9345 78.6385 21.8458V19.3245C78.6385 17.2358 76.9452 15.5426 74.8565 15.5426ZM63.5108 50.8405C63.5108 49.832 65.0664 48.7315 67.2927 48.4163V53.2647C65.0664 52.9496 63.5108 51.849 63.5108 50.8405ZM73.5959 58.4044C73.5959 59.4129 72.0403 60.5134 69.814 60.8286V55.9801C72.0403 56.2953 73.5959 57.3958 73.5959 58.4044ZM73.5959 43.2767C73.5959 44.2852 72.0403 45.3857 69.814 45.7009V40.8525C72.0403 41.1676 73.5959 42.2682 73.5959 43.2767ZM67.2927 14.2819V15.5426H63.4931C63.4986 14.6583 63.2699 13.7884 62.83 13.0213H66.032C66.7283 13.0213 67.2927 13.5857 67.2927 14.2819ZM38.2979 25.6277V43.2767H23.1703C22.474 43.2767 21.9096 42.7123 21.9096 42.016V24.3671H37.0373C37.7335 24.3671 38.2979 24.9315 38.2979 25.6277ZM5.52128 55.8831V38.2341C5.52128 37.5379 6.08569 36.9735 6.78192 36.9735H13.0851V50.9414C9.80045 51.4205 7.06117 53.6996 5.99276 56.8424C5.69852 56.6105 5.52517 56.2577 5.52128 55.8831ZM14.3458 65.9682C10.8646 65.9682 8.04256 63.1462 8.04256 59.665C8.04256 56.1838 10.8646 53.3618 14.3458 53.3618C17.8269 53.3618 20.649 56.1838 20.649 59.665C20.6448 63.1444 17.8252 65.964 14.3458 65.9682ZM22.7984 57.1437C21.8095 53.8547 19.0051 51.4361 15.6064 50.9414V25.6277C15.6064 24.9315 16.1708 24.3671 16.8671 24.3671H19.3883V42.016C19.3883 44.1047 21.0816 45.7979 23.1703 45.7979H38.2979V50.9414C34.9017 51.4384 32.1002 53.8565 31.1123 57.1437H22.7984ZM45.8618 59.665C45.8618 63.1462 43.0398 65.9682 39.5586 65.9682C36.0774 65.9682 33.2554 63.1462 33.2554 59.665C33.2554 56.1838 36.0774 53.3618 39.5586 53.3618C43.038 53.366 45.8576 56.1856 45.8618 59.665ZM40.8192 26.5467L56.9138 13.5747C57.4336 13.1581 58.0977 12.9652 58.7597 13.0385C59.4218 13.1118 60.0276 13.4453 60.4436 13.9655C60.8566 14.4754 61.0462 15.1304 60.9693 15.7821C59.551 16.2982 58.5773 17.6107 58.4947 19.1177L40.8192 37.2407V26.5467ZM69.814 33.1915H67.2927V25.6277H69.814V33.1915ZM76.1172 21.8458C76.1172 22.542 75.5528 23.1064 74.8565 23.1064H62.2501C61.5539 23.1064 60.9895 22.542 60.9895 21.8458V19.3245C60.9895 18.6283 61.5539 18.0638 62.2501 18.0638H74.8565C75.5528 18.0638 76.1172 18.6283 76.1172 19.3245V21.8458Z" />
<path d="M25.6916 30.6702C26.0259 30.6702 26.3465 30.5373 26.5828 30.3009L27.8435 29.0402C28.3212 28.5456 28.3144 27.7593 27.8281 27.273C27.3418 26.7868 26.5556 26.7799 26.0609 27.2577L24.8003 28.5183C24.4399 28.8789 24.3321 29.421 24.5271 29.892C24.7222 30.363 25.1818 30.6701 25.6916 30.6702Z" />
<path d="M25.6916 36.9735C26.0259 36.9734 26.3465 36.8405 26.5828 36.6041L34.1467 29.0402C34.6244 28.5456 34.6176 27.7593 34.1313 27.273C33.645 26.7868 32.8588 26.7799 32.3641 27.2577L24.8003 34.8215C24.4399 35.1821 24.3321 35.7242 24.5271 36.1952C24.7222 36.6662 25.1818 36.9733 25.6916 36.9735Z" />
<path d="M14.3457 55.8831C12.257 55.8831 10.5638 57.5763 10.5638 59.665C10.5638 61.7537 12.257 63.4469 14.3457 63.4469C16.4344 63.4469 18.1276 61.7537 18.1276 59.665C18.1276 57.5763 16.4344 55.8831 14.3457 55.8831ZM14.3457 60.9256C13.6495 60.9256 13.085 60.3612 13.085 59.665C13.085 58.9687 13.6495 58.4043 14.3457 58.4043C15.0419 58.4043 15.6063 58.9687 15.6063 59.665C15.6063 60.3612 15.0419 60.9256 14.3457 60.9256Z" />
<path d="M35.7767 59.665C35.7767 61.7537 37.4699 63.4469 39.5586 63.4469C41.6473 63.4469 43.3405 61.7537 43.3405 59.665C43.3405 57.5763 41.6473 55.8831 39.5586 55.8831C37.4699 55.8831 35.7767 57.5763 35.7767 59.665ZM40.8192 59.665C40.8192 60.3612 40.2548 60.9256 39.5586 60.9256C38.8623 60.9256 38.2979 60.3612 38.2979 59.665C38.2979 58.9687 38.8623 58.4043 39.5586 58.4043C40.2548 58.4043 40.8192 58.9687 40.8192 59.665Z" />
<path d="M24.4308 48.3192H23.1702C22.4739 48.3192 21.9095 48.8836 21.9095 49.5799C21.9095 50.2761 22.4739 50.8405 23.1702 50.8405H24.4308C25.127 50.8405 25.6914 50.2761 25.6914 49.5799C25.6914 48.8836 25.127 48.3192 24.4308 48.3192Z" />
</svg>
