<svg id="logo-twitter" width="36" height="34" viewBox="0 0 36 34" fill="none" xmlns="http://www.w3.org/2000/svg">
<path d="M17.9167 0C8.02226 0 0 7.46257 0 16.6667C0 25.8708 8.02226 33.3333 17.9167 33.3333C27.8111 33.3333 35.8333 25.8708 35.8333 16.6667C35.8333 7.46257 27.8111 0 17.9167 0Z" fill="#47556C"/>
<path d="M28.6667 10.9326C27.8759 11.2597 26.8768 11.5657 25.9792 11.6666C26.8908 11.1637 28.3378 10.1155 28.6667 9.16663C27.8147 9.63212 26.2732 10.1302 25.2689 10.3092C24.4658 9.51819 23.3215 9.16663 22.053 9.16663C19.6157 9.16663 17.9167 11.0872 17.9167 13.3333V15C14.3334 15 10.8393 12.4609 8.66622 9.99996C8.28304 10.6005 8.06783 11.3037 8.06783 12.0475C8.06783 13.5628 9.56555 15.1009 10.7501 15.8333C10.0275 15.8121 8.65747 15.2994 8.06258 15C8.06258 15.013 8.06258 15.0293 8.06258 15.0472C8.06258 17.0198 9.5498 18.3593 11.5672 18.7321C11.1997 18.8265 10.7501 19.1666 9.02315 19.1666C9.58305 20.7796 12.4035 21.6308 14.3334 21.6666C12.8234 22.7555 10.1307 23.3333 8.06258 23.3333C7.70565 23.3333 7.51143 23.3512 7.16675 23.3138C9.11764 24.4645 11.8436 25 14.3334 25C22.4467 25 26.8751 19.235 26.8751 13.859C26.8751 13.6816 26.8681 13.0892 26.8593 12.9166C27.7254 12.3486 28.0771 11.7529 28.6667 10.9326Z" fill="white"/>
</svg>
