<svg id="logo-vk" width="36" height="36" viewBox="0 0 36 36" fill="none" xmlns="http://www.w3.org/2000/svg">
<path fill-rule="evenodd" clip-rule="evenodd" d="M18.1331 1.2141C27.5345 1.2141 35.1559 8.66232 35.1559 17.8502C35.1559 27.0377 27.5345 34.4859 18.1331 34.4859C8.73173 34.4859 1.11038 27.0377 1.11038 17.8502C1.11038 8.66232 8.73173 1.2141 18.1331 1.2141Z" fill="#47556C"/>
<path d="M19.7607 20.6746C20.3982 20.4685 21.2143 22.0348 22.0831 22.6343C22.7353 23.0884 23.2347 22.9904 23.2347 22.9904L25.5505 22.957C25.5505 22.957 26.7607 22.8823 26.1886 21.9208C26.1413 21.8408 25.8532 21.208 24.4649 19.9058C23.0133 18.5435 23.21 18.7642 24.9577 16.4091C26.0226 14.9735 26.4486 14.0967 26.3153 13.7233C26.1873 13.3639 25.4051 13.4572 25.4051 13.4572L22.7959 13.4752C22.5419 13.4759 22.3265 13.5546 22.2285 13.8186C22.2265 13.8213 21.8144 14.9295 21.265 15.8717C20.1041 17.8647 19.6407 17.9707 19.4486 17.846C19.0079 17.5573 19.1192 16.6878 19.1192 16.0697C19.1192 14.138 19.4073 13.3325 18.5551 13.1245C18.2704 13.0551 18.0624 13.0098 17.3362 13.0031C16.4081 12.9891 15.6199 13.0031 15.1732 13.2225C14.8764 13.3712 14.6491 13.6972 14.7871 13.7159C14.9605 13.7393 15.3492 13.8226 15.5572 14.1067C15.8246 14.4747 15.8166 15.2996 15.8166 15.2996C15.8166 15.2996 15.9693 17.574 15.4565 17.856C15.1045 18.0494 14.6231 17.6547 13.5875 15.845C13.0588 14.9195 12.6593 13.8966 12.6593 13.8966C12.6593 13.8966 12.582 13.7066 12.442 13.6026C12.2753 13.4792 12.0419 13.4399 12.0419 13.4399L9.56542 13.4559C9.56542 13.4559 9.19335 13.4665 9.05666 13.6306C8.9353 13.7759 9.04666 14.076 9.04666 14.076C9.04666 14.076 10.9864 18.6642 13.1828 20.9753C15.1965 23.097 17.4849 22.9563 17.4849 22.9563H18.5218C18.5218 22.9563 18.8345 22.9203 18.9946 22.7483C19.1439 22.5883 19.1372 22.2876 19.1372 22.2876C19.1372 22.2876 19.1166 20.8813 19.7607 20.6746Z" fill="white"/>
</svg>
