<svg xmlns="http://www.w3.org/2000/svg" xmlns:xlink="http://www.w3.org/1999/xlink"><defs>
<filter id="filter0_i_850_8535" x="0" y="0" width="224.681" height="56" filterUnits="userSpaceOnUse" color-interpolation-filters="sRGB">
<feFlood flood-opacity="0" result="BackgroundImageFix"/>
<feBlend mode="normal" in="SourceGraphic" in2="BackgroundImageFix" result="shape"/>
<feColorMatrix in="SourceAlpha" type="matrix" values="0 0 0 0 0 0 0 0 0 0 0 0 0 0 0 0 0 0 127 0" result="hardAlpha"/>
<feOffset dy="-5"/>
<feComposite in2="hardAlpha" operator="arithmetic" k2="-1" k3="1"/>
<feColorMatrix type="matrix" values="0 0 0 0 0 0 0 0 0 0 0 0 0 0 0 0 0 0 0.24 0"/>
<feBlend mode="normal" in2="shape" result="effect1_innerShadow_850_8535"/>
</filter>
<filter id="filter1_i_850_8535" x="0" y="0" width="224.681" height="56" filterUnits="userSpaceOnUse" color-interpolation-filters="sRGB">
<feFlood flood-opacity="0" result="BackgroundImageFix"/>
<feBlend mode="normal" in="SourceGraphic" in2="BackgroundImageFix" result="shape"/>
<feColorMatrix in="SourceAlpha" type="matrix" values="0 0 0 0 0 0 0 0 0 0 0 0 0 0 0 0 0 0 127 0" result="hardAlpha"/>
<feOffset dy="-5"/>
<feComposite in2="hardAlpha" operator="arithmetic" k2="-1" k3="1"/>
<feColorMatrix type="matrix" values="0 0 0 0 0 0 0 0 0 0 0 0 0 0 0 0 0 0 0.24 0"/>
<feBlend mode="normal" in2="shape" result="effect1_innerShadow_850_8535"/>
</filter>
</defs><symbol id="icon-arrow" viewBox="0 0 20 20">
<path fill-rule="evenodd" clip-rule="evenodd" d="M7.3401 9.80273L14.2857 16.7483L12.9388 18.0952L4.64636 9.80273L12.9388 1.51025L14.2857 2.85712L7.3401 9.80273Z" fill="white"/>
</symbol><symbol id="icon-bookmark" viewBox="0 0 18 20">
<path fill-rule="evenodd" clip-rule="evenodd" d="M2 20L9 16.6049L16 20V1.94005C16 0.86859 15.1046 0 14 0H4C2.89543 0 2 0.86859 2 1.94005V20ZM9 14.4359L4 16.8609V1.94005H14V16.8609L9 14.4359Z"/>
</symbol><symbol id="icon-cart-green" viewBox="0 0 40 41">
<rect y="0.903931" width="40" height="40" rx="2" fill="#63A63E"/>
<path fill-rule="evenodd" clip-rule="evenodd" d="M14.651 12.7062C14.4918 12.7059 14.3382 12.724 14.1923 12.7584C13.9923 12.316 13.7282 11.9191 13.4277 11.6175C12.9177 11.1057 12.1134 10.9039 11 10.9039V12.7039C11.6802 12.7039 12.0716 12.8021 12.1594 12.8903C12.4984 13.2305 12.7936 13.9217 12.7936 14.5039L12.8026 14.6312L13.6813 20.8044C12.211 20.8809 11.0719 22.0269 11.0011 23.4593L11 24.4039C11.0868 25.8835 12.2221 27.0216 13.6395 27.1025L13.843 27.1028C14.2121 28.1521 15.2089 28.9039 16.3807 28.9039C17.5521 28.9039 18.5487 28.1526 18.918 27.1039H21.0177C21.3871 28.1526 22.3836 28.9039 23.555 28.9039C25.0408 28.9039 26.2454 27.6951 26.2454 26.2039C26.2454 24.7128 25.0408 23.5039 23.555 23.5039C22.3836 23.5039 21.3871 24.2553 21.0177 25.3039H18.918C18.5487 24.2553 17.5521 23.5039 16.3807 23.5039C15.2093 23.5039 14.2128 24.2553 13.8434 25.3039H13.6904C13.233 25.2764 12.8227 24.8651 12.792 24.35L12.7936 23.5039C12.8178 23.0371 13.2252 22.6282 13.7348 22.6028L15.5052 22.6033L15.518 22.6039H24.5566L24.6889 22.5618C25.3689 22.3452 25.9132 21.8314 26.1709 21.1662L26.2654 20.9785L26.5724 20.3682C26.8899 19.7365 27.2075 19.1036 27.517 18.4854C28.275 16.9709 28.7517 16.0084 28.8573 15.7721C29.3994 14.5583 28.3012 13.6241 27.1786 13.6043L14.651 12.7062ZM24.245 20.8039H15.5851C15.5276 20.7879 15.4837 20.7389 15.4751 20.6779L14.5963 14.5046L27.0465 15.3994C26.8287 15.8452 26.4327 16.6416 25.9142 17.6774L25.9012 17.7034C25.6053 18.2946 25.2882 18.9266 24.971 19.5575L24.6645 20.167L24.5482 20.3979L24.5045 20.4999C24.4577 20.6309 24.3646 20.7385 24.245 20.8039ZM23.555 27.1039C24.0503 27.1039 24.4518 26.701 24.4518 26.2039C24.4518 25.7069 24.0503 25.3039 23.555 25.3039C23.0597 25.3039 22.6582 25.7069 22.6582 26.2039C22.6582 26.701 23.0597 27.1039 23.555 27.1039ZM17.2775 26.2039C17.2775 26.701 16.876 27.1039 16.3807 27.1039C15.8854 27.1039 15.4839 26.701 15.4839 26.2039C15.4839 25.7069 15.8854 25.3039 16.3807 25.3039C16.876 25.3039 17.2775 25.7069 17.2775 26.2039Z" fill="white"/>
</symbol><symbol id="icon-cart" viewBox="0 0 20 20">
<path fill-rule="evenodd" clip-rule="evenodd" d="M4.05671 2.00254C3.87974 2.00216 3.70915 2.02226 3.54704 2.06048C3.32482 1.56893 3.03129 1.12794 2.69744 0.792893C2.1308 0.224221 1.23712 0 0 0V2C0.755739 2 1.19063 2.10911 1.28828 2.20711C1.6649 2.58508 1.99286 3.35306 1.99286 4L2.00287 4.14142L2.97924 11.0005C1.34553 11.0856 0.0799112 12.3588 0.00122419 13.9504L0 15C0.0964754 16.6439 1.35789 17.9085 2.93273 17.9984L3.15894 17.9987C3.56894 19.1646 4.67655 20 5.97857 20C7.28012 20 8.38739 19.1652 8.79776 18H11.1308C11.5412 19.1652 12.6484 20 13.95 20C15.6009 20 16.9393 18.6569 16.9393 17C16.9393 15.3431 15.6009 14 13.95 14C12.6484 14 11.5412 14.8348 11.1308 16H8.79776C8.38739 14.8348 7.28012 14 5.97857 14C4.67702 14 3.56975 14.8348 3.15938 16H2.98929C2.48112 15.9694 2.02528 15.5124 1.99107 14.9401L1.99286 14C2.01973 13.4813 2.47245 13.027 3.03866 12.9988L5.00575 12.9993L5.02001 13H15.0629L15.2099 12.9532C15.9654 12.7126 16.5703 12.1416 16.8566 11.4025L16.9616 11.194L17.3026 10.5159C17.6555 9.81392 18.0083 9.11076 18.3522 8.4238C19.1944 6.74107 19.7241 5.67166 19.8414 5.40906C20.4438 4.06045 19.2235 3.02246 17.9763 3.00036L4.05671 2.00254ZM14.7167 11H5.09461C5.03063 10.9822 4.98187 10.9278 4.97233 10.86L3.99593 4.00073L17.8295 4.99493C17.5874 5.49032 17.1474 6.37516 16.5714 7.52609L16.5569 7.55493C16.2281 8.21186 15.8757 8.91405 15.5234 9.61507L15.1827 10.2923L15.0536 10.5488L15.005 10.6622C14.9529 10.8078 14.8496 10.9274 14.7167 11ZM13.95 18C14.5003 18 14.9464 17.5523 14.9464 17C14.9464 16.4477 14.5003 16 13.95 16C13.3997 16 12.9536 16.4477 12.9536 17C12.9536 17.5523 13.3997 18 13.95 18ZM6.975 17C6.975 17.5523 6.52888 18 5.97857 18C5.42826 18 4.98214 17.5523 4.98214 17C4.98214 16.4477 5.42826 16 5.97857 16C6.52888 16 6.975 16.4477 6.975 17Z"/>
</symbol><symbol id="icon-checkbox" viewBox="0 0 10 8">
<path fill-rule="evenodd" clip-rule="evenodd" d="M3.70711 4.58574L8 0.292847L9.41421 1.70706L3.70711 7.41417L0 3.70706L1.41421 2.29285L3.70711 4.58574Z" fill="#3D546F"/>
</symbol><symbol id="icon-close" viewBox="0 0 20 20"><path d="M.293 18.291a1 1 0 101.414 1.414L10 11.413l8.292 8.292a1 1 0 101.414-1.414l-8.292-8.292 8.292-8.292A1 1 0 1018.291.293L9.999 8.585 1.707.293A1 1 0 10.293 1.707L8.585 10 .293 18.291z"/></symbol><symbol id="icon-credit" viewBox="0 0 80 80">
<path d="M61.2401 10.3517V11.1096L43.0312 5.35958C41.958 5.01934 40.8231 4.91889 39.7068 5.06533C38.5904 5.21177 37.5198 5.60153 36.5707 6.20708L29.035 11.0026C28.1099 11.5883 27.3211 12.3655 26.7216 13.2817C26.1221 14.198 25.7259 15.232 25.5596 16.3142H8.77008C8.45381 16.3142 8.15049 16.4399 7.92685 16.6635C7.70322 16.8871 7.57758 17.1904 7.57758 17.5067V43.7417C7.57758 44.058 7.70322 44.3613 7.92685 44.5849C8.15049 44.8086 8.45381 44.9342 8.77008 44.9342H58.8551C59.1713 44.9342 59.4746 44.8086 59.6983 44.5849C59.9219 44.3613 60.0476 44.058 60.0476 43.7417V31.006C60.208 30.8852 60.3656 30.7588 60.5185 30.6242H61.2401V33.0092C61.2401 33.3255 61.3657 33.6288 61.5893 33.8524C61.813 34.0761 62.1163 34.2017 62.4326 34.2017H75.5501V31.8167H63.6251V11.5442H75.5501V9.15922H62.4326C62.1163 9.15922 61.813 9.28486 61.5893 9.5085C61.3657 9.73213 61.2401 10.0354 61.2401 10.3517ZM42.4489 36.5867C42.9227 36.5865 43.395 36.5328 43.8567 36.4267C42.2809 38.1101 41.2913 40.2576 41.0354 42.5492H35.0051V18.6992H35.908C36.6728 18.6992 37.4204 18.926 38.0563 19.3509C38.6922 19.7758 39.1878 20.3798 39.4805 21.0863C39.7731 21.7929 39.8497 22.5704 39.7005 23.3205C39.5512 24.0706 39.1829 24.7596 38.6421 25.3003L38.0282 25.914C37.1539 26.7884 36.5584 27.9024 36.3171 29.1151C36.0759 30.3279 36.1997 31.5849 36.6729 32.7273C37.1461 33.8697 37.9474 34.8462 38.9755 35.5331C40.0037 36.2201 41.2124 36.5867 42.4489 36.5867ZM50.5076 33.0771C49.6264 33.1747 48.761 33.382 47.9312 33.6941L50.5076 31.1178V33.0771ZM50.5076 35.4808V42.5492H43.4391C43.6993 40.767 44.5277 39.1165 45.8013 37.8429C47.0748 36.5694 48.7254 35.7409 50.5076 35.4808ZM32.6201 42.5492H27.8501V18.6992H32.6201V42.5492ZM25.4651 42.5492H19.4347C19.1608 40.1314 18.0748 37.8781 16.3543 36.1575C14.6337 34.4369 12.3804 33.351 9.96257 33.0771V28.1714C12.3804 27.8975 14.6337 26.8115 16.3543 25.0909C18.0748 23.3704 19.1608 21.117 19.4347 18.6992H25.4651V42.5492ZM17.031 18.6992C16.7709 20.4814 15.9424 22.132 14.6689 23.4055C13.3953 24.6791 11.7447 25.5075 9.96257 25.7677V18.6992H17.031ZM9.96257 35.4808C11.7447 35.7409 13.3953 36.5694 14.6689 37.8429C15.9424 39.1165 16.7709 40.767 17.031 42.5492H9.96257V35.4808ZM57.6626 42.5492H52.8926V32.2307C54.4455 32.7162 56.1096 32.7162 57.6626 32.2306V42.5492ZM60.0473 28.2394C59.7311 28.2394 59.4278 28.365 59.2042 28.5886C58.1619 29.6285 56.7496 30.2124 55.2773 30.2124C53.805 30.2124 52.3928 29.6283 51.3505 28.5884C51.1268 28.3649 50.8235 28.2393 50.5073 28.2393C50.191 28.2393 49.8878 28.3649 49.6641 28.5884L45.1831 33.0692C44.8241 33.4287 44.3978 33.7139 43.9286 33.9086C43.4593 34.1033 42.9563 34.2035 42.4482 34.2037C41.9402 34.2039 41.4371 34.104 40.9677 33.9096C40.4983 33.7153 40.0718 33.4304 39.7126 33.0711C39.3533 32.7119 39.0684 32.2854 38.8741 31.816C38.6798 31.3466 38.5798 30.8435 38.58 30.3354C38.5802 29.8274 38.6805 29.3244 38.8752 28.8551C39.0699 28.3859 39.3551 27.9596 39.7146 27.6006L40.3285 26.9869H40.3285C41.2029 26.1126 41.7984 24.9986 42.0396 23.7859C42.2809 22.5731 42.1571 21.3161 41.6839 20.1737C41.2108 19.0313 40.4095 18.0549 39.3814 17.3679C38.3533 16.6809 37.1445 16.3142 35.908 16.3142H27.9829C28.2939 14.9494 29.1325 13.7631 30.3154 13.0146L37.8511 8.21914C38.5066 7.80094 39.246 7.53178 40.017 7.43067C40.788 7.32955 41.5718 7.39895 42.313 7.63395L61.2401 13.6107V28.2394H60.0473Z"/>
<path d="M11.155 74.7467V73.5542H14.7325C15.0488 73.5542 15.3521 73.4285 15.5757 73.2049C15.7994 72.9813 15.925 72.6779 15.925 72.3617V71.1014L16.0377 71.182C20.9573 74.6959 26.9639 76.3508 32.989 75.8522C39.0141 75.3535 44.6669 72.7337 48.9419 68.4588L57.9095 59.4912C58.8633 58.5376 59.4263 57.2621 59.4882 55.9148C59.5501 54.5675 59.1063 53.2457 58.2439 52.2087C57.3815 51.1717 56.1627 50.4944 54.8267 50.3096C53.4907 50.1248 52.1339 50.4459 51.0224 51.2099C50.701 50.5165 50.2103 49.915 49.5954 49.461C48.9806 49.007 48.2613 48.7151 47.504 48.6121C46.7466 48.5091 45.9755 48.5984 45.2617 48.8717C44.548 49.145 43.9144 49.5936 43.4196 50.1761C42.7967 49.803 42.0951 49.581 41.371 49.5278C40.6469 49.4746 39.9203 49.5918 39.2496 49.8699C38.5789 50.148 37.9827 50.5793 37.5087 51.1293C37.0347 51.6793 36.6961 52.3327 36.52 53.0371L35.2664 58.0517H28.344L27.5007 57.2084C26.0083 55.7165 24.0671 54.7561 21.9756 54.4751C19.8842 54.194 17.7583 54.6078 15.925 55.6529V54.4742C15.925 54.1579 15.7994 53.8546 15.5757 53.631C15.3521 53.4073 15.0488 53.2817 14.7325 53.2817H11.155C11.155 52.9654 11.0294 52.6621 10.8057 52.4385C10.5821 52.2148 10.2788 52.0892 9.9625 52.0892H4V54.4742H8.77V73.5542H4V75.9392H9.9625C10.2788 75.9392 10.5821 75.8135 10.8057 75.5899C11.0294 75.3663 11.155 75.0629 11.155 74.7467ZM46.3646 51.0201C46.6778 50.9418 47.0045 50.9344 47.3209 50.9983C47.6374 51.0623 47.9356 51.196 48.1938 51.3897C48.452 51.5835 48.6637 51.8324 48.8136 52.1184C48.9634 52.4044 49.0476 52.7201 49.0599 53.0427L40.7388 61.3638C40.6001 60.9326 40.4005 60.5234 40.146 60.1486L45.0296 52.0094C45.1757 51.7644 45.3689 51.5509 45.598 51.3811C45.8272 51.2113 46.0877 51.0886 46.3646 51.0201ZM38.8338 53.6156C38.9095 53.3128 39.047 53.029 39.2375 52.7818C39.4281 52.5347 39.6677 52.3296 39.9413 52.1794C40.2149 52.0293 40.5165 51.9372 40.8274 51.9092C41.1382 51.8811 41.4515 51.9175 41.7475 52.0162C41.8834 52.0618 42.0147 52.1201 42.1396 52.1903L38.3221 58.5528C38.1107 58.447 37.8916 58.3572 37.6667 58.2842L38.8338 53.6156ZM20.695 56.7743C21.6461 56.7717 22.5883 56.9578 23.4671 57.3218C24.3458 57.6858 25.1436 58.2205 25.8143 58.895L27.0068 60.0875C27.2304 60.3111 27.5337 60.4367 27.85 60.4367H36.1975C36.83 60.4367 37.4367 60.6879 37.8839 61.1352C38.3312 61.5825 38.5825 62.1891 38.5825 62.8217C38.5825 63.4542 38.3312 64.0609 37.8839 64.5081C37.4367 64.9554 36.83 65.2067 36.1975 65.2067H25.465V67.5917H36.1975C37.06 67.591 37.9062 67.3567 38.6462 66.9136C39.3862 66.4706 39.9923 65.8353 40.4002 65.0754L51.947 53.5287C52.5141 52.9622 53.283 52.6441 54.0846 52.6444C54.8862 52.6446 55.6549 52.9631 56.2217 53.5299C56.7885 54.0967 57.1071 54.8654 57.1073 55.667C57.1076 56.4686 56.7895 57.2375 56.223 57.8046L47.2555 66.7723C43.3797 70.648 38.2548 73.0232 32.7923 73.4753C27.3299 73.9274 21.8842 72.4271 17.424 69.2413L15.925 68.1705V58.57C17.2421 57.4087 18.939 56.7699 20.695 56.7743ZM13.54 55.6667V71.1692H11.155V55.6667H13.54Z"/>
</symbol><symbol id="icon-delivery" viewBox="0 0 80 80">
<path d="M64.0203 30.0097H59.1972L60.6504 13.3249C60.653 13.2947 60.6535 13.2649 60.6536 13.2351C60.6536 13.2326 60.6539 13.2302 60.6539 13.2276C60.6539 13.2272 60.6539 13.2269 60.6539 13.2265C60.6539 12.7723 60.38 12.3721 59.9773 12.1981C59.9739 12.1966 59.9706 12.1948 59.9672 12.1933C59.9422 12.1828 59.9163 12.1738 59.8902 12.1651C59.8805 12.162 59.8712 12.1581 59.8615 12.1551C59.8403 12.1487 59.8184 12.1436 59.7967 12.1384C59.7815 12.1348 59.7668 12.1304 59.7514 12.1274C59.7324 12.1237 59.7126 12.1213 59.6932 12.1185C59.6749 12.1158 59.657 12.1126 59.6386 12.111C59.6354 12.1107 59.6326 12.1101 59.6294 12.1098C59.6097 12.108 59.5902 12.1083 59.5706 12.1075C59.5575 12.1071 59.5446 12.1056 59.5314 12.1056H59.5174C59.5162 12.1056 59.515 12.1056 59.5139 12.1056H36.5654C35.946 12.1056 35.4432 12.6083 35.4432 13.2278C35.4432 13.8458 35.946 14.35 36.5654 14.35H58.3082L56.0749 39.9924C56.0746 39.9943 56.0746 39.9963 56.0743 39.9982L55.5108 46.4683H16.5166L17.1688 39.7353H24.5934C25.2133 39.7353 25.7156 39.2329 25.7156 38.6131C25.7156 37.9934 25.2133 37.4909 24.5934 37.4909H17.3863L18.7635 23.2771H30.5803C31.2002 23.2771 31.7025 22.7746 31.7025 22.1549C31.7025 21.5351 31.2002 21.0327 30.5803 21.0327H18.9811L19.6287 14.35H32.0766C32.6946 14.35 33.1988 13.8458 33.1988 13.2278C33.1988 12.6083 32.6946 12.1056 32.0766 12.1056H18.6101C18.6095 12.1056 18.6091 12.1057 18.6085 12.1057C18.0814 12.1056 17.6241 12.4767 17.5135 12.9911C17.5128 12.9948 17.5114 12.9984 17.5107 13.0022C17.505 13.0301 17.5012 13.0587 17.4975 13.0874C17.4965 13.0966 17.4945 13.1053 17.4936 13.1144C17.4935 13.1162 17.493 13.1178 17.4929 13.1196L16.7262 21.0327H3.12221C2.5023 21.0327 2 21.5351 2 22.1549C2 22.7746 2.5023 23.2771 3.12221 23.2771H16.5086L15.1315 37.4909H11.1276C10.5077 37.4909 10.0054 37.9934 10.0054 38.6131C10.0054 39.2329 10.5077 39.7353 11.1276 39.7353H14.914L14.1641 47.4742C14.164 47.4754 14.164 47.4766 14.1638 47.4777L13.0043 59.4447C13.0042 59.4461 13.004 59.4475 13.0039 59.4487L13.0034 59.4531C13.002 59.4687 13.0021 59.4839 13.0012 59.4995C13.0002 59.5201 12.9981 59.5403 12.9981 59.5613C12.9981 59.5622 12.9982 59.5631 12.9982 59.5641C12.9982 59.593 13.0003 59.6214 13.0024 59.6498C13.0033 59.659 13.003 59.6683 13.004 59.6772C13.007 59.7063 13.012 59.7348 13.0172 59.7633C13.0187 59.7716 13.0195 59.7802 13.0211 59.7884C13.0254 59.8099 13.0316 59.8307 13.0373 59.8518C13.0412 59.8667 13.0443 59.8818 13.0488 59.8963C13.0501 59.9003 13.0519 59.9042 13.0531 59.9084C13.1074 60.0754 13.1996 60.2253 13.3199 60.3477C13.3222 60.35 13.324 60.3525 13.3262 60.3546C13.3382 60.3666 13.3512 60.3773 13.3638 60.3887C13.4411 60.4596 13.5285 60.5198 13.6241 60.5669C13.644 60.5768 13.6636 60.5871 13.684 60.5956C13.6901 60.5983 13.6967 60.6001 13.703 60.6025C13.7311 60.6137 13.7594 60.6245 13.7885 60.6336C13.7912 60.6344 13.7938 60.6348 13.7965 60.6357C13.8297 60.6456 13.8632 60.6543 13.8975 60.6613C13.902 60.6622 13.9066 60.6625 13.9109 60.6634C13.9436 60.6696 13.9763 60.6748 14.0097 60.6781C14.0104 60.6781 14.011 60.6782 14.0118 60.6784C14.0486 60.682 14.0851 60.6838 14.1213 60.6838C14.1218 60.6838 14.1224 60.6836 14.123 60.6836H19.1187C19.6704 64.8662 23.2562 68.1056 27.5872 68.1056C31.9178 68.1056 35.5037 64.8662 36.0553 60.6836H54.0554C54.6072 64.8662 58.1929 68.1056 62.5237 68.1056C66.8544 68.1056 70.4405 64.8662 70.9923 60.6836H75.9893C75.99 60.6836 75.9909 60.6838 75.9917 60.6838C76.0291 60.6838 76.0659 60.6815 76.1024 60.6779C76.109 60.6773 76.1152 60.676 76.1218 60.6752C76.151 60.6718 76.18 60.6678 76.2085 60.6621C76.2207 60.6597 76.2325 60.6564 76.2447 60.6535C76.2667 60.6485 76.2888 60.6431 76.3104 60.6366C76.325 60.6323 76.3392 60.6272 76.3536 60.6223C76.372 60.616 76.3904 60.6094 76.4085 60.6021C76.4241 60.5959 76.4389 60.5892 76.454 60.5825C76.4705 60.5748 76.4869 60.5671 76.5029 60.5588C76.5182 60.5511 76.5329 60.543 76.5475 60.5346C76.5629 60.5256 76.5782 60.5163 76.5933 60.5068C76.6074 60.4978 76.6214 60.4887 76.6349 60.4791C76.6502 60.4685 76.6647 60.4572 76.6795 60.4459C76.6918 60.4361 76.7042 60.4266 76.7161 60.4164C76.7316 60.4034 76.7461 60.3898 76.7607 60.3758C76.7709 60.3661 76.7815 60.3565 76.7914 60.3464C76.807 60.3305 76.8218 60.3137 76.8366 60.2968C76.8445 60.2877 76.8528 60.2789 76.8604 60.2696C76.8768 60.2493 76.8918 60.2283 76.9068 60.2072C76.9119 60.1999 76.9175 60.193 76.9225 60.1855C76.9407 60.1581 76.9579 60.13 76.9738 60.101C76.975 60.0992 76.9762 60.0975 76.9769 60.0956C76.9939 60.0645 77.0094 60.0326 77.0233 59.9997C77.0272 59.9902 77.0302 59.9805 77.034 59.9711C77.0431 59.9479 77.0521 59.9247 77.0597 59.9006C77.0646 59.8851 77.0682 59.869 77.0726 59.8533C77.0775 59.8346 77.0827 59.8161 77.0869 59.7971C77.0907 59.7802 77.0931 59.7628 77.0959 59.7456C77.0984 59.7305 77.1017 59.7157 77.1037 59.7003C77.1513 59.319 78.03 52.2687 78.4225 47.7099C78.4229 47.7055 78.4231 47.701 78.4235 47.6967C78.5365 46.3825 78.6089 45.2759 78.6089 44.5984C78.6089 36.5543 72.0645 30.0097 64.0203 30.0097ZM59.0016 32.2544H63.5926L63.0062 38.9871H58.4152L59.0016 32.2544ZM27.5875 65.861C24.1136 65.861 21.2874 63.0349 21.2874 59.5611C21.2874 56.0874 24.1137 53.2612 27.5875 53.2612C31.0612 53.2612 33.8874 56.0874 33.8874 59.5611C33.8874 63.0349 31.0612 65.861 27.5875 65.861ZM62.5237 65.861C59.0499 65.861 56.2239 63.0349 56.2239 59.5611C56.2239 56.0874 59.0501 53.2612 62.5237 53.2612C65.9976 53.2612 68.8237 56.0874 68.8237 59.5611C68.8237 63.0349 65.9976 65.861 62.5237 65.861ZM74.9977 58.4385H70.9926C70.4411 54.2556 66.8551 51.016 62.524 51.016C58.1932 51.016 54.6072 54.2558 54.0557 58.4385H36.0558C35.5043 54.2556 31.9184 51.016 27.5875 51.016C23.2565 51.016 19.6704 54.2558 19.1189 58.4385H15.3566L16.2991 48.7121H56.5392V48.7127C56.5398 48.7127 56.5402 48.7127 56.5408 48.7127C56.5784 48.7127 56.6156 48.7106 56.6525 48.7068C56.6593 48.7062 56.6661 48.7048 56.673 48.7039C56.7023 48.7004 56.7315 48.6962 56.7602 48.6905C56.7726 48.688 56.7847 48.6846 56.797 48.6816C56.8194 48.6762 56.8419 48.6709 56.8637 48.6644C56.8787 48.6599 56.8929 48.6545 56.9074 48.6494C56.9263 48.6428 56.9451 48.6364 56.9634 48.6289C56.9791 48.6225 56.9942 48.6153 57.0095 48.6081C57.0261 48.6005 57.0427 48.5928 57.0587 48.5845C57.074 48.5764 57.0889 48.5677 57.104 48.559C57.1194 48.55 57.1347 48.5409 57.1497 48.5313C57.1642 48.5219 57.1779 48.512 57.1919 48.5022C57.2067 48.4917 57.221 48.4809 57.2354 48.4697C57.2483 48.4594 57.261 48.4487 57.2736 48.4378C57.2878 48.4255 57.3017 48.413 57.3152 48.4C57.3265 48.389 57.3379 48.3778 57.349 48.3663C57.3624 48.3522 57.3755 48.3377 57.3883 48.3229C57.3983 48.3112 57.4082 48.2996 57.4178 48.2876C57.4302 48.2719 57.442 48.2557 57.4537 48.2394C57.4625 48.2271 57.4711 48.2149 57.4794 48.2023C57.4904 48.1854 57.5008 48.168 57.5109 48.1504C57.5185 48.1372 57.5263 48.124 57.5332 48.1106C57.5426 48.0929 57.5507 48.075 57.5592 48.0569C57.5658 48.0424 57.5725 48.0281 57.5785 48.0132C57.5858 47.9955 57.592 47.9774 57.5984 47.9593C57.6039 47.9433 57.6098 47.9273 57.6147 47.9108C57.6196 47.8935 57.6237 47.8757 57.6282 47.858C57.6325 47.8402 57.6373 47.8225 57.6407 47.8044C57.6442 47.7868 57.6463 47.7688 57.649 47.7509C57.6517 47.7323 57.6548 47.7141 57.6566 47.6952C57.6569 47.6925 57.6575 47.69 57.6577 47.6873L58.2201 41.2309H64.02C67.4583 41.2309 69.009 43.0123 70.6506 44.8985C72.0051 46.4548 73.5174 48.1912 76.088 48.6148C75.7615 52.0667 75.2338 56.4981 74.9977 58.4385ZM76.2798 46.3659C74.6122 46.026 73.5862 44.8536 72.3433 43.4256C70.7888 41.6398 68.8911 39.4605 65.2532 39.0544L65.8337 32.3888C71.7835 33.2687 76.3645 38.4081 76.3645 44.5987C76.3645 45.0193 76.3331 45.6304 76.2798 46.3659Z"/>
<path d="M27.5875 55.4462C25.3187 55.4462 23.4727 57.292 23.4727 59.5609C23.4727 61.8299 25.3187 63.6757 27.5875 63.6757C29.8563 63.6757 31.7023 61.8299 31.7023 59.5609C31.7023 57.2921 29.8563 55.4462 27.5875 55.4462ZM27.5875 61.4313C26.5561 61.4313 25.7172 60.5923 25.7172 59.5609C25.7172 58.5295 26.5561 57.6906 27.5875 57.6906C28.6189 57.6906 29.4578 58.5295 29.4578 59.5609C29.4578 60.5923 28.6187 61.4313 27.5875 61.4313Z"/>
<path d="M62.5237 55.4462C60.2549 55.4462 58.4089 57.292 58.4089 59.5609C58.4089 61.8299 60.2549 63.6757 62.5237 63.6757C64.7925 63.6757 66.6384 61.8299 66.6384 59.5609C66.6384 57.2921 64.7925 55.4462 62.5237 55.4462ZM62.5237 61.4313C61.4923 61.4313 60.6533 60.5923 60.6533 59.5609C60.6533 58.5295 61.4923 57.6906 62.5237 57.6906C63.555 57.6906 64.394 58.5295 64.394 59.5609C64.394 60.5923 63.555 61.4313 62.5237 61.4313Z"/>
<path d="M12.6235 30.01H7.13725C6.51734 30.01 6.01505 30.5125 6.01505 31.1322C6.01505 31.752 6.51734 32.2544 7.13725 32.2544H12.6235C13.2434 32.2544 13.7457 31.752 13.7457 31.1322C13.7457 30.5125 13.2434 30.01 12.6235 30.01Z"/>
</symbol><symbol id="icon-equipment" viewBox="0 0 80 80">
<path d="M74.8565 15.5426H69.814V14.2819C69.814 12.1932 68.1208 10.5 66.032 10.5H58.4682V10.529C57.3297 10.52 56.2226 10.9018 55.3317 11.6106L40.291 23.7367C39.6212 22.5713 38.3815 21.8509 37.0373 21.8458H16.8671C14.7784 21.8458 13.0851 23.539 13.0851 25.6277V34.4522H6.78192C4.69322 34.4522 3 36.1454 3 38.2341V55.8831C3.00673 57.4844 4.0212 58.9079 5.53263 59.4368C5.53263 59.5125 5.52128 59.5881 5.52128 59.665C5.52128 64.5386 9.47214 68.4895 14.3458 68.4895C19.2194 68.4895 23.1703 64.5386 23.1703 59.665H30.7341C30.7286 64.3761 34.4247 68.2607 39.1302 68.4894C43.8357 68.7181 47.8911 65.2102 48.3425 60.5208C48.7938 55.8314 45.482 51.6144 40.8192 50.9414V40.8562L58.5602 22.6564C58.9406 24.3899 60.4753 25.6257 62.2501 25.6277H64.7714V33.1915C64.7714 34.584 65.9002 35.7128 67.2927 35.7128V45.8711C63.6734 46.2606 60.9895 48.3003 60.9895 50.8405C60.9895 53.3807 63.6734 55.4204 67.2927 55.81V65.9682C67.2927 66.6644 67.8571 67.2288 68.5533 67.2288C69.2496 67.2288 69.814 66.6644 69.814 65.9682V63.3738C73.4333 62.9843 76.1172 60.9445 76.1172 58.4044C76.1172 55.8642 73.4333 53.8244 69.814 53.4349V48.2461C73.4333 47.8566 76.1172 45.8169 76.1172 43.2767C76.1172 40.7365 73.4333 38.6968 69.814 38.3072V35.7128C71.2064 35.7128 72.3353 34.584 72.3353 33.1915V25.6277H74.8565C76.9452 25.6277 78.6385 23.9345 78.6385 21.8458V19.3245C78.6385 17.2358 76.9452 15.5426 74.8565 15.5426ZM63.5108 50.8405C63.5108 49.832 65.0664 48.7315 67.2927 48.4163V53.2647C65.0664 52.9496 63.5108 51.849 63.5108 50.8405ZM73.5959 58.4044C73.5959 59.4129 72.0403 60.5134 69.814 60.8286V55.9801C72.0403 56.2953 73.5959 57.3958 73.5959 58.4044ZM73.5959 43.2767C73.5959 44.2852 72.0403 45.3857 69.814 45.7009V40.8525C72.0403 41.1676 73.5959 42.2682 73.5959 43.2767ZM67.2927 14.2819V15.5426H63.4931C63.4986 14.6583 63.2699 13.7884 62.83 13.0213H66.032C66.7283 13.0213 67.2927 13.5857 67.2927 14.2819ZM38.2979 25.6277V43.2767H23.1703C22.474 43.2767 21.9096 42.7123 21.9096 42.016V24.3671H37.0373C37.7335 24.3671 38.2979 24.9315 38.2979 25.6277ZM5.52128 55.8831V38.2341C5.52128 37.5379 6.08569 36.9735 6.78192 36.9735H13.0851V50.9414C9.80045 51.4205 7.06117 53.6996 5.99276 56.8424C5.69852 56.6105 5.52517 56.2577 5.52128 55.8831ZM14.3458 65.9682C10.8646 65.9682 8.04256 63.1462 8.04256 59.665C8.04256 56.1838 10.8646 53.3618 14.3458 53.3618C17.8269 53.3618 20.649 56.1838 20.649 59.665C20.6448 63.1444 17.8252 65.964 14.3458 65.9682ZM22.7984 57.1437C21.8095 53.8547 19.0051 51.4361 15.6064 50.9414V25.6277C15.6064 24.9315 16.1708 24.3671 16.8671 24.3671H19.3883V42.016C19.3883 44.1047 21.0816 45.7979 23.1703 45.7979H38.2979V50.9414C34.9017 51.4384 32.1002 53.8565 31.1123 57.1437H22.7984ZM45.8618 59.665C45.8618 63.1462 43.0398 65.9682 39.5586 65.9682C36.0774 65.9682 33.2554 63.1462 33.2554 59.665C33.2554 56.1838 36.0774 53.3618 39.5586 53.3618C43.038 53.366 45.8576 56.1856 45.8618 59.665ZM40.8192 26.5467L56.9138 13.5747C57.4336 13.1581 58.0977 12.9652 58.7597 13.0385C59.4218 13.1118 60.0276 13.4453 60.4436 13.9655C60.8566 14.4754 61.0462 15.1304 60.9693 15.7821C59.551 16.2982 58.5773 17.6107 58.4947 19.1177L40.8192 37.2407V26.5467ZM69.814 33.1915H67.2927V25.6277H69.814V33.1915ZM76.1172 21.8458C76.1172 22.542 75.5528 23.1064 74.8565 23.1064H62.2501C61.5539 23.1064 60.9895 22.542 60.9895 21.8458V19.3245C60.9895 18.6283 61.5539 18.0638 62.2501 18.0638H74.8565C75.5528 18.0638 76.1172 18.6283 76.1172 19.3245V21.8458Z"/>
<path d="M25.6916 30.6702C26.0259 30.6702 26.3465 30.5373 26.5828 30.3009L27.8435 29.0402C28.3212 28.5456 28.3144 27.7593 27.8281 27.273C27.3418 26.7868 26.5556 26.7799 26.0609 27.2577L24.8003 28.5183C24.4399 28.8789 24.3321 29.421 24.5271 29.892C24.7222 30.363 25.1818 30.6701 25.6916 30.6702Z"/>
<path d="M25.6916 36.9735C26.0259 36.9734 26.3465 36.8405 26.5828 36.6041L34.1467 29.0402C34.6244 28.5456 34.6176 27.7593 34.1313 27.273C33.645 26.7868 32.8588 26.7799 32.3641 27.2577L24.8003 34.8215C24.4399 35.1821 24.3321 35.7242 24.5271 36.1952C24.7222 36.6662 25.1818 36.9733 25.6916 36.9735Z"/>
<path d="M14.3457 55.8831C12.257 55.8831 10.5638 57.5763 10.5638 59.665C10.5638 61.7537 12.257 63.4469 14.3457 63.4469C16.4344 63.4469 18.1276 61.7537 18.1276 59.665C18.1276 57.5763 16.4344 55.8831 14.3457 55.8831ZM14.3457 60.9256C13.6495 60.9256 13.085 60.3612 13.085 59.665C13.085 58.9687 13.6495 58.4043 14.3457 58.4043C15.0419 58.4043 15.6063 58.9687 15.6063 59.665C15.6063 60.3612 15.0419 60.9256 14.3457 60.9256Z"/>
<path d="M35.7767 59.665C35.7767 61.7537 37.4699 63.4469 39.5586 63.4469C41.6473 63.4469 43.3405 61.7537 43.3405 59.665C43.3405 57.5763 41.6473 55.8831 39.5586 55.8831C37.4699 55.8831 35.7767 57.5763 35.7767 59.665ZM40.8192 59.665C40.8192 60.3612 40.2548 60.9256 39.5586 60.9256C38.8623 60.9256 38.2979 60.3612 38.2979 59.665C38.2979 58.9687 38.8623 58.4043 39.5586 58.4043C40.2548 58.4043 40.8192 58.9687 40.8192 59.665Z"/>
<path d="M24.4308 48.3192H23.1702C22.4739 48.3192 21.9095 48.8836 21.9095 49.5799C21.9095 50.2761 22.4739 50.8405 23.1702 50.8405H24.4308C25.127 50.8405 25.6914 50.2761 25.6914 49.5799C25.6914 48.8836 25.127 48.3192 24.4308 48.3192Z"/>
</symbol><symbol id="icon-geo" viewBox="0 0 18 23">
<path fill-rule="evenodd" clip-rule="evenodd" d="M9 22.3276L9.65773 21.7533C15.1887 16.9237 18 12.7068 18 9C18 3.75066 13.9029 0 9 0C4.09705 0 0 3.75066 0 9C0 12.7068 2.81131 16.9237 8.34227 21.7533L9 22.3276ZM9 19.6634C4.30661 15.4335 2 11.8492 2 9C2 4.8966 5.16411 2 9 2C12.8359 2 16 4.8966 16 9C16 11.8492 13.6934 15.4335 9 19.6634ZM9 4C11.7614 4 14 6.23858 14 9C14 11.7614 11.7614 14 9 14C6.23858 14 4 11.7614 4 9C4 6.23858 6.23858 4 9 4ZM6 9C6 7.34315 7.34315 6 9 6C10.6569 6 12 7.34315 12 9C12 10.6569 10.6569 12 9 12C7.34315 12 6 10.6569 6 9Z" fill="black"/>
</symbol><symbol id="icon-home" viewBox="0 0 20 19">
<path fill-rule="evenodd" clip-rule="evenodd" d="M4.48914 7.34619L10 1.83533L15.5109 7.34619H15.5097V16.5289H4.49037V7.34619H4.48914ZM2.65382 9.1815L1.2977 10.5376L0 9.23992L8.70247 0.537456C9.41907 -0.179152 10.5809 -0.179152 11.2975 0.537456L20 9.23992L18.7023 10.5376L17.3462 9.18153V16.5289C17.3462 17.5432 16.524 18.3655 15.5097 18.3655H4.49037C3.47607 18.3655 2.65382 17.5432 2.65382 16.5289V9.1815Z" fill="black"/>
</symbol><symbol id="icon-instrument" viewBox="0 0 80 80">
<path d="M65.4486 8.06433H39.6567C38.1767 8.06433 36.9537 9.17378 36.7711 10.6031H33.0157C31.6347 10.6031 30.5112 11.7253 30.5112 13.1046V13.3112H26.5698C23.1561 13.3112 20.3162 15.8042 19.7778 19.0616H2.12202C1.50237 19.0616 1 19.5638 1 20.1836C1 20.8034 1.50237 21.3056 2.12202 21.3056H19.7778C20.3159 24.5653 23.156 27.0603 26.5698 27.0603H30.5112V27.2669C30.5112 28.6462 31.6347 29.7684 33.0157 29.7684H36.7711C36.9537 31.1977 38.1767 32.3071 39.6567 32.3071H41.3449C41.6204 34.1896 42.0539 37.2976 40.2442 40.1723C39.7756 40.9112 39.8989 41.4694 40.085 41.8075C40.2705 42.1448 40.6735 42.5468 41.5396 42.5468H46.2337L44.9165 55.8526H40.4666C36.2984 55.8526 32.9072 59.2354 32.9072 63.3935V69.0169C32.9072 70.0741 33.7682 70.9343 34.8265 70.9343H63.604C64.6623 70.9343 65.5232 70.0741 65.5232 69.0169V57.7701C65.5232 56.7128 64.6623 55.8526 63.604 55.8526H60.4939C60.5349 52.8852 60.7385 50.0536 61.1023 47.4219C61.1872 46.8079 60.7584 46.2415 60.1446 46.1567C59.5302 46.0722 58.9644 46.5008 58.8795 47.1145C58.5018 49.8467 58.2913 52.7817 58.25 55.8526H47.1715L48.5879 41.544C48.5882 41.5407 48.5885 41.5376 48.5888 41.5343L49.5023 32.307H63.4771C61.8904 35.1747 60.6855 38.3926 59.8149 42.0854C59.6726 42.6885 60.0463 43.2927 60.6495 43.435C60.7361 43.4555 60.8227 43.4652 60.908 43.4652C61.4167 43.4652 61.8773 43.1169 61.9991 42.6004C62.9363 38.6248 64.2745 35.2458 66.0817 32.2905C72.4871 31.9608 77.5968 26.6565 77.5968 20.1836C77.5965 13.501 72.1469 8.06433 65.4486 8.06433ZM26.5698 24.8161C24.0107 24.8161 21.9286 22.7378 21.9286 20.1835C21.9286 17.6314 24.0107 15.5551 26.5698 15.5551H30.5112V24.8159H26.5698V24.8161ZM32.7552 27.2666V25.9379V14.4331V13.1044C32.7552 12.9625 32.8721 12.847 33.0157 12.847H36.7451V27.5239H33.0157C32.8745 27.524 32.7552 27.4061 32.7552 27.2666ZM63.2791 68.6901H35.1511V63.3933C35.1511 60.4726 37.5356 58.0965 40.4665 58.0965H42.084V60.3935C42.084 62.5165 44.4075 64.5155 46.2084 64.5155H63.2789V68.6901H63.2791ZM63.2791 58.0965V62.2713H46.2085C45.648 62.2713 44.3282 61.2892 44.3282 60.3933V58.0963H45.9313C45.9324 58.0963 45.9332 58.0965 45.9343 58.0965C45.9353 58.0965 45.9364 58.0963 45.9374 58.0963H63.2791V58.0965ZM46.4557 40.3025H42.7322C44.2018 37.248 43.8803 34.1947 43.6122 32.3068H47.2471L46.4557 40.3025ZM65.4486 30.0628H60.8754V23.2216C60.8754 22.6018 60.373 22.0996 59.7534 22.0996C59.1337 22.0996 58.6314 22.6018 58.6314 23.2216V30.0628H48.4822C48.4817 30.0628 48.4813 30.0628 48.4807 30.0628H39.6567C39.2948 30.0628 38.9892 29.7589 38.9892 29.3991V28.646V11.7251V10.972C38.9892 10.6124 39.2948 10.3084 39.6567 10.3084H58.6314V18.0509C58.6314 18.6707 59.1337 19.1729 59.7534 19.1729C60.373 19.1729 60.8754 18.6707 60.8754 18.0509V10.3084H65.4486C70.9095 10.3084 75.3524 14.7382 75.3524 20.1835C75.3524 25.631 70.9095 30.0628 65.4486 30.0628Z"/>
<path d="M64.63 17.4535C64.0103 17.4535 63.508 17.9557 63.508 18.5755V21.7914C63.508 22.4112 64.0103 22.9134 64.63 22.9134C65.2496 22.9134 65.752 22.4112 65.752 21.7914V18.5755C65.752 17.9557 65.2496 17.4535 64.63 17.4535Z"/>
<path d="M69.5873 17.4535C68.9676 17.4535 68.4652 17.9557 68.4652 18.5755V21.7914C68.4652 22.4112 68.9676 22.9134 69.5873 22.9134C70.2069 22.9134 70.7093 22.4112 70.7093 21.7914V18.5755C70.7093 17.9557 70.2069 17.4535 69.5873 17.4535Z"/>
<path d="M50.7375 13.0868H45.6826C43.5487 13.0868 41.8125 14.8202 41.8125 16.9507C41.8125 19.0812 43.5485 20.8145 45.6826 20.8145H50.7375C52.8692 20.8145 54.6032 19.0812 54.6032 16.9507C54.6032 14.8202 52.869 13.0868 50.7375 13.0868ZM50.7375 18.5705H45.6826C44.786 18.5705 44.0566 17.8438 44.0566 16.9507C44.0566 16.0574 44.7859 15.3308 45.6826 15.3308H50.7375C51.6318 15.3308 52.3592 16.0574 52.3592 16.9507C52.3592 17.8438 51.6317 18.5705 50.7375 18.5705Z"/>
</symbol><symbol id="icon-login" viewBox="0 0 20 20">
<path fill-rule="evenodd" clip-rule="evenodd" d="M11.25 2.25H17.75V17.75H11.25V19.75H18.75H19.75V18.75V1.25V0.25H18.75H11.25V2.25ZM5.54289 4.45711L10.023 8.93718H0V10.9372H10.023L5.54289 15.4173L6.95711 16.8315L13.1443 10.6443L13.8514 9.93718L13.1443 9.23008L6.95711 3.04289L5.54289 4.45711Z" fill="black"/>
</symbol><symbol id="icon-new" viewBox="0 0 70 70">
<mask id="mask0_2356_612" style="mask-type:alpha" maskUnits="userSpaceOnUse" x="0" y="0" width="70" height="70">
<rect width="70" height="70" fill="#C4C4C4"/>
</mask>
<g mask="url(#mask0_2356_612)">
<rect x="22.2133" y="-23" width="100" height="30" transform="rotate(45 22.2133 -23)" fill="#EE3643"/>
<path d="M37.4721 13.3346L38.0166 11.7012L37.9671 11.6517L37.0365 12.899L33.4232 16.5123L32.1363 15.2254L39.1154 8.24627L40.1054 9.23622L39.0362 15.5521L38.5016 17.136L38.5511 17.1855L39.452 15.9679L43.095 12.3249L44.3819 13.6118L37.4028 20.5909L36.4128 19.601L37.4721 13.3346ZM46.9863 16.2162L51.0946 20.3245L49.8869 21.5322L47.1348 18.7802L45.5212 20.3938L48.0258 22.8984L46.818 24.1061L44.3135 21.6015L42.6207 23.2943L45.4222 26.0959L44.2145 27.3036L40.0567 23.1458L46.9863 16.2162ZM51.5037 28.4749L50.4048 29.8311L50.4444 29.8707L51.8303 28.762L56.889 26.1188L57.7799 27.0098L55.0972 32.0684L54.0082 33.4346L54.0478 33.4742L55.4437 32.3753L60.136 29.3659L61.512 30.7419L52.6223 35.8104L51.7115 34.8997L54.325 29.8113L55.216 28.5838L55.1665 28.5343L53.929 29.4352L48.8605 32.0486L47.9002 31.0884L52.9787 22.2085L54.4537 23.6836L51.5037 28.4749Z" fill="white"/>
</g>
</symbol><symbol id="icon-paints" viewBox="0 0 80 80">
<path d="M70.6 16.2H62.6667V13.9333C62.664 13.0324 62.3049 12.1692 61.6679 11.5321C61.0308 10.8951 60.1676 10.536 59.2667 10.5333H51.3333V7.13333C51.3333 6.83275 51.2139 6.54449 51.0014 6.33195C50.7888 6.1194 50.5006 6 50.2 6H7.13333C6.83275 6 6.54449 6.1194 6.33195 6.33195C6.1194 6.54449 6 6.83275 6 7.13333V70.6C6 70.9006 6.1194 71.1889 6.33195 71.4014C6.54449 71.6139 6.83275 71.7333 7.13333 71.7333H41.3373C41.5726 72.3938 42.0056 72.9657 42.5775 73.3713C43.1493 73.7769 43.8323 73.9964 44.5333 74H51.3333C52.2342 73.9973 53.0975 73.6382 53.7345 73.0012C54.3716 72.3642 54.7306 71.5009 54.7333 70.6V51.3333H55.8667C56.1672 51.3333 56.4555 51.2139 56.6681 51.0014C56.8806 50.7888 57 50.5006 57 50.2V45.6667C57 45.3661 56.8806 45.0778 56.6681 44.8653C56.4555 44.6527 56.1672 44.5333 55.8667 44.5333H51.3333V40H70.6C71.5009 39.9973 72.3642 39.6382 73.0012 39.0012C73.6382 38.3642 73.9973 37.5009 74 36.6V19.6C73.9973 18.6991 73.6382 17.8358 73.0012 17.1988C72.3642 16.5618 71.5009 16.2027 70.6 16.2ZM62.6667 25.2667V23H67.2V33.2H51.3333V28.6667H59.2667C60.1676 28.664 61.0308 28.3049 61.6679 27.6679C62.3049 27.0308 62.664 26.1676 62.6667 25.2667ZM59.2667 12.8C59.5672 12.8 59.8555 12.9194 60.0681 13.1319C60.2806 13.3445 60.4 13.6328 60.4 13.9333V25.2667C60.4 25.5672 60.2806 25.8555 60.0681 26.0681C59.8555 26.2806 59.5672 26.4 59.2667 26.4H18.4667C18.1661 26.4 17.8778 26.2806 17.6653 26.0681C17.4527 25.8555 17.3333 25.5672 17.3333 25.2667V13.9333C17.3333 13.6328 17.4527 13.3445 17.6653 13.1319C17.8778 12.9194 18.1661 12.8 18.4667 12.8H59.2667ZM34.3333 29.8C33.4324 29.8027 32.5692 30.1618 31.9321 30.7988C31.2951 31.4359 30.936 32.2991 30.9333 33.2V41.1333C30.9333 41.4339 30.8139 41.7222 30.6014 41.9347C30.3888 42.1473 30.1006 42.2667 29.8 42.2667C29.4994 42.2667 29.2112 42.1473 28.9986 41.9347C28.7861 41.7222 28.6667 41.4339 28.6667 41.1333V37.7333C28.6667 36.8316 28.3085 35.9668 27.6708 35.3292C27.0332 34.6915 26.1684 34.3333 25.2667 34.3333C24.3649 34.3333 23.5001 34.6915 22.8625 35.3292C22.2249 35.9668 21.8667 36.8316 21.8667 37.7333V50.2C21.8667 50.5006 21.7473 50.7888 21.5347 51.0014C21.3222 51.2139 21.0339 51.3333 20.7333 51.3333C20.4328 51.3333 20.1445 51.2139 19.9319 51.0014C19.7194 50.7888 19.6 50.5006 19.6 50.2V28.6667H40V37.7333C40 38.0339 39.8806 38.3222 39.6681 38.5347C39.4555 38.7473 39.1672 38.8667 38.8667 38.8667C38.5661 38.8667 38.2778 38.7473 38.0653 38.5347C37.8527 38.3222 37.7333 38.0339 37.7333 37.7333V33.2C37.7306 32.2991 37.3716 31.4359 36.7345 30.7988C36.0975 30.1618 35.2342 29.8027 34.3333 29.8ZM41.1333 69.4667H8.26667V8.26667H49.0667V10.5333H18.4667C17.5658 10.536 16.7025 10.8951 16.0655 11.5321C15.4284 12.1692 15.0694 13.0324 15.0667 13.9333V16.2H13.9333C13.3327 16.2018 12.7572 16.4412 12.3325 16.8659C11.9078 17.2906 11.6685 17.8661 11.6667 18.4667V20.7333C11.6685 21.3339 11.9078 21.9094 12.3325 22.3341C12.7572 22.7588 13.3327 22.9982 13.9333 23H15.0667V25.2667C15.0703 25.9677 15.2898 26.6507 15.6954 27.2225C16.101 27.7944 16.6729 28.2274 17.3333 28.4627V50.2C17.3333 51.1017 17.6915 51.9665 18.3292 52.6042C18.9668 53.2418 19.8316 53.6 20.7333 53.6C21.6351 53.6 22.4999 53.2418 23.1375 52.6042C23.7751 51.9665 24.1333 51.1017 24.1333 50.2V37.7333C24.1333 37.4328 24.2527 37.1445 24.4653 36.9319C24.6778 36.7194 24.9661 36.6 25.2667 36.6C25.5672 36.6 25.8555 36.7194 26.0681 36.9319C26.2806 37.1445 26.4 37.4328 26.4 37.7333V41.1333C26.4 42.0351 26.7582 42.8999 27.3958 43.5375C28.0335 44.1751 28.8983 44.5333 29.8 44.5333C30.7017 44.5333 31.5665 44.1751 32.2042 43.5375C32.8418 42.8999 33.2 42.0351 33.2 41.1333V33.2C33.2 32.8994 33.3194 32.6112 33.5319 32.3986C33.7445 32.1861 34.0328 32.0667 34.3333 32.0667C34.6339 32.0667 34.9222 32.1861 35.1347 32.3986C35.3473 32.6112 35.4667 32.8994 35.4667 33.2V37.7333C35.4667 38.6351 35.8249 39.4999 36.4625 40.1375C37.1001 40.7751 37.9649 41.1333 38.8667 41.1333C39.7684 41.1333 40.6332 40.7751 41.2708 40.1375C41.9085 39.4999 42.2667 38.6351 42.2667 37.7333V28.6667H49.0667V33.2H47.9333C47.0324 33.2027 46.1692 33.5618 45.5321 34.1988C44.8951 34.8358 44.536 35.6991 44.5333 36.6V44.5333H40C39.6994 44.5333 39.4112 44.6527 39.1986 44.8653C38.9861 45.0778 38.8667 45.3661 38.8667 45.6667V50.2C38.8667 50.5006 38.9861 50.7888 39.1986 51.0014C39.4112 51.2139 39.6994 51.3333 40 51.3333H41.1333V69.4667ZM15.0667 18.4667V20.7333H13.9333V18.4667H15.0667ZM52.4667 70.6C52.4667 70.9006 52.3473 71.1889 52.1347 71.4014C51.9222 71.6139 51.6339 71.7333 51.3333 71.7333H44.5333C44.2328 71.7333 43.9445 71.6139 43.7319 71.4014C43.5194 71.1889 43.4 70.9006 43.4 70.6V51.3333H52.4667V70.6ZM54.7333 46.8V49.0667H41.1333V46.8H54.7333ZM71.7333 36.6C71.7333 36.9006 71.6139 37.1888 71.4014 37.4014C71.1889 37.6139 70.9006 37.7333 70.6 37.7333H51.3333C50.7327 37.7351 50.1572 37.9745 49.7325 38.3992C49.3078 38.8239 49.0685 39.3994 49.0667 40V44.5333H46.8V36.6C46.8 36.2994 46.9194 36.0112 47.1319 35.7986C47.3445 35.5861 47.6328 35.4667 47.9333 35.4667H67.2C67.8006 35.4649 68.3761 35.2255 68.8008 34.8008C69.2255 34.3761 69.4649 33.8006 69.4667 33.2V23C69.4649 22.3994 69.2255 21.8239 68.8008 21.3992C68.3761 20.9745 67.8006 20.7351 67.2 20.7333H62.6667V18.4667H70.6C70.9006 18.4667 71.1889 18.5861 71.4014 18.7986C71.6139 19.0112 71.7333 19.2994 71.7333 19.6V36.6Z"/>
<path d="M20.7333 55.8667C20.0608 55.8667 19.4035 56.0661 18.8443 56.4397C18.2852 56.8133 17.8494 57.3443 17.5921 57.9656C17.3348 58.5868 17.2674 59.2705 17.3986 59.93C17.5298 60.5895 17.8536 61.1954 18.3291 61.6709C18.8046 62.1464 19.4104 62.4702 20.07 62.6014C20.7295 62.7326 21.4131 62.6652 22.0344 62.4079C22.6557 62.1506 23.1867 61.7148 23.5603 61.1556C23.9339 60.5965 24.1333 59.9392 24.1333 59.2667C24.1333 58.365 23.7751 57.5002 23.1374 56.8625C22.4998 56.2249 21.635 55.8667 20.7333 55.8667ZM20.7333 60.4C20.5091 60.4 20.29 60.3336 20.1036 60.209C19.9173 60.0845 19.772 59.9075 19.6862 59.7004C19.6004 59.4933 19.578 59.2654 19.6217 59.0456C19.6655 58.8258 19.7734 58.6238 19.9319 58.4653C20.0904 58.3068 20.2923 58.1989 20.5122 58.1551C20.732 58.1114 20.9599 58.1339 21.167 58.2196C21.3741 58.3054 21.5511 58.4507 21.6756 58.6371C21.8001 58.8234 21.8666 59.0425 21.8666 59.2667C21.8666 59.5673 21.7472 59.8555 21.5347 60.0681C21.3221 60.2806 21.0339 60.4 20.7333 60.4Z"/>
<path d="M29.8 46.8C29.1276 46.8 28.4702 46.9995 27.9111 47.3731C27.352 47.7467 26.9162 48.2777 26.6588 48.8989C26.4015 49.5202 26.3342 50.2038 26.4654 50.8634C26.5965 51.5229 26.9204 52.1287 27.3959 52.6042C27.8714 53.0797 28.4772 53.4035 29.1367 53.5347C29.7963 53.6659 30.4799 53.5986 31.1011 53.3412C31.7224 53.0839 32.2534 52.6481 32.627 52.089C33.0006 51.5299 33.2 50.8725 33.2 50.2001C33.2 49.2983 32.8418 48.4335 32.2042 47.7959C31.5666 47.1583 30.7018 46.8 29.8 46.8ZM29.8 51.3334C29.5759 51.3334 29.3568 51.2669 29.1704 51.1424C28.984 51.0179 28.8387 50.8408 28.753 50.6338C28.6672 50.4267 28.6447 50.1988 28.6885 49.9789C28.7322 49.7591 28.8401 49.5572 28.9986 49.3987C29.1571 49.2402 29.3591 49.1322 29.5789 49.0885C29.7988 49.0448 30.0266 49.0672 30.2337 49.153C30.4408 49.2388 30.6178 49.384 30.7424 49.5704C30.8669 49.7568 30.9334 49.9759 30.9334 50.2001C30.9334 50.5006 30.814 50.7889 30.6014 51.0014C30.3889 51.214 30.1006 51.3334 29.8 51.3334Z"/>
<path d="M19.6 16.2C19.6 16.5006 19.7194 16.7888 19.9319 17.0014C20.1445 17.2139 20.4327 17.3333 20.7333 17.3333H51.3333C51.6339 17.3333 51.9222 17.2139 52.1347 17.0014C52.3472 16.7888 52.4666 16.5006 52.4666 16.2C52.4666 15.8994 52.3472 15.6111 52.1347 15.3986C51.9222 15.1861 51.6339 15.0667 51.3333 15.0667H20.7333C20.4327 15.0667 20.1445 15.1861 19.9319 15.3986C19.7194 15.6111 19.6 15.8994 19.6 16.2Z"/>
<path d="M55.8666 17.3333H56.9999C57.3005 17.3333 57.5888 17.2139 57.8013 17.0014C58.0139 16.7888 58.1333 16.5006 58.1333 16.2C58.1333 15.8994 58.0139 15.6111 57.8013 15.3986C57.5888 15.1861 57.3005 15.0667 56.9999 15.0667H55.8666C55.566 15.0667 55.2778 15.1861 55.0652 15.3986C54.8527 15.6111 54.7333 15.8994 54.7333 16.2C54.7333 16.5006 54.8527 16.7888 55.0652 17.0014C55.2778 17.2139 55.566 17.3333 55.8666 17.3333Z"/>
</symbol><symbol id="icon-phone" viewBox="0 0 17 16">
<path fill-rule="evenodd" clip-rule="evenodd" d="M7.52981 5.07037C7.9437 4.5118 8.09212 3.92312 7.62402 3.4035C6.57355 1.93151 5.86709 1.02124 5.42396 0.582879C4.58152 -0.250508 3.19568 -0.137779 2.46606 0.582167C2.07418 0.968857 1.94151 1.10165 1.53913 1.51094C-0.702188 3.75666 0.664684 8.50405 4.29833 12.1465C7.93115 15.788 12.6713 17.1576 14.9173 14.9071C15.2886 14.5487 15.603 14.2337 15.851 13.9712C16.566 13.2144 16.6745 11.8878 15.8462 11.026C15.4216 10.5841 14.5548 9.91082 13.0231 8.8136C12.554 8.39351 11.9977 8.48456 11.4878 8.8196C11.2425 8.98077 11.064 9.1438 10.7269 9.4817L10.1147 10.095C10.0341 10.1758 8.93937 9.62678 7.87667 8.56152C6.8134 7.49567 6.26552 6.3993 6.34577 6.31894L6.95831 5.70519C7.06526 5.59798 7.11639 5.54608 7.18196 5.47707C7.31857 5.33328 7.43168 5.2028 7.52981 5.07037ZM11.2439 11.2264L11.8561 10.6129C12.0416 10.427 12.1619 10.3126 12.2597 10.2338C13.6015 11.1988 14.3786 11.8055 14.696 12.1358C14.8866 12.3341 14.857 12.6959 14.6913 12.8713C14.462 13.1139 14.1642 13.4124 13.7986 13.7655C12.3463 15.2205 8.5199 14.115 5.4277 11.0153C2.33454 7.91469 1.2311 4.08227 2.67249 2.63803C3.07325 2.23042 3.20022 2.10333 3.58651 1.72216C3.73135 1.57924 4.12588 1.54715 4.30207 1.72145C4.64324 2.05895 5.27609 2.87043 6.20705 4.1691C6.15886 4.22902 6.09866 4.29673 6.02541 4.37383C5.97165 4.43042 5.92685 4.47589 5.82893 4.57405L5.21699 5.1872C4.17596 6.22964 5.06254 8.00381 6.74729 9.69263C8.43089 11.3803 10.2032 12.2691 11.2439 11.2264ZM9.76541 0.0556223C13.2191 0.474853 15.9577 3.21729 16.3763 6.67595L14.7982 6.93934C14.4935 4.15344 12.2843 1.94111 9.50239 1.63597L9.76541 0.0556223V0.0556223ZM9.23916 3.21767C11.3494 3.40668 13.03 5.08973 13.2187 7.20295L11.6356 7.46718C11.5684 6.02647 10.414 4.87037 8.9753 4.8031L9.23916 3.21767V3.21767Z" fill="#293449"/>
</symbol><symbol id="icon-sale" viewBox="0 0 80 80">
<path d="M72.9876 17.8025H70.0145L70.0174 12.4874C70.0191 8.91914 67.118 6.0145 63.5491 6.01276L40.9849 6C40.9838 6 40.9832 6 40.982 6C39.6977 6 38.4899 6.50006 37.5814 7.40852L3.89524 41.0947C2.67293 42.317 2 43.9419 2 45.6706C2 47.3994 2.67293 49.0243 3.89524 50.2466L25.7563 72.1077C27.0181 73.3694 28.6755 74 30.3323 74C31.9897 74 33.647 73.3694 34.9088 72.1077L56.1178 50.8986C56.6979 50.3185 56.6979 49.3782 56.1178 48.7986C55.5377 48.2185 54.5973 48.2185 54.0172 48.7986L32.8082 70.0076C31.4432 71.3727 29.2219 71.3727 27.8569 70.0076L5.99584 48.1466C5.3345 47.4852 4.97019 46.6058 4.97019 45.6706C4.97019 44.7355 5.3345 43.856 5.99584 43.1947L39.6814 9.50912C40.0289 9.16163 40.4907 8.97019 40.982 8.97019H40.9832L63.5474 8.98295C65.478 8.98354 67.0484 10.5556 67.0472 12.4863L67.0402 24.9309H60.3509C59.7749 24.9309 59.2534 24.6954 58.8763 24.316C59.4976 24.0497 60.08 23.6651 60.5865 23.1587C62.7207 21.0238 62.7207 17.5513 60.5865 15.417C58.4516 13.2822 54.9791 13.2822 52.8442 15.417C50.71 17.5513 50.71 21.0238 52.8442 23.1587C53.6355 23.9499 54.6113 24.4471 55.634 24.6519C56.3609 26.5494 58.2004 27.9011 60.3509 27.9011H67.0385L67.0344 35.0203C67.0344 35.5116 66.843 35.9728 66.4955 36.3197L62.4185 40.3974C61.8383 40.9775 61.8383 41.9179 62.4185 42.498C62.998 43.0775 63.9384 43.0775 64.5185 42.498L68.5961 38.4203C69.5034 37.5125 70.0041 36.3058 70.0046 35.022L70.0087 27.9011H72.9876C75.7716 27.9011 78.0369 25.6363 78.0369 22.8518C78.0369 20.0678 75.7716 17.8025 72.9876 17.8025ZM54.9448 17.517C55.4333 17.0286 56.0743 16.7849 56.7159 16.7849C57.357 16.7849 57.998 17.0292 58.4864 17.517C58.6408 17.6719 58.7684 17.8431 58.874 18.0235C57.2438 18.523 55.9629 19.8276 55.4948 21.4717C55.2981 21.362 55.1119 21.2257 54.9448 21.0586C53.9685 20.0817 53.9685 18.4934 54.9448 17.517ZM72.9876 24.9309H70.0104L70.0128 20.7726H72.9876C74.1339 20.7726 75.0667 21.7055 75.0667 22.8518C75.0667 23.9981 74.1339 24.9309 72.9876 24.9309Z"/>
<path d="M25.9715 43.4697C26.1542 44.127 26.7512 44.5568 27.4009 44.5568C27.5332 44.5568 27.6672 44.5394 27.8 44.5023L43.0454 40.2588C43.8356 40.0389 44.2979 39.2198 44.078 38.4297C43.8582 37.6401 43.0396 37.1778 42.2489 37.3976L27.0035 41.6406C26.214 41.861 25.7516 42.6796 25.9715 43.4697Z"/>
<path d="M32.6823 45.4293C31.855 46.2565 31.3996 47.3558 31.3996 48.5259C31.3996 49.6954 31.855 50.7948 32.6823 51.622C33.5362 52.4753 34.657 52.9023 35.7784 52.9023C36.8997 52.9023 38.0211 52.4753 38.875 51.622C40.5823 49.9147 40.5823 47.1365 38.875 45.4293C37.1677 43.722 34.3896 43.722 32.6823 45.4293ZM36.7744 49.5214C36.2251 50.0708 35.3317 50.0708 34.7823 49.5214C34.516 49.2557 34.3698 48.9018 34.3698 48.5253C34.3698 48.1494 34.5166 47.7956 34.7823 47.5293C35.0573 47.2549 35.4181 47.1174 35.7784 47.1174C36.1392 47.1174 36.5 47.2549 36.7744 47.5293C37.3238 48.0787 37.3238 48.9726 36.7744 49.5214Z"/>
<path d="M39.6107 36.5872C41.318 34.8793 41.318 32.1017 39.6107 30.3945C38.7835 29.5672 37.6836 29.1118 36.514 29.1118C35.3445 29.1118 34.2446 29.5672 33.418 30.3945C31.7107 32.1017 31.7107 34.8793 33.418 36.5872C34.2719 37.4405 35.3927 37.8675 36.514 37.8675C37.6354 37.8675 38.7568 37.4405 39.6107 36.5872ZM35.518 32.4945C35.7843 32.2282 36.1381 32.082 36.514 32.082C36.8905 32.082 37.2444 32.2282 37.5101 32.4945C38.0595 33.0438 38.0595 33.9372 37.5101 34.4866C36.9613 35.036 36.0674 35.036 35.518 34.4866C34.9692 33.9372 34.9692 33.0438 35.518 32.4945Z"/>
<path d="M16.771 40.4008C16.1908 39.8207 15.2505 39.8207 14.6704 40.4008L10.4506 44.6206C10.1721 44.8991 10.0155 45.2767 10.0155 45.6706C10.0155 46.0645 10.1721 46.4422 10.4506 46.7206L29.2829 65.5529C29.5724 65.8424 29.9529 65.9874 30.3329 65.9874C30.7129 65.9874 31.0929 65.8424 31.3829 65.5529L59.5394 37.3958C60.1195 36.8157 60.1195 35.8754 59.5394 35.2952L40.7077 16.4635C40.4292 16.1851 40.0516 16.0284 39.6577 16.0284C39.2638 16.0284 38.8861 16.1851 38.6077 16.4635L23.0716 31.9996C22.4915 32.5797 22.4915 33.5201 23.0716 34.1002C23.6511 34.6797 24.5915 34.6797 25.1716 34.1002L39.6577 19.6141L56.3894 36.3458L30.3329 62.4023L13.6012 45.6706L16.771 42.5009C17.3505 41.9207 17.3511 40.981 16.771 40.4008Z"/>
<path d="M59.2684 44.163C58.8774 44.163 58.4946 44.3219 58.2184 44.5981C57.9423 44.8742 57.7833 45.2576 57.7833 45.6481C57.7833 46.0385 57.9423 46.4219 58.2184 46.6981C58.4946 46.9742 58.8774 47.1332 59.2684 47.1332C59.6588 47.1332 60.0417 46.9742 60.3184 46.6981C60.5946 46.4219 60.7535 46.0385 60.7535 45.6481C60.7535 45.2576 60.5946 44.8742 60.3184 44.5981C60.0417 44.3219 59.6588 44.163 59.2684 44.163Z"/>
<path d="M20.9704 38.2996C21.2482 38.0235 21.406 37.6418 21.406 37.2496C21.406 36.8592 21.2482 36.4775 20.9704 36.1996C20.6942 35.9235 20.3125 35.7645 19.9209 35.7645C19.5299 35.7645 19.147 35.9235 18.8709 36.1996C18.5942 36.4757 18.4358 36.8592 18.4358 37.2496C18.4358 37.6418 18.5942 38.0235 18.8709 38.2996C19.1482 38.5775 19.5299 38.7347 19.9209 38.7347C20.3125 38.7347 20.6942 38.5775 20.9704 38.2996Z"/>
</symbol><symbol id="icon-search" viewBox="0 0 20 20">
<path fill-rule="evenodd" clip-rule="evenodd" d="M8 16C3.58172 16 0 12.4183 0 8C0 3.58172 3.58172 0 8 0C12.4183 0 16 3.58172 16 8C16 9.84871 15.3729 11.551 14.3199 12.9056L19.7071 18.2929L18.2929 19.7071L12.9056 14.3199C11.551 15.3729 9.84871 16 8 16ZM14 8C14 11.3137 11.3137 14 8 14C4.68629 14 2 11.3137 2 8C2 4.68629 4.68629 2 8 2C11.3137 2 14 4.68629 14 8Z" fill="black"/>
</symbol><symbol id="icon-warranty" viewBox="0 0 80 80">
<path d="M70.5624 38.7887C65.8545 38.7887 61.4845 36.4505 58.8727 32.5321L57.9356 31.1265L56.9985 32.5321C54.3866 36.4505 50.0166 38.7887 45.3088 38.7887H41.0412V56.8498C41.0412 61.2153 43.0066 65.3184 46.2909 68.0722H23.0206V63.567H37.6624V43.2938H14.0103V52.3041H7.25258V7.25258H56.8093V27.5258H59.0619V5H5V53.8967L21.4281 70.3248H49.7531L57.9356 75L67.4527 69.5623C72.0029 66.9628 74.8299 62.0905 74.8299 56.8498V38.7887H70.5624ZM20.768 66.4796L8.84515 54.5567H20.768V66.4796ZM16.2629 52.3041V45.5464H35.4098V61.3145H23.0206V52.3041H16.2629ZM72.5773 56.8498C72.5773 61.2852 70.1851 65.4063 66.3354 67.607L57.9356 72.4073L49.5357 67.607C45.6861 65.4063 43.2938 61.2852 43.2938 56.8498V41.0413H45.3088C50.2419 41.0413 54.8552 38.8281 57.9356 35.0516C61.016 38.8281 65.6293 41.0413 70.5624 41.0413H72.5773V56.8498Z"/>
<path d="M68.0722 50.0516V56.8499C68.0722 59.6724 66.5494 62.2955 64.0997 63.6955L65.217 65.6507C68.3673 63.8509 70.3248 60.4788 70.3248 56.8499V50.0516H68.0722Z"/>
<path d="M11.7576 9.50513V16.2629H52.3041V9.50513H11.7576ZM50.0515 14.0103H14.0102V11.7577H50.0515V14.0103Z"/>
<path d="M67.2759 43.6239L52.3041 58.5957L48.5953 54.8868L47.0027 56.4794L52.3041 61.7808L68.8685 45.2165L67.2759 43.6239Z"/>
<path d="M33.1573 47.799H18.5155V50.0515H33.1573V47.799Z"/>
<path d="M33.1572 52.3041H25.2732V54.5567H33.1572V52.3041Z"/>
<path d="M33.1572 56.8092H25.2732V59.0618H33.1572V56.8092Z"/>
<path d="M47.7989 20.7681H11.7576V23.0206H47.7989V20.7681Z"/>
<path d="M47.7989 25.2732H11.7576V27.5258H47.7989V25.2732Z"/>
<path d="M47.7989 29.7783H11.7576V32.0309H47.7989V29.7783Z"/>
<path d="M33.1571 34.2834H11.7576V36.536H33.1571V34.2834Z"/>
<path d="M33.1571 38.7887H11.7576V41.0413H33.1571V38.7887Z"/>
<path d="M52.3041 20.7681H50.0515V23.0206H52.3041V20.7681Z"/>
<path d="M52.3041 25.2732H50.0515V27.5258H52.3041V25.2732Z"/>
<path d="M52.3041 29.7783H50.0515V32.0309H52.3041V29.7783Z"/>
<path d="M37.6623 34.2834H35.4097V36.536H37.6623V34.2834Z"/>
<path d="M37.6623 38.7887H35.4097V41.0413H37.6623V38.7887Z"/>
</symbol><symbol id="logo-ok" viewBox="0 0 36 36">
<rect x="5" y="4" width="23" height="29" fill="white"/>
<path d="M29.5199 2.88H6.47988C4.49268 2.88 2.87988 4.4928 2.87988 6.48V29.52C2.87988 31.5072 4.49268 33.12 6.47988 33.12H29.5199C31.5071 33.12 33.1199 31.5072 33.1199 29.52V6.48C33.1199 4.4928 31.5071 2.88 29.5199 2.88ZM11.2247 27.0648L14.9399 23.3424C13.6943 22.9968 12.5063 22.4568 11.4263 21.7008C10.7783 21.2472 10.6127 20.3544 11.0663 19.6992C11.3471 19.296 11.7935 19.08 12.2543 19.08C12.5351 19.08 12.8231 19.1664 13.0751 19.3392C14.5223 20.3472 16.2287 20.88 17.9999 20.88C19.7783 20.88 21.4847 20.3472 22.9391 19.332C23.1839 19.1592 23.4719 19.0728 23.7599 19.0728C24.2135 19.0728 24.6599 19.2888 24.9407 19.692C25.3943 20.34 25.2359 21.24 24.5807 21.6936C23.5007 22.4496 22.3127 22.9968 21.0599 23.3424L24.7751 27.0648C25.3439 27.6264 25.3439 28.5336 24.7751 29.0952C24.4943 29.376 24.1271 29.52 23.7599 29.52C23.3927 29.52 23.0255 29.376 22.7447 29.0952L17.9999 24.3576L13.2551 29.0952C12.9743 29.376 12.6071 29.52 12.2399 29.52C11.8727 29.52 11.5055 29.376 11.2247 29.0952C10.6559 28.5336 10.6559 27.6264 11.2247 27.0648ZM17.9999 18C14.8175 18 12.2399 15.4224 12.2399 12.24C12.2399 9.0576 14.8175 6.48 17.9999 6.48C21.1823 6.48 23.7599 9.0576 23.7599 12.24C23.7599 15.4224 21.1823 18 17.9999 18Z" fill="#47556C"/>
<path d="M18.0001 9.35999C17.2363 9.35999 16.5038 9.66341 15.9637 10.2035C15.4235 10.7436 15.1201 11.4762 15.1201 12.24C15.1201 13.0038 15.4235 13.7363 15.9637 14.2765C16.5038 14.8166 17.2363 15.12 18.0001 15.12C18.7639 15.12 19.4965 14.8166 20.0366 14.2765C20.5767 13.7363 20.8801 13.0038 20.8801 12.24C20.8801 11.4762 20.5767 10.7436 20.0366 10.2035C19.4965 9.66341 18.7639 9.35999 18.0001 9.35999Z" fill="#47556C"/>
</symbol><symbol id="logo-technomart-faded" viewBox="0 0 108 18">
<path fill-rule="evenodd" clip-rule="evenodd" d="M103.847 2.65853V17.4498H101.734V2.65853H97.9779V1.01506H107.604V2.65853H103.847ZM95.7123 11.3572C95.3444 11.819 94.8827 12.1477 94.327 12.3433C93.7714 12.539 93.1101 12.6368 92.3431 12.6368C91.9831 12.6368 91.5762 12.6133 91.1223 12.5664C90.6683 12.5194 90.2927 12.4646 89.9953 12.402V17.4498H87.8823V1.24984C88.477 1.07766 89.0757 0.95636 89.6783 0.885926C90.281 0.815491 90.9344 0.780273 91.6388 0.780273C92.5779 0.780273 93.3762 0.8781 94.0336 1.07375C94.6909 1.2694 95.2231 1.59419 95.6301 2.0481C96.037 2.50201 96.3344 3.10462 96.5223 3.85593C96.7101 4.60723 96.804 5.53853 96.804 6.64984C96.804 7.79245 96.714 8.74723 96.534 9.51419C96.354 10.2811 96.0801 10.8955 95.7123 11.3572ZM94.5149 4.5368C94.3975 3.97332 94.2136 3.52723 93.9631 3.19853C93.7127 2.86984 93.3957 2.63897 93.0123 2.50593C92.6288 2.37288 92.1709 2.30636 91.6388 2.30636H89.9953V10.9933H91.6388C92.1709 10.9933 92.6288 10.9268 93.0123 10.7938C93.3957 10.6607 93.7127 10.4298 93.9631 10.1011C94.2136 9.77245 94.3975 9.32636 94.5149 8.76288C94.6322 8.1994 94.6909 7.49506 94.6909 6.64984C94.6909 5.80462 94.6322 5.10027 94.5149 4.5368ZM82.5996 13.2238H77.904L76.8475 17.4498H74.7344L78.7257 1.01506H81.7779L85.7692 17.4498H83.6562L82.5996 13.2238ZM80.2988 3.36288H80.2049L78.2562 11.5803H82.2475L80.2988 3.36288ZM70.1562 5.24114H70.0388L66.6344 15.3368H64.5214L61.117 5.24114H60.9996L60.2953 17.4498H58.1823L59.1214 1.01506H61.704L65.5309 12.2846H65.6249L69.4518 1.01506H72.0344L72.9736 17.4498H70.8605L70.1562 5.24114ZM54.3788 15.9238C53.9405 16.5655 53.4123 17.0194 52.794 17.2855C52.1757 17.5516 51.4675 17.6846 50.6692 17.6846C49.8709 17.6846 49.1627 17.5516 48.5444 17.2855C47.9262 17.0194 47.3979 16.5655 46.9596 15.9238C46.5214 15.282 46.1888 14.4172 45.9618 13.3294C45.7349 12.2416 45.6214 10.8759 45.6214 9.23245C45.6214 7.58897 45.7349 6.22332 45.9618 5.13549C46.1888 4.04766 46.5214 3.18288 46.9596 2.54114C47.3979 1.8994 47.9262 1.44549 48.5444 1.1794C49.1627 0.913317 49.8709 0.780273 50.6692 0.780273C51.4675 0.780273 52.1757 0.913317 52.794 1.1794C53.4123 1.44549 53.9405 1.8994 54.3788 2.54114C54.817 3.18288 55.1496 4.04766 55.3766 5.13549C55.6036 6.22332 55.717 7.58897 55.717 9.23245C55.717 10.8759 55.6036 12.2416 55.3766 13.3294C55.1496 14.4172 54.817 15.282 54.3788 15.9238ZM53.3575 5.75766C53.1931 4.84984 52.9779 4.12984 52.7118 3.59766C52.4457 3.06549 52.1327 2.69766 51.7727 2.49419C51.4127 2.29071 51.0449 2.18897 50.6692 2.18897C50.2936 2.18897 49.9257 2.29071 49.5657 2.49419C49.2057 2.69766 48.8927 3.06549 48.6266 3.59766C48.3605 4.12984 48.1453 4.84984 47.9809 5.75766C47.8166 6.66549 47.7344 7.82375 47.7344 9.23245C47.7344 10.6411 47.8166 11.7994 47.9809 12.7072C48.1453 13.6151 48.3605 14.3351 48.6266 14.8672C48.8927 15.3994 49.2057 15.7672 49.5657 15.9707C49.9257 16.1742 50.2936 16.2759 50.6692 16.2759C51.0449 16.2759 51.4127 16.1742 51.7727 15.9707C52.1327 15.7672 52.4457 15.3994 52.7118 14.8672C52.9779 14.3351 53.1931 13.6151 53.3575 12.7072C53.5218 11.7994 53.604 10.6411 53.604 9.23245C53.604 7.82375 53.5218 6.66549 53.3575 5.75766ZM40.6909 9.9368H35.7605V17.4498H33.6475V1.01506H35.7605V8.29332H40.6909V1.01506H42.804V17.4498H40.6909V9.9368ZM29.5396 17.4498L26.6048 10.4064L23.67 17.4498H21.5569L25.0787 8.99766L21.9091 1.01506H24.0222L26.6048 7.58897L29.1874 1.01506H31.3004L28.1309 8.99766L31.6526 17.4498H29.5396ZM12.283 1.01506H20.2656V2.65853H14.3961V8.05853H19.5613V9.70201H14.3961V15.8064H20.2656V17.4498H12.283V1.01506ZM6.64825 17.4498H4.53521V2.65853H0.778687V1.01506H10.4048V2.65853H6.64825V17.4498Z" fill="#DADADA"/>
</symbol><symbol id="logo-technomart" viewBox="0 0 111 22">
<path fill-rule="evenodd" clip-rule="evenodd" d="M106.227 3.27394V20.8976H104.069V3.27394H100.233V1.31575H110.064V3.27394H106.227ZM97.9189 13.6383C97.5432 14.1885 97.0717 14.5801 96.5042 14.8133C95.9367 15.0464 95.2614 15.1629 94.4781 15.1629C94.1104 15.1629 93.6948 15.135 93.2312 15.079C92.7677 15.0231 92.384 14.9578 92.0803 14.8832V20.8976H89.9223V1.59549C90.5297 1.39035 91.1412 1.24582 91.7566 1.16189C92.372 1.07797 93.0394 1.03601 93.7588 1.03601C94.7179 1.03601 95.5331 1.15257 96.2045 1.38569C96.8759 1.6188 97.4194 2.00578 97.835 2.54661C98.2506 3.08744 98.5543 3.80545 98.7461 4.70062C98.938 5.59579 99.0339 6.70543 99.0339 8.02953C99.0339 9.39094 98.942 10.5286 98.7581 11.4424C98.5743 12.3562 98.2946 13.0882 97.9189 13.6383ZM96.696 5.51187C96.5761 4.84049 96.3883 4.30898 96.1326 3.91734C95.8768 3.52571 95.5531 3.25063 95.1614 3.09211C94.7698 2.93359 94.3022 2.85433 93.7587 2.85433H92.0803V13.2047H93.7587C94.3022 13.2047 94.7698 13.1255 95.1614 12.967C95.5531 12.8084 95.8768 12.5334 96.1326 12.1417C96.3883 11.7501 96.5761 11.2186 96.696 10.5472C96.8159 9.87582 96.8759 9.0366 96.8759 8.02953C96.8759 7.02247 96.8159 6.18324 96.696 5.51187ZM84.5273 15.8623H79.7317L78.6527 20.8976H76.4947L80.571 1.31575H83.6881L87.7643 20.8976H85.6063L84.5273 15.8623ZM82.1775 4.11316H82.0816L80.0914 13.9041H84.1676L82.1775 4.11316ZM71.8191 6.35109H71.6992L68.2224 18.38H66.0644L62.5876 6.35109H62.4677L61.7484 20.8976H59.5904L60.5495 1.31575H63.1871L67.0954 14.7433H67.1914L71.0997 1.31575H73.7373L74.6964 20.8976H72.5384L71.8191 6.35109ZM55.706 19.0793C55.2584 19.8439 54.7189 20.3848 54.0875 20.7018C53.4561 21.0188 52.7327 21.1774 51.9175 21.1774C51.1022 21.1774 50.3789 21.0188 49.7475 20.7018C49.1161 20.3848 48.5766 19.8439 48.129 19.0793C47.6814 18.3147 47.3417 17.2843 47.1099 15.9882C46.8782 14.692 46.7623 13.0649 46.7623 11.1067C46.7623 9.1485 46.8782 7.52134 47.1099 6.22521C47.3417 4.92907 47.6814 3.89869 48.129 3.13407C48.5766 2.36944 49.1161 1.82861 49.7475 1.51157C50.3789 1.19453 51.1022 1.03601 51.9175 1.03601C52.7327 1.03601 53.4561 1.19453 54.0875 1.51157C54.7189 1.82861 55.2584 2.36944 55.706 3.13407C56.1536 3.89869 56.4933 4.92907 56.725 6.22521C56.9568 7.52134 57.0727 9.1485 57.0727 11.1067C57.0727 13.0649 56.9568 14.692 56.725 15.9882C56.4933 17.2843 56.1536 18.3147 55.706 19.0793ZM54.663 6.96652C54.4951 5.88485 54.2753 5.02698 54.0036 4.3929C53.7318 3.75882 53.4121 3.32056 53.0445 3.07812C52.6768 2.83568 52.3011 2.71446 51.9175 2.71446C51.5338 2.71446 51.1582 2.83568 50.7905 3.07812C50.4229 3.32056 50.1032 3.75882 49.8314 4.3929C49.5597 5.02698 49.3399 5.88485 49.172 6.96652C49.0042 8.04818 48.9203 9.42824 48.9203 11.1067C48.9203 12.7851 49.0042 14.1652 49.172 15.2469C49.3399 16.3285 49.5597 17.1864 49.8314 17.8205C50.1032 18.4546 50.4229 18.8928 50.7905 19.1353C51.1582 19.3777 51.5338 19.4989 51.9175 19.4989C52.3011 19.4989 52.6768 19.3777 53.0445 19.1353C53.4121 18.8928 53.7318 18.4546 54.0036 17.8205C54.2753 17.1864 54.4951 16.3285 54.663 15.2469C54.8308 14.1652 54.9147 12.7851 54.9147 11.1067C54.9147 9.42824 54.8308 8.04818 54.663 6.96652ZM41.7269 11.9459H36.6916V20.8976H34.5336V1.31575H36.6916V9.98772H41.7269V1.31575H43.8849V20.8976H41.7269V11.9459ZM30.3383 20.8976L27.3411 12.5054L24.3438 20.8976H22.1858L25.7825 10.8269L22.5455 1.31575H24.7035L27.3411 9.1485L29.9786 1.31575H32.1366L28.8996 10.8269L32.4963 20.8976H30.3383ZM12.7146 1.31575H20.867V3.27394H14.8726V9.70798H20.1477V11.6662H14.8726V18.9394H20.867V20.8976H12.7146V1.31575ZM6.95993 20.8976H4.80192V3.27394H0.965477V1.31575H10.7964V3.27394H6.95993V20.8976Z" fill="white"/>
</symbol><symbol id="logo-twitter" viewBox="0 0 36 34">
<path d="M17.9167 0C8.02226 0 0 7.46257 0 16.6667C0 25.8708 8.02226 33.3333 17.9167 33.3333C27.8111 33.3333 35.8333 25.8708 35.8333 16.6667C35.8333 7.46257 27.8111 0 17.9167 0Z" fill="#47556C"/>
<path d="M28.6667 10.9326C27.8759 11.2597 26.8768 11.5657 25.9792 11.6666C26.8908 11.1637 28.3378 10.1155 28.6667 9.16663C27.8147 9.63212 26.2732 10.1302 25.2689 10.3092C24.4658 9.51819 23.3215 9.16663 22.053 9.16663C19.6157 9.16663 17.9167 11.0872 17.9167 13.3333V15C14.3334 15 10.8393 12.4609 8.66622 9.99996C8.28304 10.6005 8.06783 11.3037 8.06783 12.0475C8.06783 13.5628 9.56555 15.1009 10.7501 15.8333C10.0275 15.8121 8.65747 15.2994 8.06258 15C8.06258 15.013 8.06258 15.0293 8.06258 15.0472C8.06258 17.0198 9.5498 18.3593 11.5672 18.7321C11.1997 18.8265 10.7501 19.1666 9.02315 19.1666C9.58305 20.7796 12.4035 21.6308 14.3334 21.6666C12.8234 22.7555 10.1307 23.3333 8.06258 23.3333C7.70565 23.3333 7.51143 23.3512 7.16675 23.3138C9.11764 24.4645 11.8436 25 14.3334 25C22.4467 25 26.8751 19.235 26.8751 13.859C26.8751 13.6816 26.8681 13.0892 26.8593 12.9166C27.7254 12.3486 28.0771 11.7529 28.6667 10.9326Z" fill="white"/>
</symbol><symbol id="logo-vk" viewBox="0 0 36 36">
<path fill-rule="evenodd" clip-rule="evenodd" d="M18.1331 1.2141C27.5345 1.2141 35.1559 8.66232 35.1559 17.8502C35.1559 27.0377 27.5345 34.4859 18.1331 34.4859C8.73173 34.4859 1.11038 27.0377 1.11038 17.8502C1.11038 8.66232 8.73173 1.2141 18.1331 1.2141Z" fill="#47556C"/>
<path d="M19.7607 20.6746C20.3982 20.4685 21.2143 22.0348 22.0831 22.6343C22.7353 23.0884 23.2347 22.9904 23.2347 22.9904L25.5505 22.957C25.5505 22.957 26.7607 22.8823 26.1886 21.9208C26.1413 21.8408 25.8532 21.208 24.4649 19.9058C23.0133 18.5435 23.21 18.7642 24.9577 16.4091C26.0226 14.9735 26.4486 14.0967 26.3153 13.7233C26.1873 13.3639 25.4051 13.4572 25.4051 13.4572L22.7959 13.4752C22.5419 13.4759 22.3265 13.5546 22.2285 13.8186C22.2265 13.8213 21.8144 14.9295 21.265 15.8717C20.1041 17.8647 19.6407 17.9707 19.4486 17.846C19.0079 17.5573 19.1192 16.6878 19.1192 16.0697C19.1192 14.138 19.4073 13.3325 18.5551 13.1245C18.2704 13.0551 18.0624 13.0098 17.3362 13.0031C16.4081 12.9891 15.6199 13.0031 15.1732 13.2225C14.8764 13.3712 14.6491 13.6972 14.7871 13.7159C14.9605 13.7393 15.3492 13.8226 15.5572 14.1067C15.8246 14.4747 15.8166 15.2996 15.8166 15.2996C15.8166 15.2996 15.9693 17.574 15.4565 17.856C15.1045 18.0494 14.6231 17.6547 13.5875 15.845C13.0588 14.9195 12.6593 13.8966 12.6593 13.8966C12.6593 13.8966 12.582 13.7066 12.442 13.6026C12.2753 13.4792 12.0419 13.4399 12.0419 13.4399L9.56542 13.4559C9.56542 13.4559 9.19335 13.4665 9.05666 13.6306C8.9353 13.7759 9.04666 14.076 9.04666 14.076C9.04666 14.076 10.9864 18.6642 13.1828 20.9753C15.1965 23.097 17.4849 22.9563 17.4849 22.9563H18.5218C18.5218 22.9563 18.8345 22.9203 18.9946 22.7483C19.1439 22.5883 19.1372 22.2876 19.1372 22.2876C19.1372 22.2876 19.1166 20.8813 19.7607 20.6746Z" fill="white"/>
</symbol><symbol id="logo" viewBox="0 0 225 56">
<g filter="url(#filter0_i_850_8535)">
<rect width="224.681" height="56" fill="#EE3643"/>
</g>
<mask id="mask0_850_8535" style="mask-type:alpha" maskUnits="userSpaceOnUse" x="0" y="0" width="225" height="56">
<rect width="224.681" height="56" fill="#EE3643"/>
</mask>
<g mask="url(#mask0_850_8535)">
<g filter="url(#filter1_i_850_8535)">
<rect width="224.681" height="56" fill="#EE3643"/>
</g>
</g>
<path fill-rule="evenodd" clip-rule="evenodd" d="M162.227 16.2739V33.8976H160.069V16.2739H156.233V14.3158H166.064V16.2739H162.227ZM153.919 26.6383C153.543 27.1885 153.072 27.5801 152.504 27.8133C151.937 28.0464 151.261 28.1629 150.478 28.1629C150.11 28.1629 149.695 28.135 149.231 28.079C148.768 28.0231 148.384 27.9578 148.08 27.8832V33.8976H145.922V14.5955C146.53 14.3903 147.141 14.2458 147.757 14.1619C148.372 14.078 149.039 14.036 149.759 14.036C150.718 14.036 151.533 14.1526 152.205 14.3857C152.876 14.6188 153.419 15.0058 153.835 15.5466C154.251 16.0874 154.554 16.8054 154.746 17.7006C154.938 18.5958 155.034 19.7054 155.034 21.0295C155.034 22.3909 154.942 23.5286 154.758 24.4424C154.574 25.3562 154.295 26.0882 153.919 26.6383ZM152.696 18.5119C152.576 17.8405 152.388 17.309 152.133 16.9173C151.877 16.5257 151.553 16.2506 151.161 16.0921C150.77 15.9336 150.302 15.8543 149.759 15.8543H148.08V26.2047H149.759C150.302 26.2047 150.77 26.1255 151.161 25.967C151.553 25.8084 151.877 25.5334 152.133 25.1417C152.388 24.7501 152.576 24.2186 152.696 23.5472C152.816 22.8758 152.876 22.0366 152.876 21.0295C152.876 20.0225 152.816 19.1832 152.696 18.5119ZM140.527 28.8623H135.732L134.653 33.8976H132.495L136.571 14.3158H139.688L143.764 33.8976H141.606L140.527 28.8623ZM138.178 17.1132H138.082L136.091 26.9041H140.168L138.178 17.1132ZM127.819 19.3511H127.699L124.222 31.38H122.064L118.588 19.3511H118.468L117.748 33.8976H115.59L116.55 14.3158H119.187L123.095 27.7433H123.191L127.1 14.3158H129.737L130.696 33.8976H128.538L127.819 19.3511ZM111.706 32.0793C111.258 32.8439 110.719 33.3848 110.088 33.7018C109.456 34.0188 108.733 34.1774 107.918 34.1774C107.102 34.1774 106.379 34.0188 105.748 33.7018C105.116 33.3848 104.577 32.8439 104.129 32.0793C103.681 31.3147 103.342 30.2843 103.11 28.9882C102.878 27.692 102.762 26.0649 102.762 24.1067C102.762 22.1485 102.878 20.5213 103.11 19.2252C103.342 17.9291 103.681 16.8987 104.129 16.1341C104.577 15.3694 105.116 14.8286 105.748 14.5116C106.379 14.1945 107.102 14.036 107.918 14.036C108.733 14.036 109.456 14.1945 110.088 14.5116C110.719 14.8286 111.258 15.3694 111.706 16.1341C112.154 16.8987 112.493 17.9291 112.725 19.2252C112.957 20.5213 113.073 22.1485 113.073 24.1067C113.073 26.0649 112.957 27.692 112.725 28.9882C112.493 30.2843 112.154 31.3147 111.706 32.0793ZM110.663 19.9665C110.495 18.8849 110.275 18.027 110.004 17.3929C109.732 16.7588 109.412 16.3206 109.044 16.0781C108.677 15.8357 108.301 15.7145 107.918 15.7145C107.534 15.7145 107.158 15.8357 106.791 16.0781C106.423 16.3206 106.103 16.7588 105.831 17.3929C105.56 18.027 105.34 18.8849 105.172 19.9665C105.004 21.0482 104.92 22.4282 104.92 24.1067C104.92 25.7851 105.004 27.1652 105.172 28.2469C105.34 29.3285 105.56 30.1864 105.831 30.8205C106.103 31.4546 106.423 31.8928 106.791 32.1353C107.158 32.3777 107.534 32.4989 107.918 32.4989C108.301 32.4989 108.677 32.3777 109.044 32.1353C109.412 31.8928 109.732 31.4546 110.004 30.8205C110.275 30.1864 110.495 29.3285 110.663 28.2469C110.831 27.1652 110.915 25.7851 110.915 24.1067C110.915 22.4282 110.831 21.0482 110.663 19.9665ZM97.727 24.9459H92.6916V33.8976H90.5336V14.3158H92.6916V22.9877H97.727V14.3158H99.885V33.8976H97.727V24.9459ZM86.3383 33.8976L83.3411 25.5054L80.3439 33.8976H78.1859L81.7825 23.8269L78.5455 14.3158H80.7035L83.3411 22.1485L85.9787 14.3158H88.1367L84.8996 23.8269L88.4963 33.8976H86.3383ZM68.7146 14.3158H76.8671V16.2739H70.8726V22.708H76.1478V24.6662H70.8726V31.9394H76.8671V33.8976H68.7146V14.3158ZM62.96 33.8976H60.802V16.2739H56.9655V14.3158H66.7964V16.2739H62.96V33.8976Z" fill="white"/>

</symbol></svg>