<svg xmlns="http://www.w3.org/2000/svg" xmlns:xlink="http://www.w3.org/1999/xlink"><defs>
<filter id="filter0_i_850_8535" x="0" y="0" width="224.681" height="56" filterUnits="userSpaceOnUse" color-interpolation-filters="sRGB">
<feFlood flood-opacity="0" result="BackgroundImageFix"/>
<feBlend mode="normal" in="SourceGraphic" in2="BackgroundImageFix" result="shape"/>
<feColorMatrix in="SourceAlpha" type="matrix" values="0 0 0 0 0 0 0 0 0 0 0 0 0 0 0 0 0 0 127 0" result="hardAlpha"/>
<feOffset dy="-5"/>
<feComposite in2="hardAlpha" operator="arithmetic" k2="-1" k3="1"/>
<feColorMatrix type="matrix" values="0 0 0 0 0 0 0 0 0 0 0 0 0 0 0 0 0 0 0.24 0"/>
<feBlend mode="normal" in2="shape" result="effect1_innerShadow_850_8535"/>
</filter>
<filter id="filter1_i_850_8535" x="0" y="0" width="224.681" height="56" filterUnits="userSpaceOnUse" color-interpolation-filters="sRGB">
<feFlood flood-opacity="0" result="BackgroundImageFix"/>
<feBlend mode="normal" in="SourceGraphic" in2="BackgroundImageFix" result="shape"/>
<feColorMatrix in="SourceAlpha" type="matrix" values="0 0 0 0 0 0 0 0 0 0 0 0 0 0 0 0 0 0 127 0" result="hardAlpha"/>
<feOffset dy="-5"/>
<feComposite in2="hardAlpha" operator="arithmetic" k2="-1" k3="1"/>
<feColorMatrix type="matrix" values="0 0 0 0 0 0 0 0 0 0 0 0 0 0 0 0 0 0 0.24 0"/>
<feBlend mode="normal" in2="shape" result="effect1_innerShadow_850_8535"/>
</filter>
</defs><symbol id="icon-arrow" viewBox="0 0 20 20">
<path fill-rule="evenodd" clip-rule="evenodd" d="M7.3401 9.80273L14.2857 16.7483L12.9388 18.0952L4.64636 9.80273L12.9388 1.51025L14.2857 2.85712L7.3401 9.80273Z" fill="white"/>
</symbol><symbol id="icon-bookmark" viewBox="0 0 17 18">
<g opacity="0.6">
<path fill-rule="evenodd" clip-rule="evenodd" d="M2.32953 18L8.62054 14.9444L14.9116 18V1.74604C14.9116 0.781731 14.1068 0 13.1141 0H4.12696C3.13427 0 2.32953 0.781731 2.32953 1.74604V18ZM8.62054 12.9923L4.12696 15.1749V1.74606H13.1141V15.1749L8.62054 12.9923Z" fill="white"/>
</g>
</symbol><symbol id="icon-cart" viewBox="0 0 19 18">
<g opacity="0.6">
<path fill-rule="evenodd" clip-rule="evenodd" d="M4.11944 1.80229C3.9604 1.80194 3.80709 1.82003 3.6614 1.85443C3.46169 1.41204 3.19789 1.01515 2.89785 0.713604C2.38861 0.201799 1.58545 0 0.473633 0V1.8C1.15282 1.8 1.54367 1.8982 1.63142 1.9864C1.9699 2.32657 2.26464 3.01776 2.26464 3.6L2.27364 3.72728L3.15111 9.90046C1.68288 9.97702 0.54545 11.1229 0.474733 12.5554L0.473633 13.5C0.560336 14.9795 1.69398 16.1177 3.10931 16.1985L3.31261 16.1989C3.68109 17.2481 4.6765 18 5.84665 18C7.01637 18 8.01149 17.2487 8.38029 16.2H10.477C10.8458 17.2487 11.8409 18 13.0107 18C14.4944 18 15.6972 16.7912 15.6972 15.3C15.6972 13.8088 14.4944 12.6 13.0107 12.6C11.8409 12.6 10.8458 13.3513 10.477 14.4H8.38029C8.01149 13.3513 7.01637 12.6 5.84665 12.6C4.67692 12.6 3.68181 13.3513 3.31301 14.4H3.16014C2.70344 14.3725 2.29377 13.9612 2.26303 13.4461L2.26464 12.6C2.28878 12.1332 2.69565 11.7243 3.20452 11.6989L4.97236 11.6993L4.98517 11.7H14.0108L14.143 11.6578C14.822 11.4413 15.3655 10.9275 15.6229 10.2623L15.7172 10.0746L16.0237 9.46429C16.3408 8.83253 16.658 8.19968 16.967 7.58142C17.7239 6.06697 18.1999 5.1045 18.3053 4.86815C18.8467 3.65441 17.75 2.72022 16.6291 2.70032L4.11944 1.80229ZM13.6997 9.9H5.05222C4.99472 9.88393 4.9509 9.83498 4.94233 9.77401L4.06483 3.60066L16.4972 4.49543C16.2797 4.94129 15.8842 5.73764 15.3665 6.77348L15.3536 6.79944C15.058 7.39067 14.7414 8.02265 14.4247 8.65357L14.1185 9.26311L14.0025 9.49395L13.9588 9.596C13.912 9.72698 13.8191 9.83462 13.6997 9.9ZM13.0107 16.2C13.5052 16.2 13.9062 15.7971 13.9062 15.3C13.9062 14.8029 13.5052 14.4 13.0107 14.4C12.5161 14.4 12.1152 14.8029 12.1152 15.3C12.1152 15.7971 12.5161 16.2 13.0107 16.2ZM6.74215 15.3C6.74215 15.7971 6.34122 16.2 5.84665 16.2C5.35208 16.2 4.95115 15.7971 4.95115 15.3C4.95115 14.8029 5.35208 14.4 5.84665 14.4C6.34122 14.4 6.74215 14.8029 6.74215 15.3Z" fill="white"/>
</g>
</symbol><symbol id="icon-checkbox" viewBox="0 0 10 8">
<path fill-rule="evenodd" clip-rule="evenodd" d="M3.70711 4.58574L8 0.292847L9.41421 1.70706L3.70711 7.41417L0 3.70706L1.41421 2.29285L3.70711 4.58574Z" fill="#3D546F"/>
</symbol><symbol id="icon-close" viewBox="0 0 20 20"><path d="M.293 18.291a1 1 0 101.414 1.414L10 11.413l8.292 8.292a1 1 0 101.414-1.414l-8.292-8.292 8.292-8.292A1 1 0 1018.291.293L9.999 8.585 1.707.293A1 1 0 10.293 1.707L8.585 10 .293 18.291z"/></symbol><symbol id="icon-credit" viewBox="0 0 80 80">
<path d="M61.2401 10.3517V11.1096L43.0312 5.35958C41.958 5.01934 40.8231 4.91889 39.7068 5.06533C38.5904 5.21177 37.5198 5.60153 36.5707 6.20708L29.035 11.0026C28.1099 11.5883 27.3211 12.3655 26.7216 13.2817C26.1221 14.198 25.7259 15.232 25.5596 16.3142H8.77008C8.45381 16.3142 8.15049 16.4399 7.92685 16.6635C7.70322 16.8871 7.57758 17.1904 7.57758 17.5067V43.7417C7.57758 44.058 7.70322 44.3613 7.92685 44.5849C8.15049 44.8086 8.45381 44.9342 8.77008 44.9342H58.8551C59.1713 44.9342 59.4746 44.8086 59.6983 44.5849C59.9219 44.3613 60.0476 44.058 60.0476 43.7417V31.006C60.208 30.8852 60.3656 30.7588 60.5185 30.6242H61.2401V33.0092C61.2401 33.3255 61.3657 33.6288 61.5893 33.8524C61.813 34.0761 62.1163 34.2017 62.4326 34.2017H75.5501V31.8167H63.6251V11.5442H75.5501V9.15922H62.4326C62.1163 9.15922 61.813 9.28486 61.5893 9.5085C61.3657 9.73213 61.2401 10.0354 61.2401 10.3517ZM42.4489 36.5867C42.9227 36.5865 43.395 36.5328 43.8567 36.4267C42.2809 38.1101 41.2913 40.2576 41.0354 42.5492H35.0051V18.6992H35.908C36.6728 18.6992 37.4204 18.926 38.0563 19.3509C38.6922 19.7758 39.1878 20.3798 39.4805 21.0863C39.7731 21.7929 39.8497 22.5704 39.7005 23.3205C39.5512 24.0706 39.1829 24.7596 38.6421 25.3003L38.0282 25.914C37.1539 26.7884 36.5584 27.9024 36.3171 29.1151C36.0759 30.3279 36.1997 31.5849 36.6729 32.7273C37.1461 33.8697 37.9474 34.8462 38.9755 35.5331C40.0037 36.2201 41.2124 36.5867 42.4489 36.5867ZM50.5076 33.0771C49.6264 33.1747 48.761 33.382 47.9312 33.6941L50.5076 31.1178V33.0771ZM50.5076 35.4808V42.5492H43.4391C43.6993 40.767 44.5277 39.1165 45.8013 37.8429C47.0748 36.5694 48.7254 35.7409 50.5076 35.4808ZM32.6201 42.5492H27.8501V18.6992H32.6201V42.5492ZM25.4651 42.5492H19.4347C19.1608 40.1314 18.0748 37.8781 16.3543 36.1575C14.6337 34.4369 12.3804 33.351 9.96257 33.0771V28.1714C12.3804 27.8975 14.6337 26.8115 16.3543 25.0909C18.0748 23.3704 19.1608 21.117 19.4347 18.6992H25.4651V42.5492ZM17.031 18.6992C16.7709 20.4814 15.9424 22.132 14.6689 23.4055C13.3953 24.6791 11.7447 25.5075 9.96257 25.7677V18.6992H17.031ZM9.96257 35.4808C11.7447 35.7409 13.3953 36.5694 14.6689 37.8429C15.9424 39.1165 16.7709 40.767 17.031 42.5492H9.96257V35.4808ZM57.6626 42.5492H52.8926V32.2307C54.4455 32.7162 56.1096 32.7162 57.6626 32.2306V42.5492ZM60.0473 28.2394C59.7311 28.2394 59.4278 28.365 59.2042 28.5886C58.1619 29.6285 56.7496 30.2124 55.2773 30.2124C53.805 30.2124 52.3928 29.6283 51.3505 28.5884C51.1268 28.3649 50.8235 28.2393 50.5073 28.2393C50.191 28.2393 49.8878 28.3649 49.6641 28.5884L45.1831 33.0692C44.8241 33.4287 44.3978 33.7139 43.9286 33.9086C43.4593 34.1033 42.9563 34.2035 42.4482 34.2037C41.9402 34.2039 41.4371 34.104 40.9677 33.9096C40.4983 33.7153 40.0718 33.4304 39.7126 33.0711C39.3533 32.7119 39.0684 32.2854 38.8741 31.816C38.6798 31.3466 38.5798 30.8435 38.58 30.3354C38.5802 29.8274 38.6805 29.3244 38.8752 28.8551C39.0699 28.3859 39.3551 27.9596 39.7146 27.6006L40.3285 26.9869H40.3285C41.2029 26.1126 41.7984 24.9986 42.0396 23.7859C42.2809 22.5731 42.1571 21.3161 41.6839 20.1737C41.2108 19.0313 40.4095 18.0549 39.3814 17.3679C38.3533 16.6809 37.1445 16.3142 35.908 16.3142H27.9829C28.2939 14.9494 29.1325 13.7631 30.3154 13.0146L37.8511 8.21914C38.5066 7.80094 39.246 7.53178 40.017 7.43067C40.788 7.32955 41.5718 7.39895 42.313 7.63395L61.2401 13.6107V28.2394H60.0473Z" fill="#63A63E"/>
<path d="M11.155 74.7467V73.5542H14.7325C15.0488 73.5542 15.3521 73.4285 15.5757 73.2049C15.7994 72.9813 15.925 72.6779 15.925 72.3617V71.1014L16.0377 71.182C20.9573 74.6959 26.9639 76.3508 32.989 75.8522C39.0141 75.3535 44.6669 72.7337 48.9419 68.4588L57.9095 59.4912C58.8633 58.5376 59.4263 57.2621 59.4882 55.9148C59.5501 54.5675 59.1063 53.2457 58.2439 52.2087C57.3815 51.1717 56.1627 50.4944 54.8267 50.3096C53.4907 50.1248 52.1339 50.4459 51.0224 51.2099C50.701 50.5165 50.2103 49.915 49.5954 49.461C48.9806 49.007 48.2613 48.7151 47.504 48.6121C46.7466 48.5091 45.9755 48.5984 45.2617 48.8717C44.548 49.145 43.9144 49.5936 43.4196 50.1761C42.7967 49.803 42.0951 49.581 41.371 49.5278C40.6469 49.4746 39.9203 49.5918 39.2496 49.8699C38.5789 50.148 37.9827 50.5793 37.5087 51.1293C37.0347 51.6793 36.6961 52.3327 36.52 53.0371L35.2664 58.0517H28.344L27.5007 57.2084C26.0083 55.7165 24.0671 54.7561 21.9756 54.4751C19.8842 54.194 17.7583 54.6078 15.925 55.6529V54.4742C15.925 54.1579 15.7994 53.8546 15.5757 53.631C15.3521 53.4073 15.0488 53.2817 14.7325 53.2817H11.155C11.155 52.9654 11.0294 52.6621 10.8057 52.4385C10.5821 52.2148 10.2788 52.0892 9.9625 52.0892H4V54.4742H8.77V73.5542H4V75.9392H9.9625C10.2788 75.9392 10.5821 75.8135 10.8057 75.5899C11.0294 75.3663 11.155 75.0629 11.155 74.7467ZM46.3646 51.0201C46.6778 50.9418 47.0045 50.9344 47.3209 50.9983C47.6374 51.0623 47.9356 51.196 48.1938 51.3897C48.452 51.5835 48.6637 51.8324 48.8136 52.1184C48.9634 52.4044 49.0476 52.7201 49.0599 53.0427L40.7388 61.3638C40.6001 60.9326 40.4005 60.5234 40.146 60.1486L45.0296 52.0094C45.1757 51.7644 45.3689 51.5509 45.598 51.3811C45.8272 51.2113 46.0877 51.0886 46.3646 51.0201ZM38.8338 53.6156C38.9095 53.3128 39.047 53.029 39.2375 52.7818C39.4281 52.5347 39.6677 52.3296 39.9413 52.1794C40.2149 52.0293 40.5165 51.9372 40.8274 51.9092C41.1382 51.8811 41.4515 51.9175 41.7475 52.0162C41.8834 52.0618 42.0147 52.1201 42.1396 52.1903L38.3221 58.5528C38.1107 58.447 37.8916 58.3572 37.6667 58.2842L38.8338 53.6156ZM20.695 56.7743C21.6461 56.7717 22.5883 56.9578 23.4671 57.3218C24.3458 57.6858 25.1436 58.2205 25.8143 58.895L27.0068 60.0875C27.2304 60.3111 27.5337 60.4367 27.85 60.4367H36.1975C36.83 60.4367 37.4367 60.6879 37.8839 61.1352C38.3312 61.5825 38.5825 62.1891 38.5825 62.8217C38.5825 63.4542 38.3312 64.0609 37.8839 64.5081C37.4367 64.9554 36.83 65.2067 36.1975 65.2067H25.465V67.5917H36.1975C37.06 67.591 37.9062 67.3567 38.6462 66.9136C39.3862 66.4706 39.9923 65.8353 40.4002 65.0754L51.947 53.5287C52.5141 52.9622 53.283 52.6441 54.0846 52.6444C54.8862 52.6446 55.6549 52.9631 56.2217 53.5299C56.7885 54.0967 57.1071 54.8654 57.1073 55.667C57.1076 56.4686 56.7895 57.2375 56.223 57.8046L47.2555 66.7723C43.3797 70.648 38.2548 73.0232 32.7923 73.4753C27.3299 73.9274 21.8842 72.4271 17.424 69.2413L15.925 68.1705V58.57C17.2421 57.4087 18.939 56.7699 20.695 56.7743ZM13.54 55.6667V71.1692H11.155V55.6667H13.54Z" fill="#63A63E"/>
</symbol><symbol id="icon-delivery" viewBox="0 0 80 80">
<path d="M64.0203 30.0097H59.1972L60.6504 13.3249C60.653 13.2947 60.6535 13.2649 60.6536 13.2351C60.6536 13.2326 60.6539 13.2302 60.6539 13.2276C60.6539 13.2272 60.6539 13.2269 60.6539 13.2265C60.6539 12.7723 60.38 12.3721 59.9773 12.1981C59.9739 12.1966 59.9706 12.1948 59.9672 12.1933C59.9422 12.1828 59.9163 12.1738 59.8902 12.1651C59.8805 12.162 59.8712 12.1581 59.8615 12.1551C59.8403 12.1487 59.8184 12.1436 59.7967 12.1384C59.7815 12.1348 59.7668 12.1304 59.7514 12.1274C59.7324 12.1237 59.7126 12.1213 59.6932 12.1185C59.6749 12.1158 59.657 12.1126 59.6386 12.111C59.6354 12.1107 59.6326 12.1101 59.6294 12.1098C59.6097 12.108 59.5902 12.1083 59.5706 12.1075C59.5575 12.1071 59.5446 12.1056 59.5314 12.1056H59.5174C59.5162 12.1056 59.515 12.1056 59.5139 12.1056H36.5654C35.946 12.1056 35.4432 12.6083 35.4432 13.2278C35.4432 13.8458 35.946 14.35 36.5654 14.35H58.3082L56.0749 39.9924C56.0746 39.9943 56.0746 39.9963 56.0743 39.9982L55.5108 46.4683H16.5166L17.1688 39.7353H24.5934C25.2133 39.7353 25.7156 39.2329 25.7156 38.6131C25.7156 37.9934 25.2133 37.4909 24.5934 37.4909H17.3863L18.7635 23.2771H30.5803C31.2002 23.2771 31.7025 22.7746 31.7025 22.1549C31.7025 21.5351 31.2002 21.0327 30.5803 21.0327H18.9811L19.6287 14.35H32.0766C32.6946 14.35 33.1988 13.8458 33.1988 13.2278C33.1988 12.6083 32.6946 12.1056 32.0766 12.1056H18.6101C18.6095 12.1056 18.6091 12.1057 18.6085 12.1057C18.0814 12.1056 17.6241 12.4767 17.5135 12.9911C17.5128 12.9948 17.5114 12.9984 17.5107 13.0022C17.505 13.0301 17.5012 13.0587 17.4975 13.0874C17.4965 13.0966 17.4945 13.1053 17.4936 13.1144C17.4935 13.1162 17.493 13.1178 17.4929 13.1196L16.7262 21.0327H3.12221C2.5023 21.0327 2 21.5351 2 22.1549C2 22.7746 2.5023 23.2771 3.12221 23.2771H16.5086L15.1315 37.4909H11.1276C10.5077 37.4909 10.0054 37.9934 10.0054 38.6131C10.0054 39.2329 10.5077 39.7353 11.1276 39.7353H14.914L14.1641 47.4742C14.164 47.4754 14.164 47.4766 14.1638 47.4777L13.0043 59.4447C13.0042 59.4461 13.004 59.4475 13.0039 59.4487L13.0034 59.4531C13.002 59.4686 13.0021 59.4839 13.0012 59.4995C13.0002 59.5201 12.9981 59.5403 12.9981 59.5613C12.9981 59.5622 12.9982 59.5631 12.9982 59.5641C12.9982 59.593 13.0003 59.6214 13.0024 59.6498C13.0033 59.659 13.003 59.6683 13.004 59.6772C13.007 59.7063 13.012 59.7348 13.0172 59.7633C13.0187 59.7716 13.0195 59.7802 13.0211 59.7884C13.0254 59.8099 13.0316 59.8307 13.0373 59.8518C13.0412 59.8667 13.0443 59.8818 13.0488 59.8963C13.0501 59.9003 13.0519 59.9042 13.0531 59.9084C13.1074 60.0754 13.1996 60.2253 13.3199 60.3477C13.3222 60.35 13.324 60.3525 13.3262 60.3546C13.3382 60.3666 13.3512 60.3773 13.3638 60.3887C13.4411 60.4596 13.5285 60.5198 13.6241 60.5669C13.644 60.5768 13.6636 60.5871 13.684 60.5956C13.6901 60.5983 13.6967 60.6001 13.703 60.6025C13.7311 60.6137 13.7594 60.6245 13.7885 60.6336C13.7912 60.6344 13.7938 60.6348 13.7965 60.6357C13.8297 60.6456 13.8632 60.6543 13.8975 60.6613C13.902 60.6622 13.9066 60.6625 13.9109 60.6634C13.9436 60.6696 13.9763 60.6748 14.0097 60.6781C14.0104 60.6781 14.011 60.6782 14.0118 60.6784C14.0486 60.682 14.0851 60.6838 14.1213 60.6838C14.1218 60.6838 14.1224 60.6836 14.123 60.6836H19.1187C19.6704 64.8662 23.2562 68.1056 27.5872 68.1056C31.9178 68.1056 35.5037 64.8662 36.0553 60.6836H54.0554C54.6072 64.8662 58.1929 68.1056 62.5237 68.1056C66.8544 68.1056 70.4405 64.8662 70.9923 60.6836H75.9893C75.99 60.6836 75.9909 60.6838 75.9917 60.6838C76.0291 60.6838 76.0659 60.6815 76.1024 60.6779C76.109 60.6773 76.1152 60.676 76.1218 60.6752C76.151 60.6718 76.18 60.6678 76.2085 60.6621C76.2207 60.6597 76.2325 60.6564 76.2447 60.6535C76.2667 60.6485 76.2888 60.6431 76.3104 60.6366C76.325 60.6323 76.3392 60.6272 76.3536 60.6223C76.372 60.616 76.3904 60.6094 76.4085 60.6021C76.4241 60.5959 76.4389 60.5892 76.454 60.5825C76.4705 60.5748 76.4869 60.5671 76.5029 60.5588C76.5182 60.5511 76.5329 60.543 76.5475 60.5346C76.5629 60.5256 76.5782 60.5163 76.5933 60.5068C76.6074 60.4978 76.6214 60.4887 76.6349 60.4791C76.6502 60.4685 76.6647 60.4572 76.6795 60.4459C76.6918 60.4361 76.7042 60.4266 76.7161 60.4164C76.7316 60.4034 76.7461 60.3898 76.7607 60.3758C76.7709 60.3661 76.7815 60.3565 76.7914 60.3464C76.807 60.3305 76.8218 60.3137 76.8366 60.2968C76.8445 60.2877 76.8528 60.2789 76.8604 60.2696C76.8768 60.2493 76.8918 60.2283 76.9068 60.2072C76.9119 60.1999 76.9175 60.193 76.9225 60.1855C76.9407 60.1581 76.9579 60.13 76.9738 60.101C76.975 60.0992 76.9762 60.0975 76.9769 60.0956C76.9939 60.0645 77.0094 60.0326 77.0233 59.9997C77.0272 59.9902 77.0302 59.9805 77.034 59.9711C77.0431 59.9479 77.0521 59.9247 77.0597 59.9006C77.0646 59.8851 77.0682 59.8691 77.0726 59.8533C77.0775 59.8346 77.0827 59.8161 77.0869 59.7971C77.0907 59.7802 77.0931 59.7628 77.0959 59.7456C77.0984 59.7305 77.1017 59.7157 77.1037 59.7003C77.1513 59.319 78.03 52.2687 78.4225 47.7099C78.4229 47.7055 78.4231 47.7011 78.4235 47.6967C78.5365 46.3825 78.6089 45.2759 78.6089 44.5984C78.6089 36.5543 72.0645 30.0097 64.0203 30.0097ZM59.0016 32.2544H63.5926L63.0062 38.9871H58.4152L59.0016 32.2544ZM27.5875 65.861C24.1136 65.861 21.2874 63.0349 21.2874 59.5611C21.2874 56.0874 24.1137 53.2612 27.5875 53.2612C31.0612 53.2612 33.8874 56.0874 33.8874 59.5611C33.8874 63.0349 31.0612 65.861 27.5875 65.861ZM62.5237 65.861C59.0499 65.861 56.2239 63.0349 56.2239 59.5611C56.2239 56.0874 59.0501 53.2612 62.5237 53.2612C65.9976 53.2612 68.8237 56.0874 68.8237 59.5611C68.8237 63.0349 65.9976 65.861 62.5237 65.861ZM74.9977 58.4385H70.9926C70.4411 54.2556 66.8551 51.016 62.524 51.016C58.1932 51.016 54.6072 54.2558 54.0557 58.4385H36.0558C35.5043 54.2556 31.9184 51.016 27.5875 51.016C23.2565 51.016 19.6704 54.2558 19.1189 58.4385H15.3566L16.2991 48.7121H56.5392V48.7127C56.5398 48.7127 56.5402 48.7127 56.5408 48.7127C56.5784 48.7127 56.6156 48.7106 56.6525 48.7068C56.6593 48.7062 56.6661 48.7048 56.673 48.7039C56.7023 48.7004 56.7315 48.6962 56.7602 48.6905C56.7726 48.688 56.7847 48.6846 56.797 48.6816C56.8194 48.6762 56.8419 48.6709 56.8637 48.6644C56.8787 48.6599 56.8929 48.6545 56.9074 48.6494C56.9263 48.6428 56.9451 48.6364 56.9634 48.6289C56.9791 48.6225 56.9942 48.6153 57.0095 48.6081C57.0261 48.6005 57.0427 48.5928 57.0587 48.5845C57.074 48.5764 57.0889 48.5677 57.104 48.559C57.1194 48.55 57.1347 48.5409 57.1497 48.5313C57.1642 48.5219 57.1779 48.512 57.1919 48.5022C57.2067 48.4917 57.221 48.4809 57.2354 48.4697C57.2483 48.4594 57.261 48.4487 57.2736 48.4378C57.2878 48.4255 57.3017 48.413 57.3152 48.4C57.3265 48.389 57.3379 48.3778 57.349 48.3663C57.3624 48.3522 57.3755 48.3377 57.3883 48.3229C57.3983 48.3112 57.4082 48.2996 57.4178 48.2876C57.4302 48.2719 57.442 48.2557 57.4537 48.2394C57.4625 48.2271 57.4711 48.2149 57.4794 48.2023C57.4904 48.1854 57.5008 48.168 57.5109 48.1504C57.5185 48.1372 57.5263 48.124 57.5332 48.1106C57.5426 48.0929 57.5507 48.075 57.5592 48.0569C57.5658 48.0424 57.5725 48.0281 57.5785 48.0132C57.5858 47.9955 57.592 47.9774 57.5984 47.9593C57.6039 47.9433 57.6098 47.9273 57.6147 47.9108C57.6196 47.8935 57.6237 47.8757 57.6282 47.858C57.6325 47.8402 57.6373 47.8225 57.6407 47.8044C57.6442 47.7868 57.6463 47.7688 57.649 47.7509C57.6517 47.7323 57.6548 47.7141 57.6566 47.6952C57.6569 47.6925 57.6575 47.69 57.6577 47.6873L58.2201 41.2309H64.02C67.4582 41.2309 69.009 43.0123 70.6505 44.8985C72.0051 46.4548 73.5174 48.1912 76.088 48.6148C75.7615 52.0667 75.2338 56.4981 74.9977 58.4385ZM76.2798 46.3659C74.6122 46.026 73.5862 44.8536 72.3433 43.4256C70.7888 41.6398 68.8911 39.4605 65.2532 39.0544L65.8337 32.3888C71.7835 33.2687 76.3645 38.4081 76.3645 44.5987C76.3645 45.0193 76.3331 45.6304 76.2798 46.3659Z" fill="#63A63E"/>
<path d="M27.5875 55.4462C25.3187 55.4462 23.4727 57.292 23.4727 59.5609C23.4727 61.8299 25.3187 63.6757 27.5875 63.6757C29.8563 63.6757 31.7023 61.8299 31.7023 59.5609C31.7023 57.2921 29.8563 55.4462 27.5875 55.4462ZM27.5875 61.4313C26.5561 61.4313 25.7172 60.5923 25.7172 59.5609C25.7172 58.5295 26.5561 57.6906 27.5875 57.6906C28.6189 57.6906 29.4578 58.5295 29.4578 59.5609C29.4578 60.5923 28.6187 61.4313 27.5875 61.4313Z" fill="#63A63E"/>
<path d="M62.5237 55.4462C60.2549 55.4462 58.4089 57.292 58.4089 59.5609C58.4089 61.8299 60.2549 63.6757 62.5237 63.6757C64.7925 63.6757 66.6384 61.8299 66.6384 59.5609C66.6384 57.2921 64.7925 55.4462 62.5237 55.4462ZM62.5237 61.4313C61.4923 61.4313 60.6533 60.5923 60.6533 59.5609C60.6533 58.5295 61.4923 57.6906 62.5237 57.6906C63.555 57.6906 64.394 58.5295 64.394 59.5609C64.394 60.5923 63.555 61.4313 62.5237 61.4313Z" fill="#63A63E"/>
<path d="M12.6235 30.01H7.13725C6.51734 30.01 6.01505 30.5125 6.01505 31.1322C6.01505 31.752 6.51734 32.2544 7.13725 32.2544H12.6235C13.2434 32.2544 13.7457 31.752 13.7457 31.1322C13.7457 30.5125 13.2434 30.01 12.6235 30.01Z" fill="#63A63E"/>
</symbol><symbol id="icon-login" viewBox="0 0 17 16">
<path fill-rule="evenodd" clip-rule="evenodd" d="M9.26963 2H14.2611V14H9.26963V16H15.2611H16.2611V15V1V0H15.2611H9.26963V2ZM4.56773 3.7066L7.80624 6.94975H0.282471V8.94975H7.80624L4.56773 12.1929L5.98295 13.6061L10.9256 8.65635L11.6312 7.94975L10.9256 7.24315L5.98295 2.2934L4.56773 3.7066Z" fill="white"/>
</symbol><symbol id="icon-new" viewBox="0 0 70 70">
<mask id="mask0_2356_612" style="mask-type:alpha" maskUnits="userSpaceOnUse" x="0" y="0" width="70" height="70">
<rect width="70" height="70" fill="#C4C4C4"/>
</mask>
<g mask="url(#mask0_2356_612)">
<rect x="22.2133" y="-23" width="100" height="30" transform="rotate(45 22.2133 -23)" fill="#EE3643"/>
<path d="M37.4721 13.3346L38.0166 11.7012L37.9671 11.6517L37.0365 12.899L33.4232 16.5123L32.1363 15.2254L39.1154 8.24627L40.1054 9.23622L39.0362 15.5521L38.5016 17.136L38.5511 17.1855L39.452 15.9679L43.095 12.3249L44.3819 13.6118L37.4028 20.5909L36.4128 19.601L37.4721 13.3346ZM46.9863 16.2162L51.0946 20.3245L49.8869 21.5322L47.1348 18.7802L45.5212 20.3938L48.0258 22.8984L46.818 24.1061L44.3135 21.6015L42.6207 23.2943L45.4222 26.0959L44.2145 27.3036L40.0567 23.1458L46.9863 16.2162ZM51.5037 28.4749L50.4048 29.8311L50.4444 29.8707L51.8303 28.762L56.889 26.1188L57.7799 27.0098L55.0972 32.0684L54.0082 33.4346L54.0478 33.4742L55.4437 32.3753L60.136 29.3659L61.512 30.7419L52.6223 35.8104L51.7115 34.8997L54.325 29.8113L55.216 28.5838L55.1665 28.5343L53.929 29.4352L48.8605 32.0486L47.9002 31.0884L52.9787 22.2085L54.4537 23.6836L51.5037 28.4749Z" fill="white"/>
</g>
</symbol><symbol id="icon-phone" viewBox="0 0 17 16">
<path fill-rule="evenodd" clip-rule="evenodd" d="M7.52981 5.07037C7.9437 4.5118 8.09212 3.92312 7.62402 3.4035C6.57355 1.93151 5.86709 1.02124 5.42396 0.582879C4.58152 -0.250508 3.19568 -0.137779 2.46606 0.582167C2.07418 0.968857 1.94151 1.10165 1.53913 1.51094C-0.702188 3.75666 0.664684 8.50405 4.29833 12.1465C7.93115 15.788 12.6713 17.1576 14.9173 14.9071C15.2886 14.5487 15.603 14.2337 15.851 13.9712C16.566 13.2144 16.6745 11.8878 15.8462 11.026C15.4216 10.5841 14.5548 9.91082 13.0231 8.8136C12.554 8.39351 11.9977 8.48456 11.4878 8.8196C11.2425 8.98077 11.064 9.1438 10.7269 9.4817L10.1147 10.095C10.0341 10.1758 8.93937 9.62678 7.87667 8.56152C6.8134 7.49567 6.26552 6.3993 6.34577 6.31894L6.95831 5.70519C7.06526 5.59798 7.11639 5.54608 7.18196 5.47707C7.31857 5.33328 7.43168 5.2028 7.52981 5.07037ZM11.2439 11.2264L11.8561 10.6129C12.0416 10.427 12.1619 10.3126 12.2597 10.2338C13.6015 11.1988 14.3786 11.8055 14.696 12.1358C14.8866 12.3341 14.857 12.6959 14.6913 12.8713C14.462 13.1139 14.1642 13.4124 13.7986 13.7655C12.3463 15.2205 8.5199 14.115 5.4277 11.0153C2.33454 7.91469 1.2311 4.08227 2.67249 2.63803C3.07325 2.23042 3.20022 2.10333 3.58651 1.72216C3.73135 1.57924 4.12588 1.54715 4.30207 1.72145C4.64324 2.05895 5.27609 2.87043 6.20705 4.1691C6.15886 4.22902 6.09866 4.29673 6.02541 4.37383C5.97165 4.43042 5.92685 4.47589 5.82893 4.57405L5.21699 5.1872C4.17596 6.22964 5.06254 8.00381 6.74729 9.69263C8.43089 11.3803 10.2032 12.2691 11.2439 11.2264ZM9.76541 0.0556223C13.2191 0.474853 15.9577 3.21729 16.3763 6.67595L14.7982 6.93934C14.4935 4.15344 12.2843 1.94111 9.50239 1.63597L9.76541 0.0556223V0.0556223ZM9.23916 3.21767C11.3494 3.40668 13.03 5.08973 13.2187 7.20295L11.6356 7.46718C11.5684 6.02647 10.414 4.87037 8.9753 4.8031L9.23916 3.21767V3.21767Z" fill="#293449"/>
</symbol><symbol id="icon-search" viewBox="0 0 21 20">
<g opacity="0.3">
<path fill-rule="evenodd" clip-rule="evenodd" d="M8.48218 16C4.0702 16 0.493591 12.4183 0.493591 8C0.493591 3.58172 4.0702 0 8.48218 0C12.8942 0 16.4708 3.58172 16.4708 8C16.4708 9.84871 15.8446 11.551 14.793 12.9056L20.1726 18.2929L18.7604 19.7071L13.3808 14.3199C12.0281 15.3729 10.3283 16 8.48218 16ZM14.4736 8C14.4736 11.3137 11.7912 14 8.48218 14C5.1732 14 2.49074 11.3137 2.49074 8C2.49074 4.68629 5.1732 2 8.48218 2C11.7912 2 14.4736 4.68629 14.4736 8Z" fill="white"/>
</g>
</symbol><symbol id="icon-warranty" viewBox="0 0 80 80">
<path d="M70.5624 38.7887C65.8545 38.7887 61.4845 36.4505 58.8727 32.5321L57.9356 31.1265L56.9985 32.5321C54.3866 36.4505 50.0166 38.7887 45.3088 38.7887H41.0412V56.8498C41.0412 61.2153 43.0066 65.3184 46.2909 68.0722H23.0206V63.567H37.6624V43.2938H14.0103V52.3041H7.25258V7.25258H56.8093V27.5258H59.0619V5H5V53.8967L21.4281 70.3248H49.7531L57.9356 75L67.4527 69.5623C72.0029 66.9628 74.8299 62.0905 74.8299 56.8498V38.7887H70.5624ZM20.768 66.4796L8.84515 54.5567H20.768V66.4796ZM16.2629 52.3041V45.5464H35.4098V61.3145H23.0206V52.3041H16.2629ZM72.5773 56.8498C72.5773 61.2852 70.1851 65.4063 66.3354 67.607L57.9356 72.4073L49.5357 67.607C45.6861 65.4063 43.2938 61.2852 43.2938 56.8498V41.0413H45.3088C50.2419 41.0413 54.8552 38.8281 57.9356 35.0516C61.016 38.8281 65.6293 41.0413 70.5624 41.0413H72.5773V56.8498Z" fill="#63A63E"/>
<path d="M68.0722 50.0516V56.8499C68.0722 59.6724 66.5494 62.2955 64.0997 63.6955L65.217 65.6507C68.3673 63.8509 70.3248 60.4788 70.3248 56.8499V50.0516H68.0722Z" fill="#63A63E"/>
<path d="M11.7576 9.50513V16.2629H52.3041V9.50513H11.7576ZM50.0515 14.0103H14.0102V11.7577H50.0515V14.0103Z" fill="#63A63E"/>
<path d="M67.2759 43.6239L52.3041 58.5957L48.5953 54.8868L47.0027 56.4794L52.3041 61.7808L68.8685 45.2165L67.2759 43.6239Z" fill="#63A63E"/>
<path d="M33.1573 47.799H18.5155V50.0515H33.1573V47.799Z" fill="#63A63E"/>
<path d="M33.1572 52.3041H25.2732V54.5567H33.1572V52.3041Z" fill="#63A63E"/>
<path d="M33.1572 56.8092H25.2732V59.0618H33.1572V56.8092Z" fill="#63A63E"/>
<path d="M47.7989 20.7681H11.7576V23.0206H47.7989V20.7681Z" fill="#63A63E"/>
<path d="M47.7989 25.2732H11.7576V27.5258H47.7989V25.2732Z" fill="#63A63E"/>
<path d="M47.7989 29.7783H11.7576V32.0309H47.7989V29.7783Z" fill="#63A63E"/>
<path d="M33.1571 34.2834H11.7576V36.536H33.1571V34.2834Z" fill="#63A63E"/>
<path d="M33.1571 38.7887H11.7576V41.0413H33.1571V38.7887Z" fill="#63A63E"/>
<path d="M52.3041 20.7681H50.0515V23.0206H52.3041V20.7681Z" fill="#63A63E"/>
<path d="M52.3041 25.2732H50.0515V27.5258H52.3041V25.2732Z" fill="#63A63E"/>
<path d="M52.3041 29.7783H50.0515V32.0309H52.3041V29.7783Z" fill="#63A63E"/>
<path d="M37.6623 34.2834H35.4097V36.536H37.6623V34.2834Z" fill="#63A63E"/>
<path d="M37.6623 38.7887H35.4097V41.0413H37.6623V38.7887Z" fill="#63A63E"/>
</symbol><symbol id="logo-ok" viewBox="0 0 24 23">
<rect x="2.4" y="2.25" width="18" height="19.125" fill="white"/>
<path d="M21.1429 0H2.85714C1.28 0 0 1.2 0 2.67857V19.8214C0 21.3 1.28 22.5 2.85714 22.5H21.1429C22.72 22.5 24 21.3 24 19.8214V2.67857C24 1.2 22.72 0 21.1429 0ZM6.62286 17.9946L9.57143 15.225C8.58286 14.9679 7.64 14.5661 6.78286 14.0036C6.26857 13.6661 6.13714 13.0018 6.49714 12.5143C6.72 12.2143 7.07429 12.0536 7.44 12.0536C7.66286 12.0536 7.89143 12.1179 8.09143 12.2464C9.24 12.9964 10.5943 13.3929 12 13.3929C13.4114 13.3929 14.7657 12.9964 15.92 12.2411C16.1143 12.1125 16.3429 12.0482 16.5714 12.0482C16.9314 12.0482 17.2857 12.2089 17.5086 12.5089C17.8686 12.9911 17.7429 13.6607 17.2229 13.9982C16.3657 14.5607 15.4229 14.9679 14.4286 15.225L17.3771 17.9946C17.8286 18.4125 17.8286 19.0875 17.3771 19.5054C17.1543 19.7143 16.8629 19.8214 16.5714 19.8214C16.28 19.8214 15.9886 19.7143 15.7657 19.5054L12 15.9804L8.23429 19.5054C8.01143 19.7143 7.72 19.8214 7.42857 19.8214C7.13714 19.8214 6.84572 19.7143 6.62286 19.5054C6.17143 19.0875 6.17143 18.4125 6.62286 17.9946ZM12 11.25C9.47429 11.25 7.42857 9.33214 7.42857 6.96429C7.42857 4.59643 9.47429 2.67857 12 2.67857C14.5257 2.67857 16.5714 4.59643 16.5714 6.96429C16.5714 9.33214 14.5257 11.25 12 11.25Z" fill="#47556C"/>
<path d="M12 5.25009C11.4696 5.25009 10.9609 5.46081 10.5858 5.83588C10.2107 6.21095 10 6.71966 10 7.25009C10 7.78053 10.2107 8.28923 10.5858 8.66431C10.9609 9.03938 11.4696 9.25009 12 9.25009C12.5304 9.25009 13.0391 9.03938 13.4142 8.66431C13.7893 8.28923 14 7.78053 14 7.25009C14 6.71966 13.7893 6.21095 13.4142 5.83588C13.0391 5.46081 12.5304 5.25009 12 5.25009Z" fill="#47556C"/>
</symbol><symbol id="logo-twitter" viewBox="0 0 22 18">
<path d="M21.8 2.80737C21.0055 3.16069 20.0018 3.49116 19.1 3.60015C20.0158 3.05698 21.4695 1.92495 21.8 0.900146C20.9439 1.40288 19.3953 1.94077 18.3863 2.13413C17.5795 1.27983 16.4299 0.900146 15.1555 0.900146C12.7068 0.900146 11 2.97436 11 5.40015V7.20014C7.4 7.20014 3.88964 4.45796 1.70644 1.80015C1.32148 2.44878 1.10527 3.20815 1.10527 4.01147C1.10527 5.648 2.60996 7.30913 3.8 8.10014C3.07402 8.07729 1.69765 7.52358 1.1 7.20014C1.1 7.21421 1.1 7.23179 1.1 7.25112C1.1 9.38159 2.59414 10.8283 4.62089 11.2308C4.25175 11.3328 3.8 11.7001 2.06504 11.7001C2.62754 13.4421 5.46113 14.3615 7.4 14.4001C5.883 15.5761 3.17773 16.2001 1.1 16.2001C0.741403 16.2001 0.546286 16.2195 0.199997 16.179C2.15996 17.4218 4.89863 18.0001 7.4 18.0001C15.551 18.0001 20 11.774 20 5.96792C20 5.77632 19.993 5.13647 19.9842 4.95015C20.8543 4.33667 21.2076 3.69331 21.8 2.80737Z" fill="white"/>
</symbol><symbol id="logo-vk" viewBox="0 0 18 10">
<path d="M10.7607 7.67458C11.3982 7.46854 12.2143 9.03484 13.0832 9.63429C13.7353 10.0884 14.2347 9.99036 14.2347 9.99036L16.5505 9.95702C16.5505 9.95702 17.7607 9.88233 17.1886 8.92082C17.1413 8.8408 16.8532 8.20802 15.465 6.90577C14.0134 5.54351 14.2101 5.76421 15.9577 3.4091C17.0226 1.97349 17.4487 1.09666 17.3153 0.723252C17.1873 0.36385 16.4051 0.457202 16.4051 0.457202L13.796 0.475205C13.5419 0.475872 13.3266 0.554553 13.2285 0.818604C13.2265 0.821271 12.8145 1.92948 12.265 2.87166C11.1041 4.86471 10.6407 4.97073 10.4487 4.84604C10.0079 4.55732 10.1193 3.68782 10.1193 3.0697C10.1193 1.138 10.4073 0.332511 9.55517 0.124471C9.27045 0.0551248 9.06241 0.00978281 8.33627 0.00311487C7.40809 -0.0108878 6.61994 0.00311488 6.17319 0.22249C5.87646 0.371185 5.64909 0.697247 5.78711 0.715918C5.96048 0.739255 6.34922 0.822605 6.55726 1.10666C6.82465 1.47473 6.81664 2.29955 6.81664 2.29955C6.81664 2.29955 6.96934 4.57399 6.45658 4.85604C6.10451 5.04941 5.62308 4.65467 4.58755 2.84499C4.05878 1.91948 3.65938 0.896619 3.65938 0.896619C3.65938 0.896619 3.58203 0.706583 3.442 0.602563C3.2753 0.479206 3.04192 0.439865 3.04192 0.439865L0.565452 0.455868C0.565452 0.455868 0.193381 0.466537 0.0566878 0.630568C-0.0646687 0.775929 0.0466859 1.07599 0.0466859 1.07599C0.0466859 1.07599 1.98639 5.6642 4.18281 7.9753C6.19653 10.097 8.48496 9.95635 8.48496 9.95635H9.52183C9.52183 9.95635 9.83455 9.92034 9.99458 9.74831C10.1439 9.58828 10.1373 9.28755 10.1373 9.28755C10.1373 9.28755 10.1166 7.88129 10.7607 7.67458Z" fill="white"/>
</symbol><symbol id="logo" viewBox="0 0 225 56">
<g filter="url(#filter0_i_850_8535)">
<rect width="224.681" height="56" fill="#EE3643"/>
</g>
<mask id="mask0_850_8535" style="mask-type:alpha" maskUnits="userSpaceOnUse" x="0" y="0" width="225" height="56">
<rect width="224.681" height="56" fill="#EE3643"/>
</mask>
<g mask="url(#mask0_850_8535)">
<g filter="url(#filter1_i_850_8535)">
<rect width="224.681" height="56" fill="#EE3643"/>
</g>
</g>
<path fill-rule="evenodd" clip-rule="evenodd" d="M162.227 16.2739V33.8976H160.069V16.2739H156.233V14.3158H166.064V16.2739H162.227ZM153.919 26.6383C153.543 27.1885 153.072 27.5801 152.504 27.8133C151.937 28.0464 151.261 28.1629 150.478 28.1629C150.11 28.1629 149.695 28.135 149.231 28.079C148.768 28.0231 148.384 27.9578 148.08 27.8832V33.8976H145.922V14.5955C146.53 14.3903 147.141 14.2458 147.757 14.1619C148.372 14.078 149.039 14.036 149.759 14.036C150.718 14.036 151.533 14.1526 152.205 14.3857C152.876 14.6188 153.419 15.0058 153.835 15.5466C154.251 16.0874 154.554 16.8054 154.746 17.7006C154.938 18.5958 155.034 19.7054 155.034 21.0295C155.034 22.3909 154.942 23.5286 154.758 24.4424C154.574 25.3562 154.295 26.0882 153.919 26.6383ZM152.696 18.5119C152.576 17.8405 152.388 17.309 152.133 16.9173C151.877 16.5257 151.553 16.2506 151.161 16.0921C150.77 15.9336 150.302 15.8543 149.759 15.8543H148.08V26.2047H149.759C150.302 26.2047 150.77 26.1255 151.161 25.967C151.553 25.8084 151.877 25.5334 152.133 25.1417C152.388 24.7501 152.576 24.2186 152.696 23.5472C152.816 22.8758 152.876 22.0366 152.876 21.0295C152.876 20.0225 152.816 19.1832 152.696 18.5119ZM140.527 28.8623H135.732L134.653 33.8976H132.495L136.571 14.3158H139.688L143.764 33.8976H141.606L140.527 28.8623ZM138.178 17.1132H138.082L136.091 26.9041H140.168L138.178 17.1132ZM127.819 19.3511H127.699L124.222 31.38H122.064L118.588 19.3511H118.468L117.748 33.8976H115.59L116.55 14.3158H119.187L123.095 27.7433H123.191L127.1 14.3158H129.737L130.696 33.8976H128.538L127.819 19.3511ZM111.706 32.0793C111.258 32.8439 110.719 33.3848 110.088 33.7018C109.456 34.0188 108.733 34.1774 107.918 34.1774C107.102 34.1774 106.379 34.0188 105.748 33.7018C105.116 33.3848 104.577 32.8439 104.129 32.0793C103.681 31.3147 103.342 30.2843 103.11 28.9882C102.878 27.692 102.762 26.0649 102.762 24.1067C102.762 22.1485 102.878 20.5213 103.11 19.2252C103.342 17.9291 103.681 16.8987 104.129 16.1341C104.577 15.3694 105.116 14.8286 105.748 14.5116C106.379 14.1945 107.102 14.036 107.918 14.036C108.733 14.036 109.456 14.1945 110.088 14.5116C110.719 14.8286 111.258 15.3694 111.706 16.1341C112.154 16.8987 112.493 17.9291 112.725 19.2252C112.957 20.5213 113.073 22.1485 113.073 24.1067C113.073 26.0649 112.957 27.692 112.725 28.9882C112.493 30.2843 112.154 31.3147 111.706 32.0793ZM110.663 19.9665C110.495 18.8849 110.275 18.027 110.004 17.3929C109.732 16.7588 109.412 16.3206 109.044 16.0781C108.677 15.8357 108.301 15.7145 107.918 15.7145C107.534 15.7145 107.158 15.8357 106.791 16.0781C106.423 16.3206 106.103 16.7588 105.831 17.3929C105.56 18.027 105.34 18.8849 105.172 19.9665C105.004 21.0482 104.92 22.4282 104.92 24.1067C104.92 25.7851 105.004 27.1652 105.172 28.2469C105.34 29.3285 105.56 30.1864 105.831 30.8205C106.103 31.4546 106.423 31.8928 106.791 32.1353C107.158 32.3777 107.534 32.4989 107.918 32.4989C108.301 32.4989 108.677 32.3777 109.044 32.1353C109.412 31.8928 109.732 31.4546 110.004 30.8205C110.275 30.1864 110.495 29.3285 110.663 28.2469C110.831 27.1652 110.915 25.7851 110.915 24.1067C110.915 22.4282 110.831 21.0482 110.663 19.9665ZM97.727 24.9459H92.6916V33.8976H90.5336V14.3158H92.6916V22.9877H97.727V14.3158H99.885V33.8976H97.727V24.9459ZM86.3383 33.8976L83.3411 25.5054L80.3439 33.8976H78.1859L81.7825 23.8269L78.5455 14.3158H80.7035L83.3411 22.1485L85.9787 14.3158H88.1367L84.8996 23.8269L88.4963 33.8976H86.3383ZM68.7146 14.3158H76.8671V16.2739H70.8726V22.708H76.1478V24.6662H70.8726V31.9394H76.8671V33.8976H68.7146V14.3158ZM62.96 33.8976H60.802V16.2739H56.9655V14.3158H66.7964V16.2739H62.96V33.8976Z" fill="white"/>

</symbol></svg>