<svg id="icon-instrument" width="80" height="80" viewBox="0 0 80 80"  xmlns="http://www.w3.org/2000/svg">
<path d="M65.4486 8.06433H39.6567C38.1767 8.06433 36.9537 9.17378 36.7711 10.6031H33.0157C31.6347 10.6031 30.5112 11.7253 30.5112 13.1046V13.3112H26.5698C23.1561 13.3112 20.3162 15.8042 19.7778 19.0616H2.12202C1.50237 19.0616 1 19.5638 1 20.1836C1 20.8034 1.50237 21.3056 2.12202 21.3056H19.7778C20.3159 24.5653 23.156 27.0603 26.5698 27.0603H30.5112V27.2669C30.5112 28.6462 31.6347 29.7684 33.0157 29.7684H36.7711C36.9537 31.1977 38.1767 32.3071 39.6567 32.3071H41.3449C41.6204 34.1896 42.0539 37.2976 40.2442 40.1723C39.7756 40.9112 39.8989 41.4694 40.085 41.8075C40.2705 42.1448 40.6735 42.5468 41.5396 42.5468H46.2337L44.9165 55.8526H40.4666C36.2984 55.8526 32.9072 59.2354 32.9072 63.3935V69.0169C32.9072 70.0741 33.7682 70.9343 34.8265 70.9343H63.604C64.6623 70.9343 65.5232 70.0741 65.5232 69.0169V57.7701C65.5232 56.7128 64.6623 55.8526 63.604 55.8526H60.4939C60.5349 52.8852 60.7385 50.0536 61.1023 47.4219C61.1872 46.8079 60.7584 46.2415 60.1446 46.1567C59.5302 46.0722 58.9644 46.5008 58.8795 47.1145C58.5018 49.8467 58.2913 52.7817 58.25 55.8526H47.1715L48.5879 41.544C48.5882 41.5407 48.5885 41.5376 48.5888 41.5343L49.5023 32.307H63.4771C61.8904 35.1747 60.6855 38.3926 59.8149 42.0854C59.6726 42.6885 60.0463 43.2927 60.6495 43.435C60.7361 43.4555 60.8227 43.4652 60.908 43.4652C61.4167 43.4652 61.8773 43.1169 61.9991 42.6004C62.9363 38.6248 64.2745 35.2458 66.0817 32.2905C72.4871 31.9608 77.5968 26.6565 77.5968 20.1836C77.5965 13.501 72.1469 8.06433 65.4486 8.06433ZM26.5698 24.8161C24.0107 24.8161 21.9286 22.7378 21.9286 20.1835C21.9286 17.6314 24.0107 15.5551 26.5698 15.5551H30.5112V24.8159H26.5698V24.8161ZM32.7552 27.2666V25.9379V14.4331V13.1044C32.7552 12.9625 32.8721 12.847 33.0157 12.847H36.7451V27.5239H33.0157C32.8745 27.524 32.7552 27.4061 32.7552 27.2666ZM63.2791 68.6901H35.1511V63.3933C35.1511 60.4726 37.5356 58.0965 40.4665 58.0965H42.084V60.3935C42.084 62.5165 44.4075 64.5155 46.2084 64.5155H63.2789V68.6901H63.2791ZM63.2791 58.0965V62.2713H46.2085C45.648 62.2713 44.3282 61.2892 44.3282 60.3933V58.0963H45.9313C45.9324 58.0963 45.9332 58.0965 45.9343 58.0965C45.9353 58.0965 45.9364 58.0963 45.9374 58.0963H63.2791V58.0965ZM46.4557 40.3025H42.7322C44.2018 37.248 43.8803 34.1947 43.6122 32.3068H47.2471L46.4557 40.3025ZM65.4486 30.0628H60.8754V23.2216C60.8754 22.6018 60.373 22.0996 59.7534 22.0996C59.1337 22.0996 58.6314 22.6018 58.6314 23.2216V30.0628H48.4822C48.4817 30.0628 48.4813 30.0628 48.4807 30.0628H39.6567C39.2948 30.0628 38.9892 29.7589 38.9892 29.3991V28.646V11.7251V10.972C38.9892 10.6124 39.2948 10.3084 39.6567 10.3084H58.6314V18.0509C58.6314 18.6707 59.1337 19.1729 59.7534 19.1729C60.373 19.1729 60.8754 18.6707 60.8754 18.0509V10.3084H65.4486C70.9095 10.3084 75.3524 14.7382 75.3524 20.1835C75.3524 25.631 70.9095 30.0628 65.4486 30.0628Z" />
<path d="M64.63 17.4535C64.0103 17.4535 63.508 17.9557 63.508 18.5755V21.7914C63.508 22.4112 64.0103 22.9134 64.63 22.9134C65.2496 22.9134 65.752 22.4112 65.752 21.7914V18.5755C65.752 17.9557 65.2496 17.4535 64.63 17.4535Z" />
<path d="M69.5873 17.4535C68.9676 17.4535 68.4652 17.9557 68.4652 18.5755V21.7914C68.4652 22.4112 68.9676 22.9134 69.5873 22.9134C70.2069 22.9134 70.7093 22.4112 70.7093 21.7914V18.5755C70.7093 17.9557 70.2069 17.4535 69.5873 17.4535Z" />
<path d="M50.7375 13.0868H45.6826C43.5487 13.0868 41.8125 14.8202 41.8125 16.9507C41.8125 19.0812 43.5485 20.8145 45.6826 20.8145H50.7375C52.8692 20.8145 54.6032 19.0812 54.6032 16.9507C54.6032 14.8202 52.869 13.0868 50.7375 13.0868ZM50.7375 18.5705H45.6826C44.786 18.5705 44.0566 17.8438 44.0566 16.9507C44.0566 16.0574 44.7859 15.3308 45.6826 15.3308H50.7375C51.6318 15.3308 52.3592 16.0574 52.3592 16.9507C52.3592 17.8438 51.6317 18.5705 50.7375 18.5705Z" />
</svg>
