<svg width="80" height="80" viewBox="0 0 80 80" id="icon-paints"  xmlns="http://www.w3.org/2000/svg">
<path d="M70.6 16.2H62.6667V13.9333C62.664 13.0324 62.3049 12.1692 61.6679 11.5321C61.0308 10.8951 60.1676 10.536 59.2667 10.5333H51.3333V7.13333C51.3333 6.83275 51.2139 6.54449 51.0014 6.33195C50.7888 6.1194 50.5006 6 50.2 6H7.13333C6.83275 6 6.54449 6.1194 6.33195 6.33195C6.1194 6.54449 6 6.83275 6 7.13333V70.6C6 70.9006 6.1194 71.1889 6.33195 71.4014C6.54449 71.6139 6.83275 71.7333 7.13333 71.7333H41.3373C41.5726 72.3938 42.0056 72.9657 42.5775 73.3713C43.1493 73.7769 43.8323 73.9964 44.5333 74H51.3333C52.2342 73.9973 53.0975 73.6382 53.7345 73.0012C54.3716 72.3642 54.7306 71.5009 54.7333 70.6V51.3333H55.8667C56.1672 51.3333 56.4555 51.2139 56.6681 51.0014C56.8806 50.7888 57 50.5006 57 50.2V45.6667C57 45.3661 56.8806 45.0778 56.6681 44.8653C56.4555 44.6527 56.1672 44.5333 55.8667 44.5333H51.3333V40H70.6C71.5009 39.9973 72.3642 39.6382 73.0012 39.0012C73.6382 38.3642 73.9973 37.5009 74 36.6V19.6C73.9973 18.6991 73.6382 17.8358 73.0012 17.1988C72.3642 16.5618 71.5009 16.2027 70.6 16.2ZM62.6667 25.2667V23H67.2V33.2H51.3333V28.6667H59.2667C60.1676 28.664 61.0308 28.3049 61.6679 27.6679C62.3049 27.0308 62.664 26.1676 62.6667 25.2667ZM59.2667 12.8C59.5672 12.8 59.8555 12.9194 60.0681 13.1319C60.2806 13.3445 60.4 13.6328 60.4 13.9333V25.2667C60.4 25.5672 60.2806 25.8555 60.0681 26.0681C59.8555 26.2806 59.5672 26.4 59.2667 26.4H18.4667C18.1661 26.4 17.8778 26.2806 17.6653 26.0681C17.4527 25.8555 17.3333 25.5672 17.3333 25.2667V13.9333C17.3333 13.6328 17.4527 13.3445 17.6653 13.1319C17.8778 12.9194 18.1661 12.8 18.4667 12.8H59.2667ZM34.3333 29.8C33.4324 29.8027 32.5692 30.1618 31.9321 30.7988C31.2951 31.4359 30.936 32.2991 30.9333 33.2V41.1333C30.9333 41.4339 30.8139 41.7222 30.6014 41.9347C30.3888 42.1473 30.1006 42.2667 29.8 42.2667C29.4994 42.2667 29.2112 42.1473 28.9986 41.9347C28.7861 41.7222 28.6667 41.4339 28.6667 41.1333V37.7333C28.6667 36.8316 28.3085 35.9668 27.6708 35.3292C27.0332 34.6915 26.1684 34.3333 25.2667 34.3333C24.3649 34.3333 23.5001 34.6915 22.8625 35.3292C22.2249 35.9668 21.8667 36.8316 21.8667 37.7333V50.2C21.8667 50.5006 21.7473 50.7888 21.5347 51.0014C21.3222 51.2139 21.0339 51.3333 20.7333 51.3333C20.4328 51.3333 20.1445 51.2139 19.9319 51.0014C19.7194 50.7888 19.6 50.5006 19.6 50.2V28.6667H40V37.7333C40 38.0339 39.8806 38.3222 39.6681 38.5347C39.4555 38.7473 39.1672 38.8667 38.8667 38.8667C38.5661 38.8667 38.2778 38.7473 38.0653 38.5347C37.8527 38.3222 37.7333 38.0339 37.7333 37.7333V33.2C37.7306 32.2991 37.3716 31.4359 36.7345 30.7988C36.0975 30.1618 35.2342 29.8027 34.3333 29.8ZM41.1333 69.4667H8.26667V8.26667H49.0667V10.5333H18.4667C17.5658 10.536 16.7025 10.8951 16.0655 11.5321C15.4284 12.1692 15.0694 13.0324 15.0667 13.9333V16.2H13.9333C13.3327 16.2018 12.7572 16.4412 12.3325 16.8659C11.9078 17.2906 11.6685 17.8661 11.6667 18.4667V20.7333C11.6685 21.3339 11.9078 21.9094 12.3325 22.3341C12.7572 22.7588 13.3327 22.9982 13.9333 23H15.0667V25.2667C15.0703 25.9677 15.2898 26.6507 15.6954 27.2225C16.101 27.7944 16.6729 28.2274 17.3333 28.4627V50.2C17.3333 51.1017 17.6915 51.9665 18.3292 52.6042C18.9668 53.2418 19.8316 53.6 20.7333 53.6C21.6351 53.6 22.4999 53.2418 23.1375 52.6042C23.7751 51.9665 24.1333 51.1017 24.1333 50.2V37.7333C24.1333 37.4328 24.2527 37.1445 24.4653 36.9319C24.6778 36.7194 24.9661 36.6 25.2667 36.6C25.5672 36.6 25.8555 36.7194 26.0681 36.9319C26.2806 37.1445 26.4 37.4328 26.4 37.7333V41.1333C26.4 42.0351 26.7582 42.8999 27.3958 43.5375C28.0335 44.1751 28.8983 44.5333 29.8 44.5333C30.7017 44.5333 31.5665 44.1751 32.2042 43.5375C32.8418 42.8999 33.2 42.0351 33.2 41.1333V33.2C33.2 32.8994 33.3194 32.6112 33.5319 32.3986C33.7445 32.1861 34.0328 32.0667 34.3333 32.0667C34.6339 32.0667 34.9222 32.1861 35.1347 32.3986C35.3473 32.6112 35.4667 32.8994 35.4667 33.2V37.7333C35.4667 38.6351 35.8249 39.4999 36.4625 40.1375C37.1001 40.7751 37.9649 41.1333 38.8667 41.1333C39.7684 41.1333 40.6332 40.7751 41.2708 40.1375C41.9085 39.4999 42.2667 38.6351 42.2667 37.7333V28.6667H49.0667V33.2H47.9333C47.0324 33.2027 46.1692 33.5618 45.5321 34.1988C44.8951 34.8358 44.536 35.6991 44.5333 36.6V44.5333H40C39.6994 44.5333 39.4112 44.6527 39.1986 44.8653C38.9861 45.0778 38.8667 45.3661 38.8667 45.6667V50.2C38.8667 50.5006 38.9861 50.7888 39.1986 51.0014C39.4112 51.2139 39.6994 51.3333 40 51.3333H41.1333V69.4667ZM15.0667 18.4667V20.7333H13.9333V18.4667H15.0667ZM52.4667 70.6C52.4667 70.9006 52.3473 71.1889 52.1347 71.4014C51.9222 71.6139 51.6339 71.7333 51.3333 71.7333H44.5333C44.2328 71.7333 43.9445 71.6139 43.7319 71.4014C43.5194 71.1889 43.4 70.9006 43.4 70.6V51.3333H52.4667V70.6ZM54.7333 46.8V49.0667H41.1333V46.8H54.7333ZM71.7333 36.6C71.7333 36.9006 71.6139 37.1888 71.4014 37.4014C71.1889 37.6139 70.9006 37.7333 70.6 37.7333H51.3333C50.7327 37.7351 50.1572 37.9745 49.7325 38.3992C49.3078 38.8239 49.0685 39.3994 49.0667 40V44.5333H46.8V36.6C46.8 36.2994 46.9194 36.0112 47.1319 35.7986C47.3445 35.5861 47.6328 35.4667 47.9333 35.4667H67.2C67.8006 35.4649 68.3761 35.2255 68.8008 34.8008C69.2255 34.3761 69.4649 33.8006 69.4667 33.2V23C69.4649 22.3994 69.2255 21.8239 68.8008 21.3992C68.3761 20.9745 67.8006 20.7351 67.2 20.7333H62.6667V18.4667H70.6C70.9006 18.4667 71.1889 18.5861 71.4014 18.7986C71.6139 19.0112 71.7333 19.2994 71.7333 19.6V36.6Z" />
<path d="M20.7333 55.8667C20.0608 55.8667 19.4035 56.0661 18.8443 56.4397C18.2852 56.8133 17.8494 57.3443 17.5921 57.9656C17.3348 58.5868 17.2674 59.2705 17.3986 59.93C17.5298 60.5895 17.8536 61.1954 18.3291 61.6709C18.8046 62.1464 19.4104 62.4702 20.07 62.6014C20.7295 62.7326 21.4131 62.6652 22.0344 62.4079C22.6557 62.1506 23.1867 61.7148 23.5603 61.1556C23.9339 60.5965 24.1333 59.9392 24.1333 59.2667C24.1333 58.365 23.7751 57.5002 23.1374 56.8625C22.4998 56.2249 21.635 55.8667 20.7333 55.8667ZM20.7333 60.4C20.5091 60.4 20.29 60.3336 20.1036 60.209C19.9173 60.0845 19.772 59.9075 19.6862 59.7004C19.6004 59.4933 19.578 59.2654 19.6217 59.0456C19.6655 58.8258 19.7734 58.6238 19.9319 58.4653C20.0904 58.3068 20.2923 58.1989 20.5122 58.1551C20.732 58.1114 20.9599 58.1339 21.167 58.2196C21.3741 58.3054 21.5511 58.4507 21.6756 58.6371C21.8001 58.8234 21.8666 59.0425 21.8666 59.2667C21.8666 59.5673 21.7472 59.8555 21.5347 60.0681C21.3221 60.2806 21.0339 60.4 20.7333 60.4Z" />
<path d="M29.8 46.8C29.1276 46.8 28.4702 46.9995 27.9111 47.3731C27.352 47.7467 26.9162 48.2777 26.6588 48.8989C26.4015 49.5202 26.3342 50.2038 26.4654 50.8634C26.5965 51.5229 26.9204 52.1287 27.3959 52.6042C27.8714 53.0797 28.4772 53.4035 29.1367 53.5347C29.7963 53.6659 30.4799 53.5986 31.1011 53.3412C31.7224 53.0839 32.2534 52.6481 32.627 52.089C33.0006 51.5299 33.2 50.8725 33.2 50.2001C33.2 49.2983 32.8418 48.4335 32.2042 47.7959C31.5666 47.1583 30.7018 46.8 29.8 46.8ZM29.8 51.3334C29.5759 51.3334 29.3568 51.2669 29.1704 51.1424C28.984 51.0179 28.8387 50.8408 28.753 50.6338C28.6672 50.4267 28.6447 50.1988 28.6885 49.9789C28.7322 49.7591 28.8401 49.5572 28.9986 49.3987C29.1571 49.2402 29.3591 49.1322 29.5789 49.0885C29.7988 49.0448 30.0266 49.0672 30.2337 49.153C30.4408 49.2388 30.6178 49.384 30.7424 49.5704C30.8669 49.7568 30.9334 49.9759 30.9334 50.2001C30.9334 50.5006 30.814 50.7889 30.6014 51.0014C30.3889 51.214 30.1006 51.3334 29.8 51.3334Z" />
<path d="M19.6 16.2C19.6 16.5006 19.7194 16.7888 19.9319 17.0014C20.1445 17.2139 20.4327 17.3333 20.7333 17.3333H51.3333C51.6339 17.3333 51.9222 17.2139 52.1347 17.0014C52.3472 16.7888 52.4666 16.5006 52.4666 16.2C52.4666 15.8994 52.3472 15.6111 52.1347 15.3986C51.9222 15.1861 51.6339 15.0667 51.3333 15.0667H20.7333C20.4327 15.0667 20.1445 15.1861 19.9319 15.3986C19.7194 15.6111 19.6 15.8994 19.6 16.2Z" />
<path d="M55.8666 17.3333H56.9999C57.3005 17.3333 57.5888 17.2139 57.8013 17.0014C58.0139 16.7888 58.1333 16.5006 58.1333 16.2C58.1333 15.8994 58.0139 15.6111 57.8013 15.3986C57.5888 15.1861 57.3005 15.0667 56.9999 15.0667H55.8666C55.566 15.0667 55.2778 15.1861 55.0652 15.3986C54.8527 15.6111 54.7333 15.8994 54.7333 16.2C54.7333 16.5006 54.8527 16.7888 55.0652 17.0014C55.2778 17.2139 55.566 17.3333 55.8666 17.3333Z" />
</svg>
