<svg id="icon-cart" width="20" height="20" viewBox="0 0 20 20" fill="none" xmlns="http://www.w3.org/2000/svg">
<path fill-rule="evenodd" clip-rule="evenodd" d="M4.05671 2.00254C3.87974 2.00216 3.70915 2.02226 3.54704 2.06048C3.32482 1.56893 3.03129 1.12794 2.69744 0.792893C2.1308 0.224221 1.23712 0 0 0V2C0.755739 2 1.19063 2.10911 1.28828 2.20711C1.6649 2.58508 1.99286 3.35306 1.99286 4L2.00287 4.14142L2.97924 11.0005C1.34553 11.0856 0.0799112 12.3588 0.00122419 13.9504L0 15C0.0964754 16.6439 1.35789 17.9085 2.93273 17.9984L3.15894 17.9987C3.56894 19.1646 4.67655 20 5.97857 20C7.28012 20 8.38739 19.1652 8.79776 18H11.1308C11.5412 19.1652 12.6484 20 13.95 20C15.6009 20 16.9393 18.6569 16.9393 17C16.9393 15.3431 15.6009 14 13.95 14C12.6484 14 11.5412 14.8348 11.1308 16H8.79776C8.38739 14.8348 7.28012 14 5.97857 14C4.67702 14 3.56975 14.8348 3.15938 16H2.98929C2.48112 15.9694 2.02528 15.5124 1.99107 14.9401L1.99286 14C2.01973 13.4813 2.47245 13.027 3.03866 12.9988L5.00575 12.9993L5.02001 13H15.0629L15.2099 12.9532C15.9654 12.7126 16.5703 12.1416 16.8566 11.4025L16.9616 11.194L17.3026 10.5159C17.6555 9.81392 18.0083 9.11076 18.3522 8.4238C19.1944 6.74107 19.7241 5.67166 19.8414 5.40906C20.4438 4.06045 19.2235 3.02246 17.9763 3.00036L4.05671 2.00254ZM14.7167 11H5.09461C5.03063 10.9822 4.98187 10.9278 4.97233 10.86L3.99593 4.00073L17.8295 4.99493C17.5874 5.49032 17.1474 6.37516 16.5714 7.52609L16.5569 7.55493C16.2281 8.21186 15.8757 8.91405 15.5234 9.61507L15.1827 10.2923L15.0536 10.5488L15.005 10.6622C14.9529 10.8078 14.8496 10.9274 14.7167 11ZM13.95 18C14.5003 18 14.9464 17.5523 14.9464 17C14.9464 16.4477 14.5003 16 13.95 16C13.3997 16 12.9536 16.4477 12.9536 17C12.9536 17.5523 13.3997 18 13.95 18ZM6.975 17C6.975 17.5523 6.52888 18 5.97857 18C5.42826 18 4.98214 17.5523 4.98214 17C4.98214 16.4477 5.42826 16 5.97857 16C6.52888 16 6.975 16.4477 6.975 17Z" />
</svg>
