<svg id="icon-warranty" width="80" height="80" viewBox="0 0 80 80" fill="none" xmlns="http://www.w3.org/2000/svg">
<path d="M70.5624 38.7887C65.8545 38.7887 61.4845 36.4505 58.8727 32.5321L57.9356 31.1265L56.9985 32.5321C54.3866 36.4505 50.0166 38.7887 45.3088 38.7887H41.0412V56.8498C41.0412 61.2153 43.0066 65.3184 46.2909 68.0722H23.0206V63.567H37.6624V43.2938H14.0103V52.3041H7.25258V7.25258H56.8093V27.5258H59.0619V5H5V53.8967L21.4281 70.3248H49.7531L57.9356 75L67.4527 69.5623C72.0029 66.9628 74.8299 62.0905 74.8299 56.8498V38.7887H70.5624ZM20.768 66.4796L8.84515 54.5567H20.768V66.4796ZM16.2629 52.3041V45.5464H35.4098V61.3145H23.0206V52.3041H16.2629ZM72.5773 56.8498C72.5773 61.2852 70.1851 65.4063 66.3354 67.607L57.9356 72.4073L49.5357 67.607C45.6861 65.4063 43.2938 61.2852 43.2938 56.8498V41.0413H45.3088C50.2419 41.0413 54.8552 38.8281 57.9356 35.0516C61.016 38.8281 65.6293 41.0413 70.5624 41.0413H72.5773V56.8498Z"/>
<path d="M68.0722 50.0516V56.8499C68.0722 59.6724 66.5494 62.2955 64.0997 63.6955L65.217 65.6507C68.3673 63.8509 70.3248 60.4788 70.3248 56.8499V50.0516H68.0722Z"/>
<path d="M11.7576 9.50513V16.2629H52.3041V9.50513H11.7576ZM50.0515 14.0103H14.0102V11.7577H50.0515V14.0103Z"/>
<path d="M67.2759 43.6239L52.3041 58.5957L48.5953 54.8868L47.0027 56.4794L52.3041 61.7808L68.8685 45.2165L67.2759 43.6239Z"/>
<path d="M33.1573 47.799H18.5155V50.0515H33.1573V47.799Z"/>
<path d="M33.1572 52.3041H25.2732V54.5567H33.1572V52.3041Z"/>
<path d="M33.1572 56.8092H25.2732V59.0618H33.1572V56.8092Z"/>
<path d="M47.7989 20.7681H11.7576V23.0206H47.7989V20.7681Z"/>
<path d="M47.7989 25.2732H11.7576V27.5258H47.7989V25.2732Z"/>
<path d="M47.7989 29.7783H11.7576V32.0309H47.7989V29.7783Z"/>
<path d="M33.1571 34.2834H11.7576V36.536H33.1571V34.2834Z"/>
<path d="M33.1571 38.7887H11.7576V41.0413H33.1571V38.7887Z"/>
<path d="M52.3041 20.7681H50.0515V23.0206H52.3041V20.7681Z"/>
<path d="M52.3041 25.2732H50.0515V27.5258H52.3041V25.2732Z"/>
<path d="M52.3041 29.7783H50.0515V32.0309H52.3041V29.7783Z"/>
<path d="M37.6623 34.2834H35.4097V36.536H37.6623V34.2834Z"/>
<path d="M37.6623 38.7887H35.4097V41.0413H37.6623V38.7887Z"/>
</svg>
