<svg id="icon-credit" width="80" height="80" viewBox="0 0 80 80" fill="none" xmlns="http://www.w3.org/2000/svg">
<path d="M61.2401 10.3517V11.1096L43.0312 5.35958C41.958 5.01934 40.8231 4.91889 39.7068 5.06533C38.5904 5.21177 37.5198 5.60153 36.5707 6.20708L29.035 11.0026C28.1099 11.5883 27.3211 12.3655 26.7216 13.2817C26.1221 14.198 25.7259 15.232 25.5596 16.3142H8.77008C8.45381 16.3142 8.15049 16.4399 7.92685 16.6635C7.70322 16.8871 7.57758 17.1904 7.57758 17.5067V43.7417C7.57758 44.058 7.70322 44.3613 7.92685 44.5849C8.15049 44.8086 8.45381 44.9342 8.77008 44.9342H58.8551C59.1713 44.9342 59.4746 44.8086 59.6983 44.5849C59.9219 44.3613 60.0476 44.058 60.0476 43.7417V31.006C60.208 30.8852 60.3656 30.7588 60.5185 30.6242H61.2401V33.0092C61.2401 33.3255 61.3657 33.6288 61.5893 33.8524C61.813 34.0761 62.1163 34.2017 62.4326 34.2017H75.5501V31.8167H63.6251V11.5442H75.5501V9.15922H62.4326C62.1163 9.15922 61.813 9.28486 61.5893 9.5085C61.3657 9.73213 61.2401 10.0354 61.2401 10.3517ZM42.4489 36.5867C42.9227 36.5865 43.395 36.5328 43.8567 36.4267C42.2809 38.1101 41.2913 40.2576 41.0354 42.5492H35.0051V18.6992H35.908C36.6728 18.6992 37.4204 18.926 38.0563 19.3509C38.6922 19.7758 39.1878 20.3798 39.4805 21.0863C39.7731 21.7929 39.8497 22.5704 39.7005 23.3205C39.5512 24.0706 39.1829 24.7596 38.6421 25.3003L38.0282 25.914C37.1539 26.7884 36.5584 27.9024 36.3171 29.1151C36.0759 30.3279 36.1997 31.5849 36.6729 32.7273C37.1461 33.8697 37.9474 34.8462 38.9755 35.5331C40.0037 36.2201 41.2124 36.5867 42.4489 36.5867ZM50.5076 33.0771C49.6264 33.1747 48.761 33.382 47.9312 33.6941L50.5076 31.1178V33.0771ZM50.5076 35.4808V42.5492H43.4391C43.6993 40.767 44.5277 39.1165 45.8013 37.8429C47.0748 36.5694 48.7254 35.7409 50.5076 35.4808ZM32.6201 42.5492H27.8501V18.6992H32.6201V42.5492ZM25.4651 42.5492H19.4347C19.1608 40.1314 18.0748 37.8781 16.3543 36.1575C14.6337 34.4369 12.3804 33.351 9.96257 33.0771V28.1714C12.3804 27.8975 14.6337 26.8115 16.3543 25.0909C18.0748 23.3704 19.1608 21.117 19.4347 18.6992H25.4651V42.5492ZM17.031 18.6992C16.7709 20.4814 15.9424 22.132 14.6689 23.4055C13.3953 24.6791 11.7447 25.5075 9.96257 25.7677V18.6992H17.031ZM9.96257 35.4808C11.7447 35.7409 13.3953 36.5694 14.6689 37.8429C15.9424 39.1165 16.7709 40.767 17.031 42.5492H9.96257V35.4808ZM57.6626 42.5492H52.8926V32.2307C54.4455 32.7162 56.1096 32.7162 57.6626 32.2306V42.5492ZM60.0473 28.2394C59.7311 28.2394 59.4278 28.365 59.2042 28.5886C58.1619 29.6285 56.7496 30.2124 55.2773 30.2124C53.805 30.2124 52.3928 29.6283 51.3505 28.5884C51.1268 28.3649 50.8235 28.2393 50.5073 28.2393C50.191 28.2393 49.8878 28.3649 49.6641 28.5884L45.1831 33.0692C44.8241 33.4287 44.3978 33.7139 43.9286 33.9086C43.4593 34.1033 42.9563 34.2035 42.4482 34.2037C41.9402 34.2039 41.4371 34.104 40.9677 33.9096C40.4983 33.7153 40.0718 33.4304 39.7126 33.0711C39.3533 32.7119 39.0684 32.2854 38.8741 31.816C38.6798 31.3466 38.5798 30.8435 38.58 30.3354C38.5802 29.8274 38.6805 29.3244 38.8752 28.8551C39.0699 28.3859 39.3551 27.9596 39.7146 27.6006L40.3285 26.9869H40.3285C41.2029 26.1126 41.7984 24.9986 42.0396 23.7859C42.2809 22.5731 42.1571 21.3161 41.6839 20.1737C41.2108 19.0313 40.4095 18.0549 39.3814 17.3679C38.3533 16.6809 37.1445 16.3142 35.908 16.3142H27.9829C28.2939 14.9494 29.1325 13.7631 30.3154 13.0146L37.8511 8.21914C38.5066 7.80094 39.246 7.53178 40.017 7.43067C40.788 7.32955 41.5718 7.39895 42.313 7.63395L61.2401 13.6107V28.2394H60.0473Z" fill="#63A63E"/>
<path d="M11.155 74.7467V73.5542H14.7325C15.0488 73.5542 15.3521 73.4285 15.5757 73.2049C15.7994 72.9813 15.925 72.6779 15.925 72.3617V71.1014L16.0377 71.182C20.9573 74.6959 26.9639 76.3508 32.989 75.8522C39.0141 75.3535 44.6669 72.7337 48.9419 68.4588L57.9095 59.4912C58.8633 58.5376 59.4263 57.2621 59.4882 55.9148C59.5501 54.5675 59.1063 53.2457 58.2439 52.2087C57.3815 51.1717 56.1627 50.4944 54.8267 50.3096C53.4907 50.1248 52.1339 50.4459 51.0224 51.2099C50.701 50.5165 50.2103 49.915 49.5954 49.461C48.9806 49.007 48.2613 48.7151 47.504 48.6121C46.7466 48.5091 45.9755 48.5984 45.2617 48.8717C44.548 49.145 43.9144 49.5936 43.4196 50.1761C42.7967 49.803 42.0951 49.581 41.371 49.5278C40.6469 49.4746 39.9203 49.5918 39.2496 49.8699C38.5789 50.148 37.9827 50.5793 37.5087 51.1293C37.0347 51.6793 36.6961 52.3327 36.52 53.0371L35.2664 58.0517H28.344L27.5007 57.2084C26.0083 55.7165 24.0671 54.7561 21.9756 54.4751C19.8842 54.194 17.7583 54.6078 15.925 55.6529V54.4742C15.925 54.1579 15.7994 53.8546 15.5757 53.631C15.3521 53.4073 15.0488 53.2817 14.7325 53.2817H11.155C11.155 52.9654 11.0294 52.6621 10.8057 52.4385C10.5821 52.2148 10.2788 52.0892 9.9625 52.0892H4V54.4742H8.77V73.5542H4V75.9392H9.9625C10.2788 75.9392 10.5821 75.8135 10.8057 75.5899C11.0294 75.3663 11.155 75.0629 11.155 74.7467ZM46.3646 51.0201C46.6778 50.9418 47.0045 50.9344 47.3209 50.9983C47.6374 51.0623 47.9356 51.196 48.1938 51.3897C48.452 51.5835 48.6637 51.8324 48.8136 52.1184C48.9634 52.4044 49.0476 52.7201 49.0599 53.0427L40.7388 61.3638C40.6001 60.9326 40.4005 60.5234 40.146 60.1486L45.0296 52.0094C45.1757 51.7644 45.3689 51.5509 45.598 51.3811C45.8272 51.2113 46.0877 51.0886 46.3646 51.0201ZM38.8338 53.6156C38.9095 53.3128 39.047 53.029 39.2375 52.7818C39.4281 52.5347 39.6677 52.3296 39.9413 52.1794C40.2149 52.0293 40.5165 51.9372 40.8274 51.9092C41.1382 51.8811 41.4515 51.9175 41.7475 52.0162C41.8834 52.0618 42.0147 52.1201 42.1396 52.1903L38.3221 58.5528C38.1107 58.447 37.8916 58.3572 37.6667 58.2842L38.8338 53.6156ZM20.695 56.7743C21.6461 56.7717 22.5883 56.9578 23.4671 57.3218C24.3458 57.6858 25.1436 58.2205 25.8143 58.895L27.0068 60.0875C27.2304 60.3111 27.5337 60.4367 27.85 60.4367H36.1975C36.83 60.4367 37.4367 60.6879 37.8839 61.1352C38.3312 61.5825 38.5825 62.1891 38.5825 62.8217C38.5825 63.4542 38.3312 64.0609 37.8839 64.5081C37.4367 64.9554 36.83 65.2067 36.1975 65.2067H25.465V67.5917H36.1975C37.06 67.591 37.9062 67.3567 38.6462 66.9136C39.3862 66.4706 39.9923 65.8353 40.4002 65.0754L51.947 53.5287C52.5141 52.9622 53.283 52.6441 54.0846 52.6444C54.8862 52.6446 55.6549 52.9631 56.2217 53.5299C56.7885 54.0967 57.1071 54.8654 57.1073 55.667C57.1076 56.4686 56.7895 57.2375 56.223 57.8046L47.2555 66.7723C43.3797 70.648 38.2548 73.0232 32.7923 73.4753C27.3299 73.9274 21.8842 72.4271 17.424 69.2413L15.925 68.1705V58.57C17.2421 57.4087 18.939 56.7699 20.695 56.7743ZM13.54 55.6667V71.1692H11.155V55.6667H13.54Z" fill="#63A63E"/>
</svg>
