<svg width="225" height="56" id="logo" viewBox="0 0 225 56"  xmlns="http://www.w3.org/2000/svg">
<g filter="url(#filter0_i_850_8535)">
<rect width="224.681" height="56" fill="#EE3643"/>
</g>
<mask id="mask0_850_8535" style="mask-type:alpha" maskUnits="userSpaceOnUse" x="0" y="0" width="225" height="56">
<rect width="224.681" height="56" fill="#EE3643"/>
</mask>
<g mask="url(#mask0_850_8535)">
<g filter="url(#filter1_i_850_8535)">
<rect width="224.681" height="56" fill="#EE3643"/>
</g>
</g>
<path fill-rule="evenodd" clip-rule="evenodd" d="M162.227 16.2739V33.8976H160.069V16.2739H156.233V14.3158H166.064V16.2739H162.227ZM153.919 26.6383C153.543 27.1885 153.072 27.5801 152.504 27.8133C151.937 28.0464 151.261 28.1629 150.478 28.1629C150.11 28.1629 149.695 28.135 149.231 28.079C148.768 28.0231 148.384 27.9578 148.08 27.8832V33.8976H145.922V14.5955C146.53 14.3903 147.141 14.2458 147.757 14.1619C148.372 14.078 149.039 14.036 149.759 14.036C150.718 14.036 151.533 14.1526 152.205 14.3857C152.876 14.6188 153.419 15.0058 153.835 15.5466C154.251 16.0874 154.554 16.8054 154.746 17.7006C154.938 18.5958 155.034 19.7054 155.034 21.0295C155.034 22.3909 154.942 23.5286 154.758 24.4424C154.574 25.3562 154.295 26.0882 153.919 26.6383ZM152.696 18.5119C152.576 17.8405 152.388 17.309 152.133 16.9173C151.877 16.5257 151.553 16.2506 151.161 16.0921C150.77 15.9336 150.302 15.8543 149.759 15.8543H148.08V26.2047H149.759C150.302 26.2047 150.77 26.1255 151.161 25.967C151.553 25.8084 151.877 25.5334 152.133 25.1417C152.388 24.7501 152.576 24.2186 152.696 23.5472C152.816 22.8758 152.876 22.0366 152.876 21.0295C152.876 20.0225 152.816 19.1832 152.696 18.5119ZM140.527 28.8623H135.732L134.653 33.8976H132.495L136.571 14.3158H139.688L143.764 33.8976H141.606L140.527 28.8623ZM138.178 17.1132H138.082L136.091 26.9041H140.168L138.178 17.1132ZM127.819 19.3511H127.699L124.222 31.38H122.064L118.588 19.3511H118.468L117.748 33.8976H115.59L116.55 14.3158H119.187L123.095 27.7433H123.191L127.1 14.3158H129.737L130.696 33.8976H128.538L127.819 19.3511ZM111.706 32.0793C111.258 32.8439 110.719 33.3848 110.088 33.7018C109.456 34.0188 108.733 34.1774 107.918 34.1774C107.102 34.1774 106.379 34.0188 105.748 33.7018C105.116 33.3848 104.577 32.8439 104.129 32.0793C103.681 31.3147 103.342 30.2843 103.11 28.9882C102.878 27.692 102.762 26.0649 102.762 24.1067C102.762 22.1485 102.878 20.5213 103.11 19.2252C103.342 17.9291 103.681 16.8987 104.129 16.1341C104.577 15.3694 105.116 14.8286 105.748 14.5116C106.379 14.1945 107.102 14.036 107.918 14.036C108.733 14.036 109.456 14.1945 110.088 14.5116C110.719 14.8286 111.258 15.3694 111.706 16.1341C112.154 16.8987 112.493 17.9291 112.725 19.2252C112.957 20.5213 113.073 22.1485 113.073 24.1067C113.073 26.0649 112.957 27.692 112.725 28.9882C112.493 30.2843 112.154 31.3147 111.706 32.0793ZM110.663 19.9665C110.495 18.8849 110.275 18.027 110.004 17.3929C109.732 16.7588 109.412 16.3206 109.044 16.0781C108.677 15.8357 108.301 15.7145 107.918 15.7145C107.534 15.7145 107.158 15.8357 106.791 16.0781C106.423 16.3206 106.103 16.7588 105.831 17.3929C105.56 18.027 105.34 18.8849 105.172 19.9665C105.004 21.0482 104.92 22.4282 104.92 24.1067C104.92 25.7851 105.004 27.1652 105.172 28.2469C105.34 29.3285 105.56 30.1864 105.831 30.8205C106.103 31.4546 106.423 31.8928 106.791 32.1353C107.158 32.3777 107.534 32.4989 107.918 32.4989C108.301 32.4989 108.677 32.3777 109.044 32.1353C109.412 31.8928 109.732 31.4546 110.004 30.8205C110.275 30.1864 110.495 29.3285 110.663 28.2469C110.831 27.1652 110.915 25.7851 110.915 24.1067C110.915 22.4282 110.831 21.0482 110.663 19.9665ZM97.727 24.9459H92.6916V33.8976H90.5336V14.3158H92.6916V22.9877H97.727V14.3158H99.885V33.8976H97.727V24.9459ZM86.3383 33.8976L83.3411 25.5054L80.3439 33.8976H78.1859L81.7825 23.8269L78.5455 14.3158H80.7035L83.3411 22.1485L85.9787 14.3158H88.1367L84.8996 23.8269L88.4963 33.8976H86.3383ZM68.7146 14.3158H76.8671V16.2739H70.8726V22.708H76.1478V24.6662H70.8726V31.9394H76.8671V33.8976H68.7146V14.3158ZM62.96 33.8976H60.802V16.2739H56.9655V14.3158H66.7964V16.2739H62.96V33.8976Z" fill="white"/>
<defs>
<filter id="filter0_i_850_8535" x="0" y="0" width="224.681" height="56" filterUnits="userSpaceOnUse" color-interpolation-filters="sRGB">
<feFlood flood-opacity="0" result="BackgroundImageFix"/>
<feBlend mode="normal" in="SourceGraphic" in2="BackgroundImageFix" result="shape"/>
<feColorMatrix in="SourceAlpha" type="matrix" values="0 0 0 0 0 0 0 0 0 0 0 0 0 0 0 0 0 0 127 0" result="hardAlpha"/>
<feOffset dy="-5"/>
<feComposite in2="hardAlpha" operator="arithmetic" k2="-1" k3="1"/>
<feColorMatrix type="matrix" values="0 0 0 0 0 0 0 0 0 0 0 0 0 0 0 0 0 0 0.24 0"/>
<feBlend mode="normal" in2="shape" result="effect1_innerShadow_850_8535"/>
</filter>
<filter id="filter1_i_850_8535" x="0" y="0" width="224.681" height="56" filterUnits="userSpaceOnUse" color-interpolation-filters="sRGB">
<feFlood flood-opacity="0" result="BackgroundImageFix"/>
<feBlend mode="normal" in="SourceGraphic" in2="BackgroundImageFix" result="shape"/>
<feColorMatrix in="SourceAlpha" type="matrix" values="0 0 0 0 0 0 0 0 0 0 0 0 0 0 0 0 0 0 127 0" result="hardAlpha"/>
<feOffset dy="-5"/>
<feComposite in2="hardAlpha" operator="arithmetic" k2="-1" k3="1"/>
<feColorMatrix type="matrix" values="0 0 0 0 0 0 0 0 0 0 0 0 0 0 0 0 0 0 0.24 0"/>
<feBlend mode="normal" in2="shape" result="effect1_innerShadow_850_8535"/>
</filter>
</defs>
</svg>
