<svg id="logo-ok" width="24" height="23" viewBox="0 0 24 23"  xmlns="http://www.w3.org/2000/svg">
<rect x="2.4" y="2.25" width="18" height="19.125" fill="white"/>
<path d="M21.1429 0H2.85714C1.28 0 0 1.2 0 2.67857V19.8214C0 21.3 1.28 22.5 2.85714 22.5H21.1429C22.72 22.5 24 21.3 24 19.8214V2.67857C24 1.2 22.72 0 21.1429 0ZM6.62286 17.9946L9.57143 15.225C8.58286 14.9679 7.64 14.5661 6.78286 14.0036C6.26857 13.6661 6.13714 13.0018 6.49714 12.5143C6.72 12.2143 7.07429 12.0536 7.44 12.0536C7.66286 12.0536 7.89143 12.1179 8.09143 12.2464C9.24 12.9964 10.5943 13.3929 12 13.3929C13.4114 13.3929 14.7657 12.9964 15.92 12.2411C16.1143 12.1125 16.3429 12.0482 16.5714 12.0482C16.9314 12.0482 17.2857 12.2089 17.5086 12.5089C17.8686 12.9911 17.7429 13.6607 17.2229 13.9982C16.3657 14.5607 15.4229 14.9679 14.4286 15.225L17.3771 17.9946C17.8286 18.4125 17.8286 19.0875 17.3771 19.5054C17.1543 19.7143 16.8629 19.8214 16.5714 19.8214C16.28 19.8214 15.9886 19.7143 15.7657 19.5054L12 15.9804L8.23429 19.5054C8.01143 19.7143 7.72 19.8214 7.42857 19.8214C7.13714 19.8214 6.84572 19.7143 6.62286 19.5054C6.17143 19.0875 6.17143 18.4125 6.62286 17.9946ZM12 11.25C9.47429 11.25 7.42857 9.33214 7.42857 6.96429C7.42857 4.59643 9.47429 2.67857 12 2.67857C14.5257 2.67857 16.5714 4.59643 16.5714 6.96429C16.5714 9.33214 14.5257 11.25 12 11.25Z" fill="#47556C"/>
<path d="M12 5.25009C11.4696 5.25009 10.9609 5.46081 10.5858 5.83588C10.2107 6.21095 10 6.71966 10 7.25009C10 7.78053 10.2107 8.28923 10.5858 8.66431C10.9609 9.03938 11.4696 9.25009 12 9.25009C12.5304 9.25009 13.0391 9.03938 13.4142 8.66431C13.7893 8.28923 14 7.78053 14 7.25009C14 6.71966 13.7893 6.21095 13.4142 5.83588C13.0391 5.46081 12.5304 5.25009 12 5.25009Z" fill="#47556C"/>
</svg>
