<svg id="logo-ok" width="36" height="36" viewBox="0 0 36 36" fill="none" xmlns="http://www.w3.org/2000/svg">
<rect x="5" y="4" width="23" height="29" fill="white"/>
<path d="M29.5199 2.88H6.47988C4.49268 2.88 2.87988 4.4928 2.87988 6.48V29.52C2.87988 31.5072 4.49268 33.12 6.47988 33.12H29.5199C31.5071 33.12 33.1199 31.5072 33.1199 29.52V6.48C33.1199 4.4928 31.5071 2.88 29.5199 2.88ZM11.2247 27.0648L14.9399 23.3424C13.6943 22.9968 12.5063 22.4568 11.4263 21.7008C10.7783 21.2472 10.6127 20.3544 11.0663 19.6992C11.3471 19.296 11.7935 19.08 12.2543 19.08C12.5351 19.08 12.8231 19.1664 13.0751 19.3392C14.5223 20.3472 16.2287 20.88 17.9999 20.88C19.7783 20.88 21.4847 20.3472 22.9391 19.332C23.1839 19.1592 23.4719 19.0728 23.7599 19.0728C24.2135 19.0728 24.6599 19.2888 24.9407 19.692C25.3943 20.34 25.2359 21.24 24.5807 21.6936C23.5007 22.4496 22.3127 22.9968 21.0599 23.3424L24.7751 27.0648C25.3439 27.6264 25.3439 28.5336 24.7751 29.0952C24.4943 29.376 24.1271 29.52 23.7599 29.52C23.3927 29.52 23.0255 29.376 22.7447 29.0952L17.9999 24.3576L13.2551 29.0952C12.9743 29.376 12.6071 29.52 12.2399 29.52C11.8727 29.52 11.5055 29.376 11.2247 29.0952C10.6559 28.5336 10.6559 27.6264 11.2247 27.0648ZM17.9999 18C14.8175 18 12.2399 15.4224 12.2399 12.24C12.2399 9.0576 14.8175 6.48 17.9999 6.48C21.1823 6.48 23.7599 9.0576 23.7599 12.24C23.7599 15.4224 21.1823 18 17.9999 18Z" fill="#47556C"/>
<path d="M18.0001 9.35999C17.2363 9.35999 16.5038 9.66341 15.9637 10.2035C15.4235 10.7436 15.1201 11.4762 15.1201 12.24C15.1201 13.0038 15.4235 13.7363 15.9637 14.2765C16.5038 14.8166 17.2363 15.12 18.0001 15.12C18.7639 15.12 19.4965 14.8166 20.0366 14.2765C20.5767 13.7363 20.8801 13.0038 20.8801 12.24C20.8801 11.4762 20.5767 10.7436 20.0366 10.2035C19.4965 9.66341 18.7639 9.35999 18.0001 9.35999Z" fill="#47556C"/>
</svg>
