<svg id="icon-cart" width="40" height="41" viewBox="0 0 40 41" fill="none" xmlns="http://www.w3.org/2000/svg">
<rect y="0.903931" width="40" height="40" rx="2" fill="#63A63E"/>
<path fill-rule="evenodd" clip-rule="evenodd" d="M14.651 12.7062C14.4918 12.7059 14.3382 12.724 14.1923 12.7584C13.9923 12.316 13.7282 11.9191 13.4277 11.6175C12.9177 11.1057 12.1134 10.9039 11 10.9039V12.7039C11.6802 12.7039 12.0716 12.8021 12.1594 12.8903C12.4984 13.2305 12.7936 13.9217 12.7936 14.5039L12.8026 14.6312L13.6813 20.8044C12.211 20.8809 11.0719 22.0269 11.0011 23.4593L11 24.4039C11.0868 25.8835 12.2221 27.0216 13.6395 27.1025L13.843 27.1028C14.2121 28.1521 15.2089 28.9039 16.3807 28.9039C17.5521 28.9039 18.5487 28.1526 18.918 27.1039H21.0177C21.3871 28.1526 22.3836 28.9039 23.555 28.9039C25.0408 28.9039 26.2454 27.6951 26.2454 26.2039C26.2454 24.7128 25.0408 23.5039 23.555 23.5039C22.3836 23.5039 21.3871 24.2553 21.0177 25.3039H18.918C18.5487 24.2553 17.5521 23.5039 16.3807 23.5039C15.2093 23.5039 14.2128 24.2553 13.8434 25.3039H13.6904C13.233 25.2764 12.8227 24.8651 12.792 24.35L12.7936 23.5039C12.8178 23.0371 13.2252 22.6282 13.7348 22.6028L15.5052 22.6033L15.518 22.6039H24.5566L24.6889 22.5618C25.3689 22.3452 25.9132 21.8314 26.1709 21.1662L26.2654 20.9785L26.5724 20.3682C26.8899 19.7365 27.2075 19.1036 27.517 18.4854C28.275 16.9709 28.7517 16.0084 28.8573 15.7721C29.3994 14.5583 28.3012 13.6241 27.1786 13.6043L14.651 12.7062ZM24.245 20.8039H15.5851C15.5276 20.7879 15.4837 20.7389 15.4751 20.6779L14.5963 14.5046L27.0465 15.3994C26.8287 15.8452 26.4327 16.6416 25.9142 17.6774L25.9012 17.7034C25.6053 18.2946 25.2882 18.9266 24.971 19.5575L24.6645 20.167L24.5482 20.3979L24.5045 20.4999C24.4577 20.6309 24.3646 20.7385 24.245 20.8039ZM23.555 27.1039C24.0503 27.1039 24.4518 26.701 24.4518 26.2039C24.4518 25.7069 24.0503 25.3039 23.555 25.3039C23.0597 25.3039 22.6582 25.7069 22.6582 26.2039C22.6582 26.701 23.0597 27.1039 23.555 27.1039ZM17.2775 26.2039C17.2775 26.701 16.876 27.1039 16.3807 27.1039C15.8854 27.1039 15.4839 26.701 15.4839 26.2039C15.4839 25.7069 15.8854 25.3039 16.3807 25.3039C16.876 25.3039 17.2775 25.7069 17.2775 26.2039Z" fill="white"/>
</svg>
