<svg width="40" height="40" viewBox="0 0 40 40" fill="none" xmlns="http://www.w3.org/2000/svg">
<rect width="40" height="40" rx="2" fill="#63A63E"/>
<path fill-rule="evenodd" clip-rule="evenodd" d="M14.651 11.8023C14.4918 11.8019 14.3382 11.82 14.1923 11.8544C13.9923 11.412 13.7282 11.0151 13.4277 10.7136C12.9177 10.2018 12.1134 10 11 10V11.8C11.6802 11.8 12.0716 11.8982 12.1594 11.9864C12.4984 12.3266 12.7936 13.0178 12.7936 13.6L12.8026 13.7273L13.6813 19.9005C12.211 19.977 11.0719 21.1229 11.0011 22.5554L11 23.5C11.0868 24.9795 12.2221 26.1177 13.6395 26.1985L13.843 26.1989C14.2121 27.2481 15.2089 28 16.3807 28C17.5521 28 18.5487 27.2487 18.918 26.2H21.0177C21.3871 27.2487 22.3836 28 23.555 28C25.0408 28 26.2454 26.7912 26.2454 25.3C26.2454 23.8088 25.0408 22.6 23.555 22.6C22.3836 22.6 21.3871 23.3513 21.0177 24.4H18.918C18.5487 23.3513 17.5521 22.6 16.3807 22.6C15.2093 22.6 14.2128 23.3513 13.8434 24.4H13.6904C13.233 24.3725 12.8227 23.9612 12.792 23.4461L12.7936 22.6C12.8178 22.1332 13.2252 21.7243 13.7348 21.6989L15.5052 21.6993L15.518 21.7H24.5566L24.6889 21.6578C25.3689 21.4413 25.9132 20.9275 26.1709 20.2623L26.2654 20.0746L26.5724 19.4643C26.8899 18.8325 27.2075 18.1997 27.517 17.5814C28.275 16.067 28.7517 15.1045 28.8573 14.8682C29.3994 13.6544 28.3012 12.7202 27.1786 12.7003L14.651 11.8023ZM24.245 19.9H15.5851C15.5276 19.8839 15.4837 19.835 15.4751 19.774L14.5963 13.6007L27.0465 14.4954C26.8287 14.9413 26.4327 15.7376 25.9142 16.7735L25.9012 16.7994C25.6053 17.3907 25.2882 18.0226 24.971 18.6536L24.6645 19.2631L24.5482 19.494L24.5045 19.596C24.4577 19.727 24.3646 19.8346 24.245 19.9ZM23.555 26.2C24.0503 26.2 24.4518 25.7971 24.4518 25.3C24.4518 24.8029 24.0503 24.4 23.555 24.4C23.0597 24.4 22.6582 24.8029 22.6582 25.3C22.6582 25.7971 23.0597 26.2 23.555 26.2ZM17.2775 25.3C17.2775 25.7971 16.876 26.2 16.3807 26.2C15.8854 26.2 15.4839 25.7971 15.4839 25.3C15.4839 24.8029 15.8854 24.4 16.3807 24.4C16.876 24.4 17.2775 24.8029 17.2775 25.3Z" fill="white"/>
</svg>
