<svg id="icon-sale" width="80" height="80" viewBox="0 0 80 80"  xmlns="http://www.w3.org/2000/svg">
<path d="M72.9876 17.8025H70.0145L70.0174 12.4874C70.0191 8.91914 67.118 6.0145 63.5491 6.01276L40.9849 6C40.9838 6 40.9832 6 40.982 6C39.6977 6 38.4899 6.50006 37.5814 7.40852L3.89524 41.0947C2.67293 42.317 2 43.9419 2 45.6706C2 47.3994 2.67293 49.0243 3.89524 50.2466L25.7563 72.1077C27.0181 73.3694 28.6755 74 30.3323 74C31.9897 74 33.647 73.3694 34.9088 72.1077L56.1178 50.8986C56.6979 50.3185 56.6979 49.3782 56.1178 48.7986C55.5377 48.2185 54.5973 48.2185 54.0172 48.7986L32.8082 70.0076C31.4432 71.3727 29.2219 71.3727 27.8569 70.0076L5.99584 48.1466C5.3345 47.4852 4.97019 46.6058 4.97019 45.6706C4.97019 44.7355 5.3345 43.856 5.99584 43.1947L39.6814 9.50912C40.0289 9.16163 40.4907 8.97019 40.982 8.97019H40.9832L63.5474 8.98295C65.478 8.98354 67.0484 10.5556 67.0472 12.4863L67.0402 24.9309H60.3509C59.7749 24.9309 59.2534 24.6954 58.8763 24.316C59.4976 24.0497 60.08 23.6651 60.5865 23.1587C62.7207 21.0238 62.7207 17.5513 60.5865 15.417C58.4516 13.2822 54.9791 13.2822 52.8442 15.417C50.71 17.5513 50.71 21.0238 52.8442 23.1587C53.6355 23.9499 54.6113 24.4471 55.634 24.6519C56.3609 26.5494 58.2004 27.9011 60.3509 27.9011H67.0385L67.0344 35.0203C67.0344 35.5116 66.843 35.9728 66.4955 36.3197L62.4185 40.3974C61.8383 40.9775 61.8383 41.9179 62.4185 42.498C62.998 43.0775 63.9384 43.0775 64.5185 42.498L68.5961 38.4203C69.5034 37.5125 70.0041 36.3058 70.0046 35.022L70.0087 27.9011H72.9876C75.7716 27.9011 78.0369 25.6363 78.0369 22.8518C78.0369 20.0678 75.7716 17.8025 72.9876 17.8025ZM54.9448 17.517C55.4333 17.0286 56.0743 16.7849 56.7159 16.7849C57.357 16.7849 57.998 17.0292 58.4864 17.517C58.6408 17.6719 58.7684 17.8431 58.874 18.0235C57.2438 18.523 55.9629 19.8276 55.4948 21.4717C55.2981 21.362 55.1119 21.2257 54.9448 21.0586C53.9685 20.0817 53.9685 18.4934 54.9448 17.517ZM72.9876 24.9309H70.0104L70.0128 20.7726H72.9876C74.1339 20.7726 75.0667 21.7055 75.0667 22.8518C75.0667 23.9981 74.1339 24.9309 72.9876 24.9309Z" />
<path d="M25.9715 43.4697C26.1542 44.127 26.7512 44.5568 27.4009 44.5568C27.5332 44.5568 27.6672 44.5394 27.8 44.5023L43.0454 40.2588C43.8356 40.0389 44.2979 39.2198 44.078 38.4297C43.8582 37.6401 43.0396 37.1778 42.2489 37.3976L27.0035 41.6406C26.214 41.861 25.7516 42.6796 25.9715 43.4697Z" />
<path d="M32.6823 45.4293C31.855 46.2565 31.3996 47.3558 31.3996 48.5259C31.3996 49.6954 31.855 50.7948 32.6823 51.622C33.5362 52.4753 34.657 52.9023 35.7784 52.9023C36.8997 52.9023 38.0211 52.4753 38.875 51.622C40.5823 49.9147 40.5823 47.1365 38.875 45.4293C37.1677 43.722 34.3896 43.722 32.6823 45.4293ZM36.7744 49.5214C36.2251 50.0708 35.3317 50.0708 34.7823 49.5214C34.516 49.2557 34.3698 48.9018 34.3698 48.5253C34.3698 48.1494 34.5166 47.7956 34.7823 47.5293C35.0573 47.2549 35.4181 47.1174 35.7784 47.1174C36.1392 47.1174 36.5 47.2549 36.7744 47.5293C37.3238 48.0787 37.3238 48.9726 36.7744 49.5214Z" />
<path d="M39.6107 36.5872C41.318 34.8793 41.318 32.1017 39.6107 30.3945C38.7835 29.5672 37.6836 29.1118 36.514 29.1118C35.3445 29.1118 34.2446 29.5672 33.418 30.3945C31.7107 32.1017 31.7107 34.8793 33.418 36.5872C34.2719 37.4405 35.3927 37.8675 36.514 37.8675C37.6354 37.8675 38.7568 37.4405 39.6107 36.5872ZM35.518 32.4945C35.7843 32.2282 36.1381 32.082 36.514 32.082C36.8905 32.082 37.2444 32.2282 37.5101 32.4945C38.0595 33.0438 38.0595 33.9372 37.5101 34.4866C36.9613 35.036 36.0674 35.036 35.518 34.4866C34.9692 33.9372 34.9692 33.0438 35.518 32.4945Z" />
<path d="M16.771 40.4008C16.1908 39.8207 15.2505 39.8207 14.6704 40.4008L10.4506 44.6206C10.1721 44.8991 10.0155 45.2767 10.0155 45.6706C10.0155 46.0645 10.1721 46.4422 10.4506 46.7206L29.2829 65.5529C29.5724 65.8424 29.9529 65.9874 30.3329 65.9874C30.7129 65.9874 31.0929 65.8424 31.3829 65.5529L59.5394 37.3958C60.1195 36.8157 60.1195 35.8754 59.5394 35.2952L40.7077 16.4635C40.4292 16.1851 40.0516 16.0284 39.6577 16.0284C39.2638 16.0284 38.8861 16.1851 38.6077 16.4635L23.0716 31.9996C22.4915 32.5797 22.4915 33.5201 23.0716 34.1002C23.6511 34.6797 24.5915 34.6797 25.1716 34.1002L39.6577 19.6141L56.3894 36.3458L30.3329 62.4023L13.6012 45.6706L16.771 42.5009C17.3505 41.9207 17.3511 40.981 16.771 40.4008Z" />
<path d="M59.2684 44.163C58.8774 44.163 58.4946 44.3219 58.2184 44.5981C57.9423 44.8742 57.7833 45.2576 57.7833 45.6481C57.7833 46.0385 57.9423 46.4219 58.2184 46.6981C58.4946 46.9742 58.8774 47.1332 59.2684 47.1332C59.6588 47.1332 60.0417 46.9742 60.3184 46.6981C60.5946 46.4219 60.7535 46.0385 60.7535 45.6481C60.7535 45.2576 60.5946 44.8742 60.3184 44.5981C60.0417 44.3219 59.6588 44.163 59.2684 44.163Z" />
<path d="M20.9704 38.2996C21.2482 38.0235 21.406 37.6418 21.406 37.2496C21.406 36.8592 21.2482 36.4775 20.9704 36.1996C20.6942 35.9235 20.3125 35.7645 19.9209 35.7645C19.5299 35.7645 19.147 35.9235 18.8709 36.1996C18.5942 36.4757 18.4358 36.8592 18.4358 37.2496C18.4358 37.6418 18.5942 38.0235 18.8709 38.2996C19.1482 38.5775 19.5299 38.7347 19.9209 38.7347C20.3125 38.7347 20.6942 38.5775 20.9704 38.2996Z" />
</svg>
