<svg width="111" height="22" viewBox="0 0 111 22"  xmlns="http://www.w3.org/2000/svg">
<path fill-rule="evenodd" clip-rule="evenodd" d="M106.227 3.27394V20.8976H104.069V3.27394H100.233V1.31575H110.064V3.27394H106.227ZM97.9189 13.6383C97.5432 14.1885 97.0717 14.5801 96.5042 14.8133C95.9367 15.0464 95.2614 15.1629 94.4781 15.1629C94.1104 15.1629 93.6948 15.135 93.2312 15.079C92.7677 15.0231 92.384 14.9578 92.0803 14.8832V20.8976H89.9223V1.59549C90.5297 1.39035 91.1412 1.24582 91.7566 1.16189C92.372 1.07797 93.0394 1.03601 93.7588 1.03601C94.7179 1.03601 95.5331 1.15257 96.2045 1.38569C96.8759 1.6188 97.4194 2.00578 97.835 2.54661C98.2506 3.08744 98.5543 3.80545 98.7461 4.70062C98.938 5.59579 99.0339 6.70543 99.0339 8.02953C99.0339 9.39094 98.942 10.5286 98.7581 11.4424C98.5743 12.3562 98.2946 13.0882 97.9189 13.6383ZM96.696 5.51187C96.5761 4.84049 96.3883 4.30898 96.1326 3.91734C95.8768 3.52571 95.5531 3.25063 95.1614 3.09211C94.7698 2.93359 94.3022 2.85433 93.7587 2.85433H92.0803V13.2047H93.7587C94.3022 13.2047 94.7698 13.1255 95.1614 12.967C95.5531 12.8084 95.8768 12.5334 96.1326 12.1417C96.3883 11.7501 96.5761 11.2186 96.696 10.5472C96.8159 9.87582 96.8759 9.0366 96.8759 8.02953C96.8759 7.02247 96.8159 6.18324 96.696 5.51187ZM84.5273 15.8623H79.7317L78.6527 20.8976H76.4947L80.571 1.31575H83.6881L87.7643 20.8976H85.6063L84.5273 15.8623ZM82.1775 4.11316H82.0816L80.0914 13.9041H84.1676L82.1775 4.11316ZM71.8191 6.35109H71.6992L68.2224 18.38H66.0644L62.5876 6.35109H62.4677L61.7484 20.8976H59.5904L60.5495 1.31575H63.1871L67.0954 14.7433H67.1914L71.0997 1.31575H73.7373L74.6964 20.8976H72.5384L71.8191 6.35109ZM55.706 19.0793C55.2584 19.8439 54.7189 20.3848 54.0875 20.7018C53.4561 21.0188 52.7327 21.1774 51.9175 21.1774C51.1022 21.1774 50.3789 21.0188 49.7475 20.7018C49.1161 20.3848 48.5766 19.8439 48.129 19.0793C47.6814 18.3147 47.3417 17.2843 47.1099 15.9882C46.8782 14.692 46.7623 13.0649 46.7623 11.1067C46.7623 9.1485 46.8782 7.52134 47.1099 6.22521C47.3417 4.92907 47.6814 3.89869 48.129 3.13407C48.5766 2.36944 49.1161 1.82861 49.7475 1.51157C50.3789 1.19453 51.1022 1.03601 51.9175 1.03601C52.7327 1.03601 53.4561 1.19453 54.0875 1.51157C54.7189 1.82861 55.2584 2.36944 55.706 3.13407C56.1536 3.89869 56.4933 4.92907 56.725 6.22521C56.9568 7.52134 57.0727 9.1485 57.0727 11.1067C57.0727 13.0649 56.9568 14.692 56.725 15.9882C56.4933 17.2843 56.1536 18.3147 55.706 19.0793ZM54.663 6.96652C54.4951 5.88485 54.2753 5.02698 54.0036 4.3929C53.7318 3.75882 53.4121 3.32056 53.0445 3.07812C52.6768 2.83568 52.3011 2.71446 51.9175 2.71446C51.5338 2.71446 51.1582 2.83568 50.7905 3.07812C50.4229 3.32056 50.1032 3.75882 49.8314 4.3929C49.5597 5.02698 49.3399 5.88485 49.172 6.96652C49.0042 8.04818 48.9203 9.42824 48.9203 11.1067C48.9203 12.7851 49.0042 14.1652 49.172 15.2469C49.3399 16.3285 49.5597 17.1864 49.8314 17.8205C50.1032 18.4546 50.4229 18.8928 50.7905 19.1353C51.1582 19.3777 51.5338 19.4989 51.9175 19.4989C52.3011 19.4989 52.6768 19.3777 53.0445 19.1353C53.4121 18.8928 53.7318 18.4546 54.0036 17.8205C54.2753 17.1864 54.4951 16.3285 54.663 15.2469C54.8308 14.1652 54.9147 12.7851 54.9147 11.1067C54.9147 9.42824 54.8308 8.04818 54.663 6.96652ZM41.7269 11.9459H36.6916V20.8976H34.5336V1.31575H36.6916V9.98772H41.7269V1.31575H43.8849V20.8976H41.7269V11.9459ZM30.3383 20.8976L27.3411 12.5054L24.3438 20.8976H22.1858L25.7825 10.8269L22.5455 1.31575H24.7035L27.3411 9.1485L29.9786 1.31575H32.1366L28.8996 10.8269L32.4963 20.8976H30.3383ZM12.7146 1.31575H20.867V3.27394H14.8726V9.70798H20.1477V11.6662H14.8726V18.9394H20.867V20.8976H12.7146V1.31575ZM6.95993 20.8976H4.80192V3.27394H0.965477V1.31575H10.7964V3.27394H6.95993V20.8976Z" fill="white"/>
</svg>
